{
.appVersion = "3202";
.storedFileType = com.glyphsapp.glyphspackage;
.formatVersion = 3;
DisplayStrings = (
"E/Placeholder EINE
H/Placeholder ientu
H/Placeholder HHHOOHOHO
Hnnn/Placeholder nnno
/Placeholder ii/Placeholder iivioi
OOO/Placeholder OOO
Ooo/Placeholder oonov/Placeholder v
n/Placeholder nbuonvie
/Placeholder nuamon
/Placeholder/Placeholder/Placeholder anitasion
-EBJsarta/K.0036 OIH",
"/Placeholder ᬅ/Placeholder ᬆ/Placeholder ᬳ/Placeholder ᬦ/Placeholder ᬘ/Placeholder ᬭ/Placeholder ᬓ/Placeholder ᬤ/Placeholder ᬢ/Placeholder ᬲ/Placeholder ᬯ/Placeholder ᬮ/Placeholder ᬫ/Placeholder ᬕ/Placeholder ᬩ/Placeholder ᬗ/Placeholder ᬧ/Placeholder ᬚ/Placeholder ᬬ/Placeholder ᬜ/Placeholder/ya_tedung-bali -

ᬳᬳᬳ/Placeholder ᬳ

-ᬉ᭞᭟᭛᭚᭚ᬮᬥᬤᬳᬜᬵ/ca_tedung-bali/ra_tedung-bali/da_tedung-bali/na_tedung-bali ᬫᬧᬕᬚᬲ/_ya_bali ᬬᬣᬰᬩᬮᬳᬙᬭ



",
"ᬶ
/ulu_uluRicem-bali 
/ulu_uluCandra-bali 
/ulu_cecek-bali 
/ulu_surang-bali 
ᬷ
/uluSari_uluRicem-bali 
/uluSari_uluCandra-bali 
/uluSari_cecek-bali 
/uluSari_surang-bali 
ᬀ
ᬁ
ᭂ
/pepet_cecek-bali 
/pepet_surang-bali 
ᬂ
/_Cecek_komponen   
ᬃ
᬴
/rerekan_cecek-bali 
/rerekan_surang-bali 
/rerekan_ulu_cecek-bali 
/rerekan_ulu_surang-bali 
/rerekan_uluSari_cecek-bali 
/rerekan_uluSari_surang-bali 
/rerekan_pepet_cecek-bali 
/rerekan_pepet_surang-bali 
ᬸ
/suku-bali.below 
ᬹ
/sukuIlut-bali.below 

ᬺ


ᬼ
",
"/Placeholder  /r.001 jla

glyphs = (
{
color = 4;
glyphname = A;
layers = (
{
anchors = (
{
name = bottom;
pos = (302,0);
},
{
name = ogonek;
pos = (592,0);
},
{
name = top;
pos = (302,700);
}
);
background = {
shapes = (
{
angle = 180;
pos = (608,700);
ref = V;
}
);
};
layerId = m009;
shapes = (
{
closed = 1;
nodes = (
(76,0,l),
(152,230,l),
(157,245,l),
(268,575,ls),
(286,627,o),
(294,649,o),
(304,695,c),
(292,695,l),
(302,651,o),
(310,627,o),
(328,575,cs),
(443,245,l),
(448,230,l),
(527,0,l),
(558,0,l),
(312,700,l),
(283,700,l),
(45,0,l)
);
},
{
closed = 1;
nodes = (
(465,226,l),
(451,252,l),
(146,252,l),
(131,226,l)
);
}
);
width = 603;
},
{
anchors = (
{
name = bottom;
pos = (302,0);
},
{
name = ogonek;
pos = (592,0);
},
{
name = top;
pos = (302,700);
}
);
background = {
shapes = (
{
angle = 180;
pos = (608,700);
ref = V;
}
);
};
layerId = m002;
shapes = (
{
closed = 1;
nodes = (
(104,0,l),
(167,205,l),
(177,245,l),
(280,584,ls),
(290,616,o),
(295,634,o),
(299,661,c),
(294,661,l),
(296,633,o),
(301,616,o),
(312,584,cs),
(423,245,l),
(432,205,l),
(500,0,l),
(592,0,l),
(354,700,l),
(240,700,l),
(12,0,l)
);
},
{
closed = 1;
nodes = (
(460,187,l),
(441,262,l),
(166,262,l),
(146,187,l)
);
}
);
width = 604;
},
{
anchors = (
{
name = bottom;
pos = (302,0);
},
{
name = ogonek;
pos = (592,0);
},
{
name = top;
pos = (302,700);
}
);
background = {
shapes = (
{
angle = 180;
pos = (608,700);
ref = V;
}
);
};
layerId = m003;
shapes = (
{
closed = 1;
nodes = (
(139,0,l),
(197,205,l),
(206,245,l),
(281,515,ls),
(290,547,o),
(295,572,o),
(300,601,c),
(290,601,l),
(298,562,o),
(301,549,o),
(311,517,cs),
(392,245,l),
(402,205,l),
(467,0,l),
(627,0,l),
(388,700,l),
(209,700,l),
(-19,0,l)
);
},
{
closed = 1;
nodes = (
(463,149,l),
(441,279,l),
(166,279,l),
(142,149,l)
);
}
);
width = 608;
},
{
anchors = (
{
name = bottom;
pos = (302,0);
},
{
name = ogonek;
pos = (592,0);
},
{
name = top;
pos = (302,700);
}
);
associatedMasterId = m002;
background = {
shapes = (
{
angle = 180;
pos = (608,700);
ref = V;
}
);
};
layerId = "1CD7B8E7-ECC3-4728-B226-075A53A68CFA";
name = "4 Jul 23 05.40";
shapes = (
{
closed = 1;
nodes = (
(104,0,l),
(167,205,l),
(177,245,l),
(309,675,l),
(283,675,l),
(423,245,l),
(432,205,l),
(500,0,l),
(592,0,l),
(354,700,l),
(241,700,l),
(12,0,l)
);
},
{
closed = 1;
nodes = (
(460,187,l),
(441,262,l),
(166,262,l),
(146,187,l)
);
}
);
width = 604;
}
);
metricRight = "=|";
unicode = 65;
},
{
color = 4;
glyphname = AE;
layers = (
{
.lastUpdate = 710547580.889;
anchors = (
{
name = bottom;
pos = (545,0);
},
{
name = top;
pos = (545,700);
}
);
layerId = m009;
shapes = (
{
closed = 1;
nodes = (
(42,0,l),
(390,644,ls),
(402,666,o),
(402,679,o),
(402,687,c),
(416,700,l),
(395,700,l),
(11,0,l)
);
},
{
closed = 1;
nodes = (
(412,226,l),
(412,252,l),
(164,252,l),
(147,226,l)
);
},
{
pos = (299,0);
ref = E;
}
);
width = 809;
},
{
.lastUpdate = 710547580.889;
anchors = (
{
name = bottom;
pos = (515,0);
},
{
name = top;
pos = (515,700);
}
);
layerId = m002;
shapes = (
{
closed = 1;
nodes = (
(67,0,l),
(352,641,ls),
(358,654,o),
(362,668,o),
(364,684,c),
(380,700,l),
(303,700,l),
(-25,0,l)
);
},
{
closed = 1;
nodes = (
(422,187,l),
(422,262,l),
(145,262,l),
(125,187,l)
);
},
{
pos = (269,0);
ref = E;
}
);
width = 823;
},
{
.lastUpdate = 710547580.889;
anchors = (
{
name = bottom;
pos = (565,0);
},
{
name = top;
pos = (565,700);
}
);
layerId = m003;
shapes = (
{
closed = 1;
nodes = (
(125,0,l),
(337,483,ls),
(352,516,o),
(367,559,o),
(372,599,c),
(438,700,l),
(297,700,l),
(-33,0,l)
);
},
{
closed = 1;
nodes = (
(472,150,l),
(472,280,l),
(195,280,l),
(175,150,l)
);
},
{
pos = (319,0);
ref = E;
}
);
width = 872;
}
);
metricRight = E;
unicode = 198;
},
{
color = 4;
glyphname = B;
layers = (
{
anchors = (
{
name = bar_ver;
pos = (272,359);
}
);
background = {
shapes = (
{
pos = (3,0);
ref = E;
},
{
closed = 1;
nodes = (
(311,326,l),
(364,326,ls),
(437,326,o),
(478,287,o),
(478,201,cs),
(478,116,o),
(437,76,o),
(364,76,cs),
(311,76,l)
);
},
{
pos = (3,0);
ref = H;
}
);
};
layerId = m009;
shapes = (
{
closed = 1;
nodes = (
(321,0,ls),
(462,0,o),
(526,92,o),
(526,199,cs),
(526,294,o),
(470,353,o),
(393,368,c),
(393,371,l),
(446,395,o),
(487,447,o),
(487,525,cs),
(487,637,o),
(407,700,o),
(311,700,cs),
(102,700,l),
(102,0,l)
);
},
{
closed = 1;
nodes = (
(131,367,l),
(122,353,l),
(329,353,ls),
(428,353,o),
(496,299,o),
(496,198,cs),
(496,94,o),
(431,26,o),
(319,26,cs),
(122,26,l),
(131,18,l)
);
},
{
closed = 1;
nodes = (
(131,682,l),
(123,674,l),
(301,674,ls),
(402,674,o),
(458,616,o),
(458,526,cs),
(458,427,o),
(390,377,o),
(312,377,cs),
(122,377,l),
(131,370,l)
);
}
);
width = 578;
},
{
anchors = (
{
name = bottom;
pos = (353,0);
},
{
name = top;
pos = (353,700);
}
);
associatedMasterId = m009;
background = {
shapes = (
{
closed = 0;
nodes = (
(621,312,l),
(645,281,o),
(657,243,o),
(657,198,c),
(657,157,o),
(647,121,o),
(626,91,c),
(605,61,o),
(576,38,o),
(539,23,c),
(502,8,o),
(460,0,o),
(413,0,c),
(185,0,l),
(185,118,l),
(381,118,l),
(420,118,o),
(450,126,o),
(469,142,c),
(488,158,o),
(498,180,o),
(498,209,c),
(498,239,o),
(487,261,o),
(466,276,c),
(445,291,o),
(415,298,o),
(377,298,c),
(185,298,l),
(185,407,l),
(368,407,l),
(387,407,o),
(403,411,o),
(418,418,c),
(432,425,o),
(443,436,o),
(451,449,c),
(459,462,o),
(463,477,o),
(463,494,c),
(463,522,o),
(454,544,o),
(435,559,c),
(416,574,o),
(391,582,o),
(360,582,c),
(185,582,l),
(185,700,l),
(378,700,l),
(426,700,o),
(467,692,o),
(501,675,c),
(535,658,o),
(561,636,o),
(578,608,c),
(595,579,o),
(604,547,o),
(604,510,c),
(604,483,o),
(599,458,o),
(590,437,c),
(581,416,o),
(569,398,o),
(554,383,c),
(538,369,o),
(523,357,o),
(506,349,c)
);
},
{
closed = 1;
nodes = (
(57,0,l),
(209,0,l),
(209,700,l),
(57,700,l)
);
}
);
};
layerId = "041D36F7-0399-4962-A461-FD44F4F7D82C";
name = "28 Oct 22 11.55";
shapes = (
{
closed = 1;
nodes = (
(414,0,ls),
(557,0,o),
(657,80,o),
(657,197,cs),
(657,281,o),
(605,349,o),
(517,374,c),
(516,368,l),
(575,402,o),
(604,452,o),
(604,514,cs),
(604,625,o),
(512,700,o),
(377,700,cs),
(183,700,l),
(183,585,l),
(360,585,ls),
(426,585,o),
(463,554,o),
(463,500,cs),
(463,444,o),
(423,407,o),
(361,407,cs),
(183,407,l),
(183,298,l),
(392,298,ls),
(462,298,o),
(502,266,o),
(502,209,cs),
(502,148,o),
(456,115,o),
(377,115,cs),
(183,115,l),
(183,0,l)
);
},
{
closed = 1;
nodes = (
(218,0,l),
(218,700,l),
(68,700,l),
(68,0,l)
);
}
);
width = 687;
},
{
anchors = (
{
name = bar_ver;
pos = (286,359);
}
);
background = {
shapes = (
{
pos = (17,0);
ref = E;
},
{
closed = 1;
nodes = (
(325,326,l),
(378,326,ls),
(451,326,o),
(492,287,o),
(492,201,cs),
(492,116,o),
(451,76,o),
(378,76,cs),
(325,76,l)
);
},
{
pos = (17,0);
ref = H;
}
);
};
layerId = m002;
shapes = (
{
closed = 1;
nodes = (
(350,0,ls),
(508,0,o),
(572,92,o),
(572,200,cs),
(572,298,o),
(519,354,o),
(446,373,c),
(446,376,l),
(497,399,o),
(533,448,o),
(533,522,cs),
(533,636,o),
(450,700,o),
(330,700,cs),
(92,700,l),
(92,0,l)
);
},
{
closed = 1;
nodes = (
(179,346,l),
(158,328,l),
(337,328,ls),
(438,328,o),
(485,288,o),
(485,203,cs),
(485,120,o),
(441,76,o),
(327,76,cs),
(141,76,l),
(179,38,l)
);
},
{
closed = 1;
nodes = (
(179,662,l),
(141,624,l),
(320,624,ls),
(404,624,o),
(447,591,o),
(447,517,cs),
(447,442,o),
(402,400,o),
(314,400,cs),
(154,400,l),
(179,378,l)
);
}
);
width = 625;
},
{
anchors = (
{
name = bottom;
pos = (353,0);
},
{
name = top;
pos = (353,700);
}
);
associatedMasterId = m002;
background = {
shapes = (
{
closed = 0;
nodes = (
(621,312,l),
(645,281,o),
(657,243,o),
(657,198,c),
(657,157,o),
(647,121,o),
(626,91,c),
(605,61,o),
(576,38,o),
(539,23,c),
(502,8,o),
(460,0,o),
(413,0,c),
(185,0,l),
(185,118,l),
(381,118,l),
(420,118,o),
(450,126,o),
(469,142,c),
(488,158,o),
(498,180,o),
(498,209,c),
(498,239,o),
(487,261,o),
(466,276,c),
(445,291,o),
(415,298,o),
(377,298,c),
(185,298,l),
(185,407,l),
(368,407,l),
(387,407,o),
(403,411,o),
(418,418,c),
(432,425,o),
(443,436,o),
(451,449,c),
(459,462,o),
(463,477,o),
(463,494,c),
(463,522,o),
(454,544,o),
(435,559,c),
(416,574,o),
(391,582,o),
(360,582,c),
(185,582,l),
(185,700,l),
(378,700,l),
(426,700,o),
(467,692,o),
(501,675,c),
(535,658,o),
(561,636,o),
(578,608,c),
(595,579,o),
(604,547,o),
(604,510,c),
(604,483,o),
(599,458,o),
(590,437,c),
(581,416,o),
(569,398,o),
(554,383,c),
(538,369,o),
(523,357,o),
(506,349,c)
);
},
{
closed = 1;
nodes = (
(57,0,l),
(209,0,l),
(209,700,l),
(57,700,l)
);
}
);
};
layerId = "C06F09AC-CF20-4D4F-BC6C-7CFF0A670773";
name = "28 Oct 22 11.55";
shapes = (
{
closed = 1;
nodes = (
(414,0,ls),
(557,0,o),
(657,80,o),
(657,197,cs),
(657,281,o),
(605,349,o),
(517,374,c),
(516,368,l),
(575,402,o),
(604,452,o),
(604,514,cs),
(604,625,o),
(512,700,o),
(377,700,cs),
(183,700,l),
(183,585,l),
(360,585,ls),
(426,585,o),
(463,554,o),
(463,500,cs),
(463,444,o),
(423,407,o),
(361,407,cs),
(183,407,l),
(183,298,l),
(392,298,ls),
(462,298,o),
(502,266,o),
(502,209,cs),
(502,148,o),
(456,115,o),
(377,115,cs),
(183,115,l),
(183,0,l)
);
},
{
closed = 1;
nodes = (
(218,0,l),
(218,700,l),
(68,700,l),
(68,0,l)
);
}
);
width = 687;
},
{
anchors = (
{
name = bar_ver;
pos = (251,359);
}
);
background = {
shapes = (
{
pos = (-18,0);
ref = E;
},
{
closed = 1;
nodes = (
(290,326,l),
(343,326,ls),
(416,326,o),
(457,287,o),
(457,201,cs),
(457,116,o),
(416,76,o),
(343,76,cs),
(290,76,l)
);
},
{
pos = (-18,0);
ref = H;
}
);
};
layerId = m003;
shapes = (
{
closed = 1;
nodes = (
(367,0,ls),
(527,0,o),
(595,92,o),
(595,207,cs),
(595,296,o),
(555,349,o),
(478,376,c),
(478,379,l),
(512,400,o),
(550,447,o),
(550,523,cs),
(550,636,o),
(467,700,o),
(347,700,cs),
(49,700,l),
(49,0,l)
);
},
{
closed = 1;
nodes = (
(197,313,l),
(188,303,l),
(335,303,ls),
(402,303,o),
(442,274,o),
(442,215,cs),
(442,155,o),
(402,125,o),
(327,125,cs),
(180,125,l),
(197,108,l)
);
},
{
closed = 1;
nodes = (
(197,590,l),
(182,575,l),
(321,575,ls),
(381,575,o),
(413,549,o),
(413,499,cs),
(413,444,o),
(372,420,o),
(316,420,cs),
(188,420,l),
(197,415,l)
);
}
);
width = 610;
},
{
anchors = (
{
name = bottom;
pos = (353,0);
},
{
name = top;
pos = (353,700);
}
);
associatedMasterId = m003;
background = {
shapes = (
{
closed = 0;
nodes = (
(621,312,l),
(645,281,o),
(657,243,o),
(657,198,c),
(657,157,o),
(647,121,o),
(626,91,c),
(605,61,o),
(576,38,o),
(539,23,c),
(502,8,o),
(460,0,o),
(413,0,c),
(185,0,l),
(185,118,l),
(381,118,l),
(420,118,o),
(450,126,o),
(469,142,c),
(488,158,o),
(498,180,o),
(498,209,c),
(498,239,o),
(487,261,o),
(466,276,c),
(445,291,o),
(415,298,o),
(377,298,c),
(185,298,l),
(185,407,l),
(368,407,l),
(387,407,o),
(403,411,o),
(418,418,c),
(432,425,o),
(443,436,o),
(451,449,c),
(459,462,o),
(463,477,o),
(463,494,c),
(463,522,o),
(454,544,o),
(435,559,c),
(416,574,o),
(391,582,o),
(360,582,c),
(185,582,l),
(185,700,l),
(378,700,l),
(426,700,o),
(467,692,o),
(501,675,c),
(535,658,o),
(561,636,o),
(578,608,c),
(595,579,o),
(604,547,o),
(604,510,c),
(604,483,o),
(599,458,o),
(590,437,c),
(581,416,o),
(569,398,o),
(554,383,c),
(538,369,o),
(523,357,o),
(506,349,c)
);
},
{
closed = 1;
nodes = (
(57,0,l),
(209,0,l),
(209,700,l),
(57,700,l)
);
}
);
};
layerId = "68BDC934-CAE3-4E2E-9F17-4A448F0A3B6E";
name = "28 Oct 22 11.55";
shapes = (
{
closed = 1;
nodes = (
(414,0,ls),
(557,0,o),
(657,80,o),
(657,197,cs),
(657,281,o),
(605,349,o),
(517,374,c),
(516,368,l),
(575,402,o),
(604,452,o),
(604,514,cs),
(604,625,o),
(512,700,o),
(377,700,cs),
(183,700,l),
(183,585,l),
(360,585,ls),
(426,585,o),
(463,554,o),
(463,500,cs),
(463,444,o),
(423,407,o),
(361,407,cs),
(183,407,l),
(183,298,l),
(392,298,ls),
(462,298,o),
(502,266,o),
(502,209,cs),
(502,148,o),
(456,115,o),
(377,115,cs),
(183,115,l),
(183,0,l)
);
},
{
closed = 1;
nodes = (
(218,0,l),
(218,700,l),
(68,700,l),
(68,0,l)
);
}
);
width = 687;
},
{
anchors = (
{
name = bar_ver;
pos = (243,359);
}
);
associatedMasterId = m003;
background = {
shapes = (
{
pos = (-26,0);
ref = E;
},
{
closed = 1;
nodes = (
(282,326,l),
(335,326,ls),
(408,326,o),
(449,287,o),
(449,201,cs),
(449,116,o),
(408,76,o),
(335,76,cs),
(282,76,l)
);
},
{
pos = (-26,0);
ref = H;
}
);
};
layerId = "BACE46AA-D981-4280-9F9B-0FA061351821";
name = "3 Jul 23 15.29";
shapes = (
{
closed = 1;
nodes = (
(359,0,ls),
(517,0,o),
(581,92,o),
(581,201,cs),
(581,297,o),
(528,355,o),
(467,376,c),
(467,379,l),
(506,400,o),
(542,448,o),
(542,522,cs),
(542,636,o),
(459,700,o),
(339,700,cs),
(41,700,l),
(41,0,l)
);
},
{
closed = 1;
nodes = (
(189,305,l),
(180,297,l),
(334,297,ls),
(403,297,o),
(433,265,o),
(433,220,cs),
(433,162,o),
(400,136,o),
(324,136,cs),
(172,136,l),
(189,119,l)
);
},
{
closed = 1;
nodes = (
(189,579,l),
(174,564,l),
(308,564,ls),
(367,564,o),
(395,542,o),
(395,501,cs),
(395,460,o),
(366,431,o),
(303,431,cs),
(180,431,l),
(189,423,l)
);
}
);
width = 582;
}
);
metricLeft = H;
unicode = 66;
},
{
color = 4;
glyphname = C;
layers = (
{
anchors = (
{
name = bar_hor_dbl;
pos = (208,363);
},
{
name = bottom;
pos = (395,0);
},
{
name = top;
pos = (367,700);
}
);
background = {
shapes = (
{
pos = (23,0);
ref = O;
}
);
};
layerId = m009;
shapes = (
{
closed = 1;
nodes = (
(437,-10,o),
(495,12,o),
(548,56,c),
(541,37,l),
(520,75,l),
(529,72,l),
(472,31,o),
(422,16,o),
(362,16,cs),
(193,16,o),
(90,137,o),
(90,346,cs),
(90,554,o),
(192,684,o),
(364,684,cs),
(428,684,o),
(481,666,o),
(542,612,c),
(525,612,l),
(556,660,l),
(558,632,l),
(495,692,o),
(428,710,o),
(362,710,cs),
(183,710,o),
(60,577,o),
(60,346,cs),
(60,129,o),
(169,-10,o),
(361,-10,cs)
);
}
);
width = 585;
},
{
anchors = (
{
name = bar_hor_dbl;
pos = (212,363);
},
{
name = bottom;
pos = (404,0);
},
{
name = top;
pos = (375,700);
}
);
background = {
shapes = (
{
pos = (10,0);
ref = O;
}
);
};
layerId = m002;
shapes = (
{
closed = 1;
nodes = (
(440,-10,o),
(521,2,o),
(594,62,c),
(590,19,l),
(524,152,l),
(559,136,l),
(506,88,o),
(445,69,o),
(384,69,cs),
(243,69,o),
(140,167,o),
(140,352,cs),
(140,555,o),
(259,631,o),
(383,631,cs),
(456,631,o),
(516,604,o),
(564,551,c),
(526,543,l),
(590,658,l),
(595,630,l),
(536,688,o),
(462,710,o),
(380,710,cs),
(207,710,o),
(50,599,o),
(50,350,cs),
(50,123,o),
(182,-10,o),
(380,-10,cs)
);
}
);
width = 620;
},
{
anchors = (
{
name = bar_hor_dbl;
pos = (205,363);
},
{
name = bottom;
pos = (397,0);
},
{
name = top;
pos = (368,700);
}
);
background = {
shapes = (
{
pos = (3,0);
ref = O;
}
);
};
layerId = m003;
shapes = (
{
closed = 1;
nodes = (
(432,-10,o),
(517,-4,o),
(607,64,c),
(603,19,l),
(521,185,l),
(552,193,l),
(499,145,o),
(436,128,o),
(381,128,cs),
(261,128,o),
(178,211,o),
(178,352,cs),
(178,492,o),
(261,572,o),
(378,572,cs),
(437,572,o),
(491,552,o),
(535,513,c),
(521,511,l),
(603,658,l),
(604,625,l),
(537,684,o),
(467,710,o),
(377,710,cs),
(169,710,o),
(25,571,o),
(25,349,cs),
(25,134,o),
(161,-10,o),
(386,-10,cs)
);
}
);
width = 613;
}
);
metricLeft = O;
unicode = 67;
},
{
color = 4;
glyphname = D;
layers = (
{
anchors = (
{
name = bottom;
pos = (335,0);
},
{
name = center;
pos = (89,350);
},
{
name = top;
pos = (335,700);
}
);
background = {
shapes = (
{
pos = (-74,0);
ref = O;
}
);
};
layerId = m009;
shapes = (
{
closed = 1;
nodes = (
(299,0,ls),
(483,0,o),
(590,137,o),
(590,347,cs),
(590,566,o),
(475,700,o),
(302,700,cs),
(102,700,l),
(102,0,l)
);
},
{
closed = 1;
nodes = (
(131,684,l),
(114,674,l),
(301,674,ls),
(468,674,o),
(560,538,o),
(560,347,cs),
(560,158,o),
(471,26,o),
(302,26,cs),
(119,26,l),
(131,14,l)
);
}
);
width = 650;
},
{
anchors = (
{
name = bottom;
pos = (338,0);
},
{
name = center;
pos = (92,350);
},
{
name = top;
pos = (338,700);
}
);
background = {
shapes = (
{
pos = (-71,0);
ref = O;
}
);
};
layerId = m002;
shapes = (
{
closed = 1;
nodes = (
(295,0,ls),
(512,0,o),
(626,128,o),
(626,350,cs),
(626,572,o),
(512,700,o),
(295,700,cs),
(92,700,l),
(92,0,l)
);
},
{
closed = 1;
nodes = (
(179,668,l),
(141,622,l),
(295,622,ls),
(450,622,o),
(539,536,o),
(539,350,cs),
(539,165,o),
(450,78,o),
(295,78,cs),
(141,78,l),
(179,40,l)
);
}
);
width = 676;
},
{
anchors = (
{
name = bottom;
pos = (316,0);
},
{
name = center;
pos = (70,350);
},
{
name = top;
pos = (316,700);
}
);
background = {
shapes = (
{
pos = (-93,0);
ref = O;
}
);
};
layerId = m003;
shapes = (
{
closed = 1;
nodes = (
(308,0,ls),
(507,0,o),
(654,135,o),
(654,353,cs),
(654,567,o),
(513,700,o),
(312,700,cs),
(49,700,l),
(49,0,l)
);
},
{
closed = 1;
nodes = (
(197,595,l),
(178,570,l),
(312,570,ls),
(415,570,o),
(501,499,o),
(501,354,cs),
(501,203,o),
(408,130,o),
(311,130,cs),
(178,130,l),
(197,102,l)
);
}
);
width = 679;
}
);
metricLeft = H;
metricRight = O;
unicode = 68;
},
{
color = 4;
glyphname = E;
layers = (
{
.lastUpdate = 710547580.889;
anchors = (
{
name = bottom;
pos = (328,0);
},
{
name = ogonek;
pos = (512,0);
},
{
name = top;
pos = (308,700);
},
{
name = topleft;
pos = (30,700);
}
);
background = {
shapes = (
{
closed = 1;
nodes = (
(464,327,l),
(464,405,l),
(135,405,l),
(135,327,l)
);
}
);
};
layerId = m009;
shapes = (
{
alignment = -1;
pos = (6,0);
ref = _part.stem_E;
},
{
pos = (-13,0);
ref = _bottom_E;
},
{
pos = (-13,0);
ref = _top_E;
},
{
pos = (-12,16);
ref = _center_E;
}
);
width = 510;
},
{
.lastUpdate = 710547580.889;
anchors = (
{
name = bottom;
pos = (318,0);
},
{
name = ogonek;
pos = (502,0);
},
{
name = top;
pos = (298,700);
},
{
name = topleft;
pos = (20,700);
}
);
background = {
shapes = (
{
closed = 1;
nodes = (
(478,327,l),
(478,405,l),
(149,405,l),
(149,327,l)
);
}
);
};
layerId = m002;
shapes = (
{
alignment = -1;
pos = (-4,0);
ref = _part.stem_E;
},
{
pos = (6,0);
ref = _bottom_E;
},
{
pos = (6,0);
ref = _top_E;
},
{
pos = (7,16);
ref = _center_E;
}
);
width = 554;
},
{
.lastUpdate = 710547580.889;
anchors = (
{
name = bottom;
pos = (306,0);
},
{
name = ogonek;
pos = (490,0);
},
{
name = top;
pos = (286,700);
},
{
name = topleft;
pos = (8,700);
}
);
background = {
shapes = (
{
closed = 1;
nodes = (
(466,327,l),
(466,405,l),
(137,405,l),
(137,327,l)
);
}
);
};
layerId = m003;
shapes = (
{
alignment = -1;
pos = (-16,0);
ref = _part.stem_E;
},
{
pos = (6,0);
ref = _bottom_E;
},
{
pos = (6,0);
ref = _top_E;
},
{
pos = (7,9);
ref = _center_E;
}
);
width = 553;
}
);
metricLeft = H;
unicode = 69;
},
{
color = 4;
glyphname = Schwa;
lastChange = "2023-07-06 00:51:04 +0000";
layers = (
{
.lastUpdate = 710244701.856;
layerId = m009;
shapes = (
{
closed = 1;
nodes = (
(515,-10,o),
(622,126,o),
(622,347,cs),
(622,577,o),
(506,710,o),
(338,710,cs),
(268,710,o),
(187,687,o),
(128,632,c),
(130,660,l),
(161,612,l),
(141,612,l),
(199,660,o),
(259,684,o),
(331,684,cs),
(500,684,o),
(591,552,o),
(591,337,cs),
(591,328,ls),
(591,168,o),
(507,16,o),
(337,16,cs),
(213,16,o),
(88,90,o),
(103,325,c),
(92,316,l),
(600,316,l),
(600,342,l),
(63,342,l),
(77,353,l),
(51,117,o),
(160,-10,o),
(333,-10,cs)
);
}
);
width = 705;
},
{
.lastUpdate = 710244639.497;
layerId = m002;
shapes = (
{
closed = 1;
nodes = (
(515,-10,o),
(645,116,o),
(645,351,cs),
(645,583,o),
(518,710,o),
(335,710,cs),
(239,710,o),
(158,675,o),
(100,626,c),
(104,653,l),
(163,561,l),
(135,560,l),
(184,602,o),
(246,632,o),
(327,632,cs),
(462,632,o),
(561,546,o),
(555,350,cs),
(554,319,ls),
(548,145,o),
(454,68,o),
(336,68,cs),
(222,68,o),
(114,140,o),
(129,316,c),
(118,296,l),
(575,296,l),
(575,369,l),
(-2,369,l),
(49,410,l),
(0,137,o),
(132,-10,o),
(331,-10,cs)
);
}
);
width = 695;
},
{
.lastUpdate = 710244635.53;
layerId = m003;
shapes = (
{
closed = 1;
nodes = (
(561,-10,o),
(707,125,o),
(707,353,cs),
(707,575,o),
(569,710,o),
(362,710,cs),
(273,710,o),
(186,685,o),
(104,625,c),
(105,658,l),
(187,511,l),
(171,513,l),
(235,555,o),
(290,572,o),
(351,572,cs),
(478,572,o),
(548,500,o),
(548,371,cs),
(548,308,ls),
(548,201,o),
(476,128,o),
(361,128,cs),
(249,128,o),
(180,199,o),
(200,297,c),
(175,267,l),
(563,267,l),
(563,399,l),
(27,399,l),
(51,410,l),
(1,148,o),
(141,-10,o),
(359,-10,cs)
);
}
);
width = 732;
}
);
metricRight = O;
unicode = 399;
},
{
color = 4;
glyphname = G;
layers = (
{
anchors = (
{
name = bottom;
pos = (386,0);
},
{
name = top;
pos = (366,700);
}
);
background = {
shapes = (
{
pos = (0,-1100);
ref = C;
},
{
closed = 1;
nodes = (
(462,-1110,o),
(555,-1069,o),
(613,-994,c),
(602,-1029,l),
(604,-738,l),
(382,-738,l),
(382,-808,l),
(567,-808,l),
(530,-763,l),
(530,-1030,l),
(547,-969,l),
(492,-1019,o),
(441,-1038,o),
(379,-1038,cs),
(245,-1038,o),
(138,-948,o),
(138,-750,cs),
(138,-550,o),
(247,-465,o),
(377,-465,cs),
(435,-465,o),
(501,-482,o),
(562,-543,c),
(520,-560,l),
(590,-425,l),
(593,-477,l),
(535,-418,o),
(457,-390,o),
(374,-390,cs),
(190,-390,o),
(50,-526,o),
(50,-750,cs),
(50,-974,o),
(189,-1110,o),
(365,-1110,cs)
);
},
{
closed = 1;
nodes = (
(637,-977,l),
(687,-1029,l),
(626,-1064,o),
(601,-1039,o),
(602,-969,cs),
(604,-733,l),
(370,-733,l),
(370,-803,l),
(567,-803,l),
(536,-758,l),
(535,-798,ls),
(531,-966,o),
(451,-1038,o),
(351,-1038,cs),
(238,-1038,o),
(137,-947,o),
(137,-757,cs),
(137,-550,o),
(247,-465,o),
(377,-465,cs),
(435,-465,o),
(501,-482,o),
(562,-543,c),
(506,-560,l),
(575,-425,l),
(593,-477,l),
(535,-418,o),
(457,-390,o),
(374,-390,cs),
(190,-390,o),
(49,-526,o),
(49,-757,cs),
(49,-974,o),
(186,-1110,o),
(343,-1110,cs),
(410,-1110,o),
(493,-1085,o),
(533,-979,c),
(568,-988,l),
(543,-964,l),
(524,-1059,o),
(550,-1110,o),
(621,-1110,cs),
(651,-1110,o),
(672,-1101,o),
(691,-1088,c),
(684,-1133,l)
);
},
{
pos = (-1,0);
ref = C;
}
);
};
layerId = m009;
shapes = (
{
closed = 1;
nodes = (
(453,-10,o),
(530,32,o),
(569,130,c),
(571,130,l),
(577,0,l),
(596,0,l),
(596,341,l),
(401,341,l),
(401,315,l),
(582,315,l),
(571,324,l),
(570,235,ls),
(569,107,o),
(490,15,o),
(357,15,cs),
(199,15,o),
(90,146,o),
(90,349,cs),
(90,554,o),
(202,684,o),
(377,684,cs),
(447,684,o),
(504,663,o),
(561,612,c),
(544,612,l),
(575,660,l),
(577,632,l),
(518,689,o),
(447,710,o),
(376,710,cs),
(199,710,o),
(60,577,o),
(60,347,cs),
(60,138,o),
(174,-10,o),
(357,-10,cs)
);
}
);
width = 669;
},
{
anchors = (
{
name = bottom;
pos = (397,0);
},
{
name = top;
pos = (377,700);
}
);
background = {
shapes = (
{
pos = (11,-1100);
ref = C;
},
{
closed = 1;
nodes = (
(473,-1110,o),
(566,-1069,o),
(624,-994,c),
(613,-1029,l),
(615,-738,l),
(393,-738,l),
(393,-808,l),
(578,-808,l),
(541,-763,l),
(541,-1030,l),
(558,-969,l),
(503,-1019,o),
(452,-1038,o),
(390,-1038,cs),
(256,-1038,o),
(149,-948,o),
(149,-750,cs),
(149,-550,o),
(258,-465,o),
(388,-465,cs),
(446,-465,o),
(512,-482,o),
(573,-543,c),
(531,-560,l),
(601,-425,l),
(604,-477,l),
(546,-418,o),
(468,-390,o),
(385,-390,cs),
(201,-390,o),
(61,-526,o),
(61,-750,cs),
(61,-974,o),
(200,-1110,o),
(376,-1110,cs)
);
},
{
closed = 1;
nodes = (
(648,-977,l),
(698,-1029,l),
(637,-1064,o),
(612,-1039,o),
(613,-969,cs),
(615,-733,l),
(381,-733,l),
(381,-803,l),
(578,-803,l),
(547,-758,l),
(546,-798,ls),
(542,-966,o),
(462,-1038,o),
(362,-1038,cs),
(249,-1038,o),
(148,-947,o),
(148,-757,cs),
(148,-550,o),
(258,-465,o),
(388,-465,cs),
(446,-465,o),
(512,-482,o),
(573,-543,c),
(517,-560,l),
(586,-425,l),
(604,-477,l),
(546,-418,o),
(468,-390,o),
(385,-390,cs),
(201,-390,o),
(60,-526,o),
(60,-757,cs),
(60,-974,o),
(197,-1110,o),
(354,-1110,cs),
(421,-1110,o),
(504,-1085,o),
(544,-979,c),
(579,-988,l),
(554,-964,l),
(535,-1059,o),
(561,-1110,o),
(632,-1110,cs),
(662,-1110,o),
(683,-1101,o),
(702,-1088,c),
(695,-1133,l)
);
},
{
pos = (10,0);
ref = C;
}
);
};
layerId = m002;
shapes = (
{
closed = 1;
nodes = (
(459,-10,o),
(515,26,o),
(553,84,c),
(555,84,l),
(571,0,l),
(636,0,l),
(638,366,l),
(406,366,l),
(406,290,l),
(593,290,l),
(563,325,l),
(561,238,ls),
(559,141,o),
(492,66,o),
(376,66,cs),
(240,66,o),
(140,168,o),
(140,352,cs),
(140,545,o),
(250,631,o),
(390,631,cs),
(472,631,o),
(537,601,o),
(584,549,c),
(546,543,l),
(610,658,l),
(614,626,l),
(556,687,o),
(471,710,o),
(390,710,cs),
(207,710,o),
(50,594,o),
(50,350,cs),
(50,118,o),
(193,-10,o),
(367,-10,cs)
);
}
);
width = 696;
},
{
anchors = (
{
name = bottom;
pos = (392,0);
},
{
name = top;
pos = (372,700);
}
);
background = {
shapes = (
{
pos = (6,-1100);
ref = C;
},
{
closed = 1;
nodes = (
(468,-1110,o),
(561,-1069,o),
(619,-994,c),
(608,-1029,l),
(610,-738,l),
(388,-738,l),
(388,-808,l),
(573,-808,l),
(536,-763,l),
(536,-1030,l),
(553,-969,l),
(498,-1019,o),
(447,-1038,o),
(385,-1038,cs),
(251,-1038,o),
(144,-948,o),
(144,-750,cs),
(144,-550,o),
(253,-465,o),
(383,-465,cs),
(441,-465,o),
(507,-482,o),
(568,-543,c),
(526,-560,l),
(596,-425,l),
(599,-477,l),
(541,-418,o),
(463,-390,o),
(380,-390,cs),
(196,-390,o),
(56,-526,o),
(56,-750,cs),
(56,-974,o),
(195,-1110,o),
(371,-1110,cs)
);
},
{
closed = 1;
nodes = (
(643,-977,l),
(693,-1029,l),
(632,-1064,o),
(607,-1039,o),
(608,-969,cs),
(610,-733,l),
(376,-733,l),
(376,-803,l),
(573,-803,l),
(542,-758,l),
(541,-798,ls),
(537,-966,o),
(457,-1038,o),
(357,-1038,cs),
(244,-1038,o),
(143,-947,o),
(143,-757,cs),
(143,-550,o),
(253,-465,o),
(383,-465,cs),
(441,-465,o),
(507,-482,o),
(568,-543,c),
(512,-560,l),
(581,-425,l),
(599,-477,l),
(541,-418,o),
(463,-390,o),
(380,-390,cs),
(196,-390,o),
(55,-526,o),
(55,-757,cs),
(55,-974,o),
(192,-1110,o),
(349,-1110,cs),
(416,-1110,o),
(499,-1085,o),
(539,-979,c),
(574,-988,l),
(549,-964,l),
(530,-1059,o),
(556,-1110,o),
(627,-1110,cs),
(657,-1110,o),
(678,-1101,o),
(697,-1088,c),
(690,-1133,l)
);
},
{
pos = (5,0);
ref = C;
}
);
};
layerId = m003;
shapes = (
{
closed = 1;
nodes = (
(409,-10,o),
(493,6,o),
(543,67,c),
(546,67,l),
(572,0,l),
(665,0,l),
(667,392,l),
(390,392,l),
(390,266,l),
(547,266,l),
(540,285,l),
(540,258,ls),
(540,178,o),
(484,114,o),
(382,114,cs),
(258,114,o),
(178,207,o),
(178,347,cs),
(178,493,o),
(265,572,o),
(400,572,cs),
(460,572,o),
(519,556,o),
(569,513,c),
(555,511,l),
(637,658,l),
(638,625,l),
(565,689,o),
(484,710,o),
(401,710,cs),
(188,710,o),
(25,571,o),
(25,341,cs),
(25,132,o),
(160,-10,o),
(346,-10,cs)
);
}
);
width = 713;
}
);
metricLeft = O;
unicode = 71;
},
{
color = 4;
glyphname = H;
layers = (
{
anchors = (
{
name = bottom;
pos = (417,0);
},
{
name = center;
pos = (417,350);
},
{
name = top;
pos = (417,700);
},
{
name = topleft;
pos = (90,700);
}
);
background = {
shapes = (
{
pos = (59,0);
ref = O;
}
);
};
layerId = m009;
shapes = (
{
closed = 1;
nodes = (
(131,0,l),
(131,353,l),
(120,343,l),
(533,343,l),
(524,350,l),
(524,0,l),
(553,0,l),
(553,700,l),
(524,700,l),
(524,360,l),
(537,369,l),
(120,369,l),
(131,359,l),
(131,700,l),
(102,700,l),
(102,0,l)
);
}
);
width = 655;
},
{
anchors = (
{
name = bottom;
pos = (347,0);
},
{
name = center;
pos = (347,350);
},
{
name = top;
pos = (347,700);
},
{
name = topleft;
pos = (20,700);
}
);
background = {
shapes = (
{
pos = (-11,0);
ref = O;
}
);
};
layerId = m002;
shapes = (
{
closed = 1;
nodes = (
(179,0,l),
(179,341,l),
(159,318,l),
(527,318,l),
(514,337,l),
(514,0,l),
(601,0,l),
(601,700,l),
(514,700,l),
(514,375,l),
(531,396,l),
(159,396,l),
(179,372,l),
(179,700,l),
(92,700,l),
(92,0,l)
);
}
);
width = 693;
},
{
anchors = (
{
name = bottom;
pos = (287,0);
},
{
name = center;
pos = (287,350);
},
{
name = top;
pos = (287,700);
},
{
name = topleft;
pos = (-40,700);
}
);
background = {
shapes = (
{
pos = (-71,0);
ref = O;
}
);
};
layerId = m003;
shapes = (
{
closed = 1;
nodes = (
(197,0,l),
(197,315,l),
(177,291,l),
(484,291,l),
(471,311,l),
(471,0,l),
(619,0,l),
(619,700,l),
(471,700,l),
(471,399,l),
(488,423,l),
(177,423,l),
(197,396,l),
(197,700,l),
(49,700,l),
(49,0,l)
);
}
);
width = 668;
}
);
metricRight = "=|";
unicode = 72;
},
{
color = 4;
glyphname = I;
layers = (
{
anchors = (
{
name = bottom;
pos = (118,0);
},
{
name = ogonek;
pos = (131,0);
},
{
name = top;
pos = (118,680);
},
{
name = topleft;
pos = (-28,680);
}
);
layerId = m009;
shapes = (
{
closed = 1;
nodes = (
(131,0,l),
(131,700,l),
(102,700,l),
(102,0,l)
);
}
);
width = 233;
},
{
anchors = (
{
name = bottom;
pos = (136,0);
},
{
name = ogonek;
pos = (179,0);
},
{
name = top;
pos = (136,700);
},
{
name = topleft;
pos = (20,700);
}
);
layerId = m002;
shapes = (
{
closed = 1;
nodes = (
(179,0,l),
(179,700,l),
(92,700,l),
(92,0,l)
);
}
);
width = 271;
},
{
anchors = (
{
name = bottom;
pos = (123,0);
},
{
name = ogonek;
pos = (197,0);
},
{
name = top;
pos = (123,720);
},
{
name = topleft;
pos = (38,720);
}
);
layerId = m003;
shapes = (
{
closed = 1;
nodes = (
(197,0,l),
(197,700,l),
(49,700,l),
(49,0,l)
);
}
);
width = 246;
}
);
metricLeft = H;
metricRight = H;
unicode = 73;
},
{
color = 4;
glyphname = J;
layers = (
{
anchors = (
{
name = bottom;
pos = (230,0);
},
{
name = top;
pos = (341,700);
}
);
background = {
shapes = (
{
pos = (-49,0);
ref = S;
}
);
};
layerId = m009;
shapes = (
{
closed = 1;
nodes = (
(290,-10,o),
(355,42,o),
(355,170,cs),
(355,700,l),
(326,700,l),
(326,170,ls),
(326,100,o),
(303,17,o),
(195,17,cs),
(147,17,o),
(97,33,o),
(52,66,c),
(68,69,l),
(43,29,l),
(34,46,l),
(88,6,o),
(143,-10,o),
(195,-10,cs)
);
}
);
width = 460;
},
{
associatedMasterId = m009;
background = {
shapes = (
{
pos = (-291,-33);
ref = O;
}
);
};
layerId = "22E1EDE1-F2B9-428D-89A2-F8360D613A45";
name = "26 Apr 23 14.04";
shapes = (
{
closed = 1;
nodes = (
(272,-10,o),
(347,42,o),
(347,190,cs),
(347,700,l),
(260,700,l),
(260,198,ls),
(260,96,o),
(226,69,o),
(166,69,cs),
(116,69,o),
(68,92,o),
(3,143,c),
(55,156,l),
(-20,23,l),
(-31,72,l),
(30,21,o),
(98,-10,o),
(178,-10,cs)
);
}
);
width = 412;
},
{
associatedMasterId = m009;
background = {
shapes = (
{
pos = (-49,0);
ref = S;
}
);
};
layerId = "94D5F574-793A-4ED9-BE76-93CBC6D2564F";
name = "27 Apr 23 10.24";
shapes = (
{
closed = 1;
nodes = (
(261,-10,o),
(347,41,o),
(347,186,cs),
(347,700,l),
(260,700,l),
(260,188,ls),
(260,95,o),
(217,68,o),
(155,68,cs),
(107,68,o),
(62,86,o),
(24,109,c),
(70,136,l),
(-8,-14,l),
(-12,40,l),
(36,10,o),
(100,-10,o),
(161,-10,cs)
);
}
);
width = 412;
},
{
anchors = (
{
name = bottom;
pos = (230,0);
},
{
name = top;
pos = (341,700);
}
);
background = {
shapes = (
{
pos = (-49,0);
ref = S;
}
);
};
layerId = m002;
shapes = (
{
closed = 1;
nodes = (
(309,-10,o),
(385,55,o),
(385,200,cs),
(385,700,l),
(298,700,l),
(298,211,ls),
(298,122,o),
(271,68,o),
(185,68,cs),
(134,68,o),
(88,87,o),
(38,127,c),
(54,132,l),
(0,44,l),
(-5,58,l),
(62,6,o),
(126,-10,o),
(185,-10,cs)
);
}
);
width = 460;
},
{
associatedMasterId = m002;
background = {
shapes = (
{
pos = (-291,-33);
ref = O;
}
);
};
layerId = "E48E37BB-C9E0-4775-BE4A-773108C5F66F";
name = "26 Apr 23 14.04";
shapes = (
{
closed = 1;
nodes = (
(272,-10,o),
(347,42,o),
(347,190,cs),
(347,700,l),
(260,700,l),
(260,198,ls),
(260,96,o),
(226,69,o),
(166,69,cs),
(116,69,o),
(68,92,o),
(3,143,c),
(55,156,l),
(-20,23,l),
(-31,72,l),
(30,21,o),
(98,-10,o),
(178,-10,cs)
);
}
);
width = 412;
},
{
associatedMasterId = m002;
background = {
shapes = (
{
pos = (-49,0);
ref = S;
}
);
};
layerId = "0E925461-2761-47BD-B75E-1C8A4DD4198D";
name = "27 Apr 23 10.24";
shapes = (
{
closed = 1;
nodes = (
(261,-10,o),
(347,41,o),
(347,186,cs),
(347,700,l),
(260,700,l),
(260,188,ls),
(260,95,o),
(217,68,o),
(155,68,cs),
(107,68,o),
(62,86,o),
(24,109,c),
(70,136,l),
(-8,-14,l),
(-12,40,l),
(36,10,o),
(100,-10,o),
(161,-10,cs)
);
}
);
width = 412;
},
{
anchors = (
{
name = bottom;
pos = (230,0);
},
{
name = top;
pos = (341,700);
}
);
background = {
shapes = (
{
pos = (-49,0);
ref = S;
}
);
};
layerId = m003;
shapes = (
{
closed = 1;
nodes = (
(333,-10,o),
(415,75,o),
(415,220,cs),
(415,700,l),
(267,700,l),
(267,241,ls),
(267,158,o),
(241,128,o),
(176,128,cs),
(127,128,o),
(87,149,o),
(39,190,c),
(51,194,l),
(-31,64,l),
(-35,78,l),
(41,13,o),
(117,-10,o),
(194,-10,cs)
);
}
);
width = 459;
},
{
associatedMasterId = m003;
background = {
shapes = (
{
pos = (-291,-33);
ref = O;
}
);
};
layerId = "F3E92BF2-01B8-4841-B3EF-51B04F316A83";
name = "26 Apr 23 14.04";
shapes = (
{
closed = 1;
nodes = (
(272,-10,o),
(347,42,o),
(347,190,cs),
(347,700,l),
(260,700,l),
(260,198,ls),
(260,96,o),
(226,69,o),
(166,69,cs),
(116,69,o),
(68,92,o),
(3,143,c),
(55,156,l),
(-20,23,l),
(-31,72,l),
(30,21,o),
(98,-10,o),
(178,-10,cs)
);
}
);
width = 412;
},
{
associatedMasterId = m003;
background = {
shapes = (
{
pos = (-49,0);
ref = S;
}
);
};
layerId = "A78DFBC6-8B8D-4CA9-B8C5-6EDBB1756281";
name = "27 Apr 23 10.24";
shapes = (
{
closed = 1;
nodes = (
(261,-10,o),
(347,41,o),
(347,186,cs),
(347,700,l),
(260,700,l),
(260,188,ls),
(260,95,o),
(217,68,o),
(155,68,cs),
(107,68,o),
(62,86,o),
(24,109,c),
(70,136,l),
(-8,-14,l),
(-12,40,l),
(36,10,o),
(100,-10,o),
(161,-10,cs)
);
}
);
width = 412;
}
);
metricRight = U;
unicode = 74;
},
{
color = 4;
glyphname = K;
layers = (
{
anchors = (
{
name = bottom;
pos = (307,0);
},
{
name = top;
pos = (308,700);
}
);
background = {
shapes = (
{
pos = (-4,0);
ref = H;
}
);
};
layerId = m009;
shapes = (
{
closed = 1;
nodes = (
(131,0,l),
(131,212,ls),
(131,221,o),
(133,228,o),
(139,235,cs),
(274,394,l),
(281,402,l),
(527,700,l),
(493,700,l),
(116,248,l),
(131,249,l),
(131,700,l),
(102,700,l),
(102,0,l)
);
},
{
closed = 1;
nodes = (
(542,0,l),
(282,417,l),
(262,395,l),
(508,0,l)
);
}
);
width = 566;
},
{
anchors = (
{
name = bottom;
pos = (321,0);
},
{
name = top;
pos = (322,700);
}
);
background = {
shapes = (
{
pos = (10,0);
ref = H;
}
);
};
layerId = m002;
shapes = (
{
closed = 1;
nodes = (
(179,0,l),
(179,205,ls),
(179,214,o),
(181,221,o),
(187,228,cs),
(295,356,l),
(321,382,l),
(584,700,l),
(482,700,l),
(177,332,l),
(179,319,l),
(179,700,l),
(92,700,l),
(92,0,l)
);
},
{
closed = 1;
nodes = (
(597,0,l),
(330,434,l),
(273,367,l),
(494,0,l)
);
}
);
width = 619;
},
{
anchors = (
{
name = bottom;
pos = (288,0);
},
{
name = top;
pos = (289,700);
}
);
background = {
shapes = (
{
pos = (-23,0);
ref = H;
}
);
};
layerId = m003;
shapes = (
{
closed = 1;
nodes = (
(197,0,l),
(197,212,ls),
(197,221,o),
(199,228,o),
(208,238,cs),
(312,362,l),
(335,380,l),
(602,700,l),
(432,700,l),
(181,397,l),
(197,397,l),
(197,700,l),
(49,700,l),
(49,0,l)
);
},
{
closed = 1;
nodes = (
(629,0,l),
(340,459,l),
(237,363,l),
(458,0,l)
);
}
);
width = 636;
}
);
metricLeft = H;
unicode = 75;
},
{
color = 4;
glyphname = M;
layers = (
{
anchors = (
{
name = bottom;
pos = (410,0);
},
{
name = top;
pos = (410,700);
}
);
background = {
shapes = (
{
pos = (121,0);
ref = V;
}
);
};
layerId = m009;
shapes = (
{
closed = 1;
nodes = (
(130,0,l),
(130,583,ls),
(130,615,o),
(127,628,o),
(121,666,c),
(115,666,l),
(395,0,l),
(412,0,l),
(709,671,l),
(702,671,l),
(695,642,o),
(692,621,o),
(692,586,cs),
(692,0,l),
(720,0,l),
(720,700,l),
(692,700,l),
(399,34,l),
(408,35,l),
(130,700,l),
(102,700,l),
(102,0,l)
);
}
);
width = 822;
},
{
associatedMasterId = m009;
background = {
shapes = (
{
pos = (91,0);
ref = V;
}
);
};
layerId = "C6209AE7-CD7A-406B-A077-906990906F06";
name = "18 Apr 23 15.53";
shapes = (
{
closed = 1;
nodes = (
(160,0,l),
(160,377,ls),
(160,508,o),
(148,588,o),
(139,615,c),
(147,619,l),
(360,0,l),
(444,0,l),
(661,619,l),
(667,617,l),
(661,591,o),
(650,506,o),
(650,377,cs),
(650,0,l),
(735,0,l),
(735,700,l),
(604,700,l),
(422,179,ls),
(411,146,o),
(407,113,o),
(405,95,c),
(400,95,l),
(399,113,o),
(395,142,o),
(380,187,cs),
(205,700,l),
(75,700,l),
(75,0,l)
);
}
);
width = 810;
},
{
anchors = (
{
name = bottom;
pos = (428,0);
},
{
name = top;
pos = (428,700);
}
);
background = {
shapes = (
{
pos = (139,0);
ref = V;
}
);
};
layerId = m002;
shapes = (
{
closed = 1;
nodes = (
(175,0,l),
(175,569,ls),
(175,601,o),
(166,629,o),
(166,657,c),
(157,657,l),
(370,0,l),
(483,0,l),
(700,657,l),
(690,657,l),
(690,629,o),
(680,602,o),
(680,567,cs),
(680,0,l),
(765,0,l),
(765,700,l),
(625,700,l),
(417,53,l),
(436,53,l),
(230,700,l),
(92,700,l),
(92,0,l)
);
}
);
width = 857;
},
{
associatedMasterId = m002;
background = {
shapes = (
{
pos = (91,0);
ref = V;
}
);
};
layerId = "1D824A9F-1347-4DF1-9A49-3F68593BFB53";
name = "18 Apr 23 15.53";
shapes = (
{
closed = 1;
nodes = (
(160,0,l),
(160,377,ls),
(160,508,o),
(148,588,o),
(139,615,c),
(147,619,l),
(360,0,l),
(444,0,l),
(661,619,l),
(667,617,l),
(661,591,o),
(650,506,o),
(650,377,cs),
(650,0,l),
(735,0,l),
(735,700,l),
(604,700,l),
(422,179,ls),
(411,146,o),
(407,113,o),
(405,95,c),
(400,95,l),
(399,113,o),
(395,142,o),
(380,187,cs),
(205,700,l),
(75,700,l),
(75,0,l)
);
}
);
width = 810;
},
{
anchors = (
{
name = bottom;
pos = (425,0);
},
{
name = top;
pos = (425,700);
}
);
background = {
shapes = (
{
pos = (136,0);
ref = V;
}
);
};
layerId = m003;
shapes = (
{
closed = 1;
nodes = (
(192,0,l),
(192,500,ls),
(192,532,o),
(183,560,o),
(183,588,c),
(177,588,l),
(334,0,l),
(512,0,l),
(671,597,l),
(664,595,l),
(664,567,o),
(654,540,o),
(654,505,cs),
(654,0,l),
(799,0,l),
(799,700,l),
(566,700,l),
(397,53,l),
(448,53,l),
(278,700,l),
(49,700,l),
(49,0,l)
);
}
);
width = 848;
},
{
associatedMasterId = m003;
background = {
shapes = (
{
pos = (91,0);
ref = V;
}
);
};
layerId = "9CA2DB09-287B-4413-8002-E129D60F2DEE";
name = "18 Apr 23 15.53";
shapes = (
{
closed = 1;
nodes = (
(160,0,l),
(160,377,ls),
(160,508,o),
(148,588,o),
(139,615,c),
(147,619,l),
(360,0,l),
(444,0,l),
(661,619,l),
(667,617,l),
(661,591,o),
(650,506,o),
(650,377,cs),
(650,0,l),
(735,0,l),
(735,700,l),
(604,700,l),
(422,179,ls),
(411,146,o),
(407,113,o),
(405,95,c),
(400,95,l),
(399,113,o),
(395,142,o),
(380,187,cs),
(205,700,l),
(75,700,l),
(75,0,l)
);
}
);
width = 810;
}
);
metricLeft = H;
metricRight = H;
unicode = 77;
},
{
color = 4;
glyphname = N;
layers = (
{
anchors = (
{
name = bottom;
pos = (326,0);
},
{
name = top;
pos = (326,700);
}
);
background = {
shapes = (
{
pos = (-7,0);
ref = H;
}
);
};
layerId = m009;
shapes = (
{
closed = 1;
nodes = (
(130,0,l),
(130,606,ls),
(130,628,o),
(128,660,o),
(119,675,c),
(115,673,l),
(530,0,l),
(558,0,l),
(558,700,l),
(530,700,l),
(530,96,ls),
(530,81,o),
(529,59,o),
(537,33,c),
(538,38,l),
(130,700,l),
(102,700,l),
(102,0,l)
);
}
);
width = 660;
},
{
associatedMasterId = m009;
background = {
shapes = (
{
pos = (-5,0);
ref = H;
}
);
};
layerId = "4B8B70EA-52B5-47E9-90A1-CAF6BDCB405D";
name = "18 Apr 23 15.55";
shapes = (
{
closed = 1;
nodes = (
(160,0,l),
(160,447,ls),
(160,515,o),
(152,544,o),
(143,561,c),
(150,564,l),
(508,0,l),
(588,0,l),
(588,700,l),
(504,700,l),
(504,249,ls),
(504,194,o),
(510,156,o),
(525,131,c),
(519,127,l),
(156,700,l),
(75,700,l),
(75,0,l)
);
}
);
width = 663;
},
{
anchors = (
{
name = bottom;
pos = (343,0);
},
{
name = top;
pos = (343,700);
}
);
background = {
shapes = (
{
pos = (10,0);
ref = H;
}
);
};
layerId = m002;
shapes = (
{
closed = 1;
nodes = (
(177,0,l),
(177,490,ls),
(177,540,o),
(170,592,o),
(157,629,c),
(137,629,l),
(502,0,l),
(601,0,l),
(601,700,l),
(516,700,l),
(516,177,ls),
(516,141,o),
(521,116,o),
(536,81,c),
(553,71,l),
(190,700,l),
(92,700,l),
(92,0,l)
);
}
);
width = 693;
},
{
associatedMasterId = m002;
background = {
shapes = (
{
pos = (-5,0);
ref = H;
}
);
};
layerId = "9373F882-F8CD-4E6B-9185-33FE0A82D916";
name = "18 Apr 23 15.55";
shapes = (
{
closed = 1;
nodes = (
(160,0,l),
(160,447,ls),
(160,515,o),
(152,544,o),
(143,561,c),
(150,564,l),
(508,0,l),
(588,0,l),
(588,700,l),
(504,700,l),
(504,249,ls),
(504,194,o),
(510,156,o),
(525,131,c),
(519,127,l),
(156,700,l),
(75,700,l),
(75,0,l)
);
}
);
width = 663;
},
{
anchors = (
{
name = bottom;
pos = (333,0);
},
{
name = top;
pos = (333,700);
}
);
background = {
shapes = (
{
ref = H;
}
);
};
layerId = m003;
shapes = (
{
closed = 1;
nodes = (
(192,0,l),
(192,422,ls),
(192,466,o),
(187,473,o),
(166,524,c),
(161,524,l),
(465,0,l),
(620,0,l),
(620,700,l),
(474,700,l),
(474,269,ls),
(474,234,o),
(481,225,o),
(494,190,c),
(500,187,l),
(204,700,l),
(49,700,l),
(49,0,l)
);
}
);
width = 669;
},
{
associatedMasterId = m003;
background = {
shapes = (
{
pos = (-5,0);
ref = H;
}
);
};
layerId = "D7BA54ED-07DB-41C8-878D-2CB038E897F3";
name = "18 Apr 23 15.55";
shapes = (
{
closed = 1;
nodes = (
(160,0,l),
(160,447,ls),
(160,515,o),
(152,544,o),
(143,561,c),
(150,564,l),
(508,0,l),
(588,0,l),
(588,700,l),
(504,700,l),
(504,249,ls),
(504,194,o),
(510,156,o),
(525,131,c),
(519,127,l),
(156,700,l),
(75,700,l),
(75,0,l)
);
}
);
width = 663;
}
);
metricLeft = H;
metricRight = H;
unicode = 78;
},
{
color = 4;
glyphname = O;
layers = (
{
anchors = (
{
name = bottom;
pos = (351,0);
},
{
name = center;
pos = (351,350);
},
{
name = ogonek;
pos = (404,0);
},
{
name = top;
pos = (351,700);
},
{
name = topleft;
pos = (-5,700);
},
{
name = topright;
pos = (707,700);
}
);
background = {
shapes = (
{
pos = (83,0);
ref = H;
}
);
};
layerId = m009;
shapes = (
{
closed = 1;
nodes = (
(536,-10,o),
(643,126,o),
(643,347,cs),
(643,577,o),
(528,710,o),
(355,710,cs),
(182,710,o),
(60,577,o),
(60,348,cs),
(60,129,o),
(171,-10,o),
(354,-10,cs)
);
},
{
closed = 1;
nodes = (
(195,16,o),
(90,137,o),
(90,347,cs),
(90,554,o),
(193,684,o),
(355,684,cs),
(521,684,o),
(612,548,o),
(612,347,cs),
(612,149,o),
(524,16,o),
(356,16,cs)
);
}
);
width = 703;
},
{
anchors = (
{
name = bottom;
pos = (376,0);
},
{
name = center;
pos = (376,350);
},
{
name = ogonek;
pos = (429,0);
},
{
name = top;
pos = (376,700);
},
{
name = topleft;
pos = (20,700);
},
{
name = topright;
pos = (732,700);
}
);
background = {
shapes = (
{
pos = (47,0);
ref = H;
}
);
};
layerId = m002;
shapes = (
{
closed = 1;
nodes = (
(563,-10,o),
(702,116,o),
(702,350,cs),
(702,582,o),
(567,710,o),
(380,710,cs),
(189,710,o),
(50,575,o),
(50,350,cs),
(50,126,o),
(185,-10,o),
(378,-10,cs)
);
},
{
closed = 1;
nodes = (
(248,68,o),
(139,161,o),
(139,353,cs),
(139,542,o),
(243,632,o),
(378,632,cs),
(511,632,o),
(612,546,o),
(612,350,cs),
(612,151,o),
(510,68,o),
(383,68,cs)
);
}
);
width = 752;
},
{
anchors = (
{
name = bottom;
pos = (370,0);
},
{
name = center;
pos = (370,360);
},
{
name = ogonek;
pos = (423,0);
},
{
name = top;
pos = (370,700);
},
{
name = topleft;
pos = (14,700);
},
{
name = topright;
pos = (726,700);
}
);
background = {
shapes = (
{
pos = (9,0);
ref = H;
}
);
};
layerId = m003;
shapes = (
{
closed = 1;
nodes = (
(571,-10,o),
(718,125,o),
(718,353,cs),
(718,575,o),
(579,710,o),
(376,710,cs),
(169,710,o),
(25,570,o),
(25,351,cs),
(25,134,o),
(166,-10,o),
(372,-10,cs)
);
},
{
closed = 1;
nodes = (
(260,128,o),
(176,211,o),
(176,352,cs),
(176,492,o),
(260,572,o),
(372,572,cs),
(482,572,o),
(562,496,o),
(562,351,cs),
(562,202,o),
(478,128,o),
(372,128,cs)
);
}
);
width = 743;
},
{
anchors = (
{
name = bottom;
pos = (271,0);
},
{
name = center;
pos = (271,350);
},
{
name = ogonek;
pos = (324,0);
},
{
name = tail_Q;
pos = (294,41);
},
{
name = top;
pos = (271,700);
},
{
name = topleft;
pos = (-85,700);
},
{
name = topright;
pos = (627,700);
}
);
associatedMasterId = m009;
background = {
shapes = (
{
pos = (3,0);
ref = H;
}
);
};
layerId = "416BE372-913C-4F8E-A08A-382D2ACD99AB";
name = "27 Jun 23 10.55";
shapes = (
{
closed = 1;
nodes = (
(406,-10,o),
(502,115,o),
(502,341,cs),
(502,568,o),
(407,690,o),
(275,690,cs),
(140,690,o),
(41,562,o),
(41,341,cs),
(41,135,o),
(128,-10,o),
(272,-10,cs)
);
},
{
closed = 1;
nodes = (
(153,16,o),
(70,131,o),
(70,344,cs),
(70,533,o),
(144,664,o),
(274,664,cs),
(402,664,o),
(472,537,o),
(472,341,cs),
(472,133,o),
(393,16,o),
(274,16,cs)
);
}
);
width = 543;
}
);
metricRight = "=|";
unicode = 79;
},
{
color = 4;
glyphname = P;
layers = (
{
anchors = (
{
name = bottom;
pos = (264,0);
},
{
name = top;
pos = (264,700);
}
);
background = {
shapes = (
{
pos = (3,0);
ref = R;
}
);
};
layerId = m009;
shapes = (
{
closed = 1;
nodes = (
(131,0,l),
(131,326,l),
(122,316,l),
(297,316,ls),
(437,316,o),
(495,403,o),
(495,508,cs),
(495,630,o),
(424,700,o),
(304,700,cs),
(102,700,l),
(102,0,l)
);
},
{
closed = 1;
nodes = (
(131,682,l),
(122,674,l),
(308,674,ls),
(402,674,o),
(465,621,o),
(465,507,cs),
(465,387,o),
(391,342,o),
(289,342,cs),
(123,342,l),
(131,326,l)
);
}
);
width = 521;
},
{
anchors = (
{
name = bottom;
pos = (278,0);
},
{
name = top;
pos = (278,700);
}
);
background = {
shapes = (
{
pos = (17,0);
ref = R;
}
);
};
layerId = m002;
shapes = (
{
closed = 1;
nodes = (
(179,0,l),
(179,307,l),
(164,290,l),
(330,290,ls),
(469,290,o),
(540,385,o),
(540,494,cs),
(540,637,o),
(450,700,o),
(329,700,cs),
(92,700,l),
(92,0,l)
);
},
{
closed = 1;
nodes = (
(179,640,l),
(160,622,l),
(327,622,ls),
(421,622,o),
(454,571,o),
(454,503,cs),
(454,409,o),
(406,368,o),
(308,368,cs),
(162,368,l),
(179,340,l)
);
}
);
width = 575;
},
{
anchors = (
{
name = bottom;
pos = (266,0);
},
{
name = top;
pos = (266,700);
}
);
background = {
shapes = (
{
pos = (-16,0);
ref = R;
}
);
};
layerId = m003;
shapes = (
{
closed = 1;
nodes = (
(197,0,l),
(197,284,l),
(182,267,l),
(318,267,ls),
(458,267,o),
(546,359,o),
(546,485,cs),
(546,605,o),
(464,700,o),
(313,700,cs),
(49,700,l),
(49,0,l)
);
},
{
closed = 1;
nodes = (
(197,593,l),
(178,575,l),
(303,575,ls),
(358,575,o),
(397,546,o),
(397,485,cs),
(397,428,o),
(364,392,o),
(300,392,cs),
(180,392,l),
(197,364,l)
);
}
);
width = 542;
}
);
metricLeft = H;
unicode = 80;
},
{
color = 4;
glyphname = Thorn;
layers = (
{
layerId = m009;
shapes = (
{
closed = 1;
nodes = (
(131,0,l),
(131,157,l),
(122,147,l),
(297,147,ls),
(437,147,o),
(495,234,o),
(495,339,cs),
(495,461,o),
(424,531,o),
(304,531,cs),
(118,531,l),
(131,518,l),
(131,700,l),
(102,700,l),
(102,0,l)
);
},
{
closed = 1;
nodes = (
(131,513,l),
(122,505,l),
(308,505,ls),
(402,505,o),
(465,452,o),
(465,338,cs),
(465,218,o),
(391,173,o),
(289,173,cs),
(123,173,l),
(131,157,l)
);
}
);
width = 558;
},
{
layerId = m002;
shapes = (
{
closed = 1;
nodes = (
(179,0,l),
(179,152,l),
(164,135,l),
(330,135,ls),
(469,135,o),
(540,230,o),
(540,339,cs),
(540,482,o),
(450,545,o),
(329,545,cs),
(157,545,l),
(179,523,l),
(179,700,l),
(92,700,l),
(92,0,l)
);
},
{
closed = 1;
nodes = (
(179,485,l),
(160,467,l),
(327,467,ls),
(421,467,o),
(454,416,o),
(454,348,cs),
(454,254,o),
(406,213,o),
(308,213,cs),
(162,213,l),
(179,185,l)
);
}
);
width = 575;
},
{
layerId = m003;
shapes = (
{
closed = 1;
nodes = (
(197,0,l),
(197,143,l),
(182,126,l),
(318,126,ls),
(458,126,o),
(546,218,o),
(546,344,cs),
(546,464,o),
(464,559,o),
(313,559,cs),
(174,559,l),
(197,536,l),
(197,700,l),
(49,700,l),
(49,0,l)
);
},
{
closed = 1;
nodes = (
(197,452,l),
(178,434,l),
(303,434,ls),
(358,434,o),
(397,405,o),
(397,344,cs),
(397,287,o),
(364,251,o),
(300,251,cs),
(180,251,l),
(197,223,l)
);
}
);
width = 540;
}
);
metricLeft = H;
unicode = 222;
},
{
color = 4;
glyphname = Q;
layers = (
{
background = {
shapes = (
{
pos = (-17,0);
ref = R;
}
);
};
layerId = m009;
shapes = (
{
closed = 1;
nodes = (
(536,-10,o),
(643,126,o),
(643,347,cs),
(643,577,o),
(528,710,o),
(355,710,cs),
(182,710,o),
(60,577,o),
(60,348,cs),
(60,129,o),
(171,-10,o),
(354,-10,cs)
);
},
{
closed = 1;
nodes = (
(566,-77,l),
(605,-41,l),
(599,-59,l),
(512,45,l),
(505,55,l),
(442,130,l),
(453,135,l),
(416,103,l),
(421,117,l),
(484,41,l),
(490,32,l),
(581,-77,l)
);
},
{
closed = 1;
nodes = (
(195,15,o),
(90,137,o),
(90,347,cs),
(90,554,o),
(193,684,o),
(355,684,cs),
(521,684,o),
(612,548,o),
(612,347,cs),
(612,147,o),
(524,15,o),
(356,15,cs)
);
}
);
width = 703;
},
{
.lastUpdate = 710240647.417;
associatedMasterId = m009;
background = {
shapes = (
{
ref = R;
}
);
};
layerId = "229C0EB5-1FD5-41FB-8082-67BB23A0F5E7";
name = "27 Apr 23 09.18";
shapes = (
{
alignment = -1;
ref = O;
}
);
width = 703;
},
{
anchors = (
{
name = tail_Q;
pos = (389,41);
}
);
associatedMasterId = m009;
background = {
shapes = (
{
ref = R;
}
);
};
layerId = "5E2298A2-51E6-4827-997F-3BAB3E54B2E3";
name = "27 Apr 23 15.45";
shapes = (
{
closed = 1;
nodes = (
(553,-10,o),
(692,116,o),
(692,350,cs),
(692,582,o),
(557,710,o),
(370,710,cs),
(179,710,o),
(40,575,o),
(40,350,cs),
(40,126,o),
(175,-10,o),
(368,-10,cs)
);
},
{
closed = 1;
nodes = (
(238,66,o),
(128,161,o),
(128,353,cs),
(128,542,o),
(233,632,o),
(368,632,cs),
(501,632,o),
(604,546,o),
(604,350,cs),
(604,151,o),
(500,66,o),
(373,66,cs)
);
},
{
closed = 1;
nodes = (
(614,7,l),
(619,-26,l),
(562,49,l),
(545,68,l),
(423,226,l),
(447,227,l),
(370,102,l),
(381,157,l),
(461,57,l),
(474,40,l),
(578,-97,l),
(551,-94,l)
);
}
);
width = 732;
},
{
background = {
shapes = (
{
pos = (10,0);
ref = R;
}
);
};
layerId = m002;
shapes = (
{
closed = 1;
nodes = (
(563,-10,o),
(702,116,o),
(702,350,cs),
(702,582,o),
(567,710,o),
(380,710,cs),
(189,710,o),
(50,575,o),
(50,350,cs),
(50,126,o),
(185,-10,o),
(378,-10,cs)
);
},
{
closed = 1;
nodes = (
(584,-96,l),
(647,-35,l),
(647,-43,l),
(544,77,l),
(536,89,l),
(441,204,l),
(458,206,l),
(384,142,l),
(384,154,l),
(465,57,l),
(479,40,l),
(595,-98,l)
);
},
{
closed = 1;
nodes = (
(248,66,o),
(138,161,o),
(138,353,cs),
(138,542,o),
(243,632,o),
(378,632,cs),
(511,632,o),
(614,546,o),
(614,350,cs),
(614,151,o),
(510,66,o),
(383,66,cs)
);
}
);
width = 752;
},
{
.lastUpdate = 710240647.417;
associatedMasterId = m002;
background = {
shapes = (
{
ref = R;
}
);
};
layerId = "D87E79E7-6120-492B-B958-B88B5EF4B68D";
name = "27 Apr 23 09.18";
shapes = (
{
alignment = -1;
ref = O;
}
);
width = 752;
},
{
anchors = (
{
name = tail_Q;
pos = (389,41);
}
);
associatedMasterId = m002;
background = {
shapes = (
{
ref = R;
}
);
};
layerId = "AE313E44-826E-42AC-9819-C65442FB34B9";
name = "27 Apr 23 15.45";
shapes = (
{
closed = 1;
nodes = (
(553,-10,o),
(692,116,o),
(692,350,cs),
(692,582,o),
(557,710,o),
(370,710,cs),
(179,710,o),
(40,575,o),
(40,350,cs),
(40,126,o),
(175,-10,o),
(368,-10,cs)
);
},
{
closed = 1;
nodes = (
(238,66,o),
(128,161,o),
(128,353,cs),
(128,542,o),
(233,632,o),
(368,632,cs),
(501,632,o),
(604,546,o),
(604,350,cs),
(604,151,o),
(500,66,o),
(373,66,cs)
);
},
{
closed = 1;
nodes = (
(614,7,l),
(619,-26,l),
(562,49,l),
(545,68,l),
(423,226,l),
(447,227,l),
(370,102,l),
(381,157,l),
(461,57,l),
(474,40,l),
(578,-97,l),
(551,-94,l)
);
}
);
width = 732;
},
{
background = {
shapes = (
{
pos = (5,0);
ref = R;
}
);
};
layerId = m003;
shapes = (
{
closed = 1;
nodes = (
(571,-10,o),
(718,130,o),
(718,353,cs),
(718,575,o),
(579,710,o),
(376,710,cs),
(169,710,o),
(25,570,o),
(25,351,cs),
(25,134,o),
(166,-10,o),
(372,-10,cs)
);
},
{
closed = 1;
nodes = (
(572,-118,l),
(706,3,l),
(701,-34,l),
(587,101,l),
(530,164,l),
(417,304,l),
(450,302,l),
(316,185,l),
(323,208,l),
(420,97,l),
(474,28,l),
(598,-124,l)
);
},
{
closed = 1;
nodes = (
(259,118,o),
(176,212,o),
(176,352,cs),
(176,493,o),
(260,572,o),
(372,572,cs),
(482,572,o),
(562,497,o),
(562,347,cs),
(562,185,o),
(477,118,o),
(374,118,cs)
);
}
);
width = 743;
},
{
.lastUpdate = 710240647.417;
associatedMasterId = m003;
background = {
shapes = (
{
ref = R;
}
);
};
layerId = "A4D68B99-2D41-4B99-A6FC-BB7F1EEF07A9";
name = "27 Apr 23 09.18";
shapes = (
{
alignment = -1;
ref = O;
}
);
width = 743;
},
{
anchors = (
{
name = tail_Q;
pos = (389,41);
}
);
associatedMasterId = m003;
background = {
shapes = (
{
ref = R;
}
);
};
layerId = "6648BAE1-19C9-4BB3-AB0F-1CC481395A81";
name = "27 Apr 23 15.45";
shapes = (
{
closed = 1;
nodes = (
(553,-10,o),
(692,116,o),
(692,350,cs),
(692,582,o),
(557,710,o),
(370,710,cs),
(179,710,o),
(40,575,o),
(40,350,cs),
(40,126,o),
(175,-10,o),
(368,-10,cs)
);
},
{
closed = 1;
nodes = (
(238,66,o),
(128,161,o),
(128,353,cs),
(128,542,o),
(233,632,o),
(368,632,cs),
(501,632,o),
(604,546,o),
(604,350,cs),
(604,151,o),
(500,66,o),
(373,66,cs)
);
},
{
closed = 1;
nodes = (
(614,7,l),
(619,-26,l),
(562,49,l),
(545,68,l),
(423,226,l),
(447,227,l),
(370,102,l),
(381,157,l),
(461,57,l),
(474,40,l),
(578,-97,l),
(551,-94,l)
);
}
);
width = 732;
}
);
metricLeft = O;
metricRight = O;
unicode = 81;
},
{
color = 4;
glyphname = R;
layers = (
{
anchors = (
{
name = bottom;
pos = (280,0);
},
{
name = top;
pos = (271,700);
}
);
background = {
shapes = (
{
pos = (-4,0);
ref = P;
}
);
};
layerId = m009;
shapes = (
{
closed = 1;
nodes = (
(339,327,l),
(333,314,l),
(449,330,o),
(504,403,o),
(504,508,cs),
(504,637,o),
(423,700,o),
(310,700,cs),
(102,700,l),
(102,0,l),
(131,0,l),
(131,322,l),
(116,314,l),
(299,314,ls),
(310,314,o),
(316,311,o),
(321,301,cs),
(488,-20,l),
(460,0,l),
(526,0,l),
(522,-21,l)
);
},
{
closed = 1;
nodes = (
(131,692,l),
(112,674,l),
(308,674,ls),
(402,674,o),
(474,625,o),
(474,509,cs),
(474,385,o),
(392,340,o),
(302,340,cs),
(114,340,l),
(131,330,l)
);
}
);
width = 554;
},
{
associatedMasterId = m009;
background = {
shapes = (
{
ref = P;
}
);
};
layerId = "9F941856-7ED4-45FF-846C-85AB398DD0B2";
name = "26 Apr 23 14.01";
shapes = (
{
closed = 1;
nodes = (
(169,0,l),
(169,317,l),
(154,294,l),
(331,294,ls),
(461,294,o),
(530,387,o),
(530,503,cs),
(530,634,o),
(440,700,o),
(319,700,cs),
(82,700,l),
(82,0,l)
);
},
{
closed = 1;
nodes = (
(169,640,l),
(150,622,l),
(317,622,ls),
(411,622,o),
(444,571,o),
(444,500,cs),
(444,414,o),
(401,372,o),
(311,372,cs),
(152,372,l),
(169,360,l)
);
},
{
closed = 1;
nodes = (
(551,0,l),
(370,336,l),
(284,330,l),
(455,0,l)
);
}
);
width = 568;
},
{
anchors = (
{
name = bottom;
pos = (294,0);
},
{
name = top;
pos = (285,700);
}
);
background = {
shapes = (
{
pos = (10,0);
ref = P;
}
);
};
layerId = m002;
shapes = (
{
closed = 1;
nodes = (
(395,308,l),
(391,299,l),
(489,320,o),
(540,403,o),
(540,503,cs),
(540,634,o),
(450,700,o),
(329,700,cs),
(92,700,l),
(92,0,l),
(179,0,l),
(179,317,l),
(164,294,l),
(298,294,ls),
(307,294,o),
(315,291,o),
(320,281,cs),
(474,-17,l),
(441,0,l),
(606,0,l),
(582,-40,l)
);
},
{
closed = 1;
nodes = (
(179,640,l),
(160,622,l),
(327,622,ls),
(421,622,o),
(454,571,o),
(454,498,cs),
(454,414,o),
(410,370,o),
(321,370,cs),
(162,370,l),
(179,360,l)
);
}
);
width = 588;
},
{
associatedMasterId = m002;
background = {
shapes = (
{
ref = P;
}
);
};
layerId = "EB91F34D-98DC-4E5E-BBE4-0C65C092C386";
name = "26 Apr 23 14.01";
shapes = (
{
closed = 1;
nodes = (
(169,0,l),
(169,317,l),
(154,294,l),
(331,294,ls),
(461,294,o),
(530,387,o),
(530,503,cs),
(530,634,o),
(440,700,o),
(319,700,cs),
(82,700,l),
(82,0,l)
);
},
{
closed = 1;
nodes = (
(169,640,l),
(150,622,l),
(317,622,ls),
(411,622,o),
(444,571,o),
(444,500,cs),
(444,414,o),
(401,372,o),
(311,372,cs),
(152,372,l),
(169,360,l)
);
},
{
closed = 1;
nodes = (
(551,0,l),
(370,336,l),
(284,330,l),
(455,0,l)
);
}
);
width = 568;
},
{
anchors = (
{
name = bottom;
pos = (260,0);
},
{
name = top;
pos = (251,700);
}
);
background = {
shapes = (
{
pos = (-23,0);
ref = P;
}
);
};
layerId = m003;
shapes = (
{
closed = 1;
nodes = (
(421,308,l),
(406,277,l),
(497,298,o),
(555,382,o),
(555,485,cs),
(555,613,o),
(466,700,o),
(335,700,cs),
(49,700,l),
(49,0,l),
(197,0,l),
(197,286,l),
(182,263,l),
(267,263,ls),
(279,263,o),
(289,259,o),
(296,245,cs),
(433,-20,l),
(405,0,l),
(633,0,l),
(610,-40,l)
);
},
{
closed = 1;
nodes = (
(197,598,l),
(178,573,l),
(299,573,ls),
(366,573,o),
(402,539,o),
(402,483,cs),
(402,425,o),
(362,390,o),
(306,390,cs),
(180,390,l),
(197,378,l)
);
}
);
width = 615;
},
{
associatedMasterId = m003;
background = {
shapes = (
{
ref = P;
}
);
};
layerId = "BD6C6B4C-5175-4863-A1CB-547940D51306";
name = "26 Apr 23 14.01";
shapes = (
{
closed = 1;
nodes = (
(169,0,l),
(169,317,l),
(154,294,l),
(331,294,ls),
(461,294,o),
(530,387,o),
(530,503,cs),
(530,634,o),
(440,700,o),
(319,700,cs),
(82,700,l),
(82,0,l)
);
},
{
closed = 1;
nodes = (
(169,640,l),
(150,622,l),
(317,622,ls),
(411,622,o),
(444,571,o),
(444,500,cs),
(444,414,o),
(401,372,o),
(311,372,cs),
(152,372,l),
(169,360,l)
);
},
{
closed = 1;
nodes = (
(551,0,l),
(370,336,l),
(284,330,l),
(455,0,l)
);
}
);
width = 568;
}
);
metricLeft = H;
unicode = 82;
},
{
color = 4;
glyphname = S;
lastChange = "2023-07-06 09:58:50 +0000";
layers = (
{
.lastUpdate = 710330330.327;
anchors = (
{
name = bar_ver;
pos = (258,359);
},
{
name = bottom;
pos = (264,0);
},
{
name = top;
pos = (253,700);
}
);
background = {
shapes = (
{
pos = (-28,0);
ref = E;
},
{
closed = 0;
nodes = (
(366,379,ls),
(309,400,o),
(227,407,o),
(187,430,cs)
);
},
{
closed = 0;
nodes = (
(115,373,ls),
(163,339,o),
(254,329,o),
(307,316,cs)
);
}
);
};
layerId = m009;
shapes = (
{
closed = 1;
nodes = (
(362,-10,o),
(445,64,o),
(445,184,cs),
(445,427,o),
(98,335,o),
(98,533,cs),
(98,604,o),
(143,684,o),
(262,684,cs),
(319,684,o),
(371,668,o),
(428,621,c),
(416,619,l),
(439,655,l),
(440,645,l),
(383,693,o),
(319,710,o),
(264,710,cs),
(151,710,o),
(68,642,o),
(68,532,cs),
(68,307,o),
(415,406,o),
(415,181,cs),
(415,84,o),
(351,16,o),
(238,16,cs),
(170,16,o),
(102,45,o),
(36,97,c),
(56,105,l),
(26,55,l),
(22,74,l),
(98,11,o),
(173,-10,o),
(238,-10,cs)
);
}
);
width = 491;
},
{
anchors = (
{
name = bar_ver;
pos = (262,359);
}
);
associatedMasterId = m009;
layerId = "56A61E6C-94BD-4A99-B8F4-5D9E8894A4A8";
name = "26 Apr 23 10.12";
shapes = (
{
closed = 1;
nodes = (
(390,-10,o),
(474,63,o),
(474,181,cs),
(474,418,o),
(130,382,o),
(130,536,cs),
(130,597,o),
(183,632,o),
(257,632,cs),
(331,632,o),
(389,598,o),
(447,540,c),
(389,539,l),
(463,674,l),
(476,612,l),
(412,684,o),
(333,710,o),
(258,710,cs),
(131,710,o),
(44,634,o),
(44,525,cs),
(44,311,o),
(386,356,o),
(385,178,cs),
(385,115,o),
(344,69,o),
(258,69,cs),
(184,69,o),
(107,101,o),
(28,163,c),
(75,185,l),
(-2,50,l),
(-4,87,l),
(71,25,o),
(164,-10,o),
(260,-10,cs)
);
}
);
width = 503;
},
{
anchors = (
{
name = bar_ver;
pos = (262,359);
}
);
associatedMasterId = m009;
background = {
shapes = (
{
pos = (-38,0);
ref = E;
},
{
closed = 0;
nodes = (
(356,379,ls),
(299,400,o),
(217,407,o),
(177,430,cs)
);
},
{
closed = 0;
nodes = (
(105,373,ls),
(153,339,o),
(244,329,o),
(297,316,cs)
);
}
);
};
layerId = "30F418DD-79CD-4328-B78A-206FEA2619E3";
name = "27 Apr 23 09.03";
shapes = (
{
closed = 1;
nodes = (
(75,16,o),
(159,-10,o),
(240,-10,cs),
(370,-10,o),
(469,54,o),
(469,194,cs),
(469,456,o),
(134,358,o),
(134,521,cs),
(134,590,o),
(187,632,o),
(265,632,cs),
(334,632,o),
(393,599,o),
(449,540,c),
(389,539,l),
(463,674,l),
(477,619,l),
(418,680,o),
(339,710,o),
(262,710,cs),
(147,710,o),
(46,644,o),
(46,521,cs),
(46,267,o),
(380,389,o),
(380,194,cs),
(380,114,o),
(324,76,o),
(243,76,cs),
(178,76,o),
(107,99,o),
(30,156,c),
(74,152,l),
(5,33,l),
(-2,72,l)
);
}
);
width = 503;
},
{
anchors = (
{
name = bar_ver;
pos = (262,359);
}
);
associatedMasterId = m009;
background = {
shapes = (
{
pos = (-38,0);
ref = E;
},
{
closed = 0;
nodes = (
(356,379,ls),
(299,400,o),
(217,407,o),
(177,430,cs)
);
},
{
closed = 0;
nodes = (
(105,373,ls),
(153,339,o),
(244,329,o),
(297,316,cs)
);
}
);
};
layerId = "D1565F51-7F5E-4F7E-9223-5B93C6FB93C3";
name = "28 Apr 23 10.49";
shapes = (
{
closed = 1;
nodes = (
(75,16,o),
(159,-10,o),
(240,-10,cs),
(365,-10,o),
(466,54,o),
(466,194,cs),
(466,453,o),
(133,356,o),
(133,521,cs),
(133,590,o),
(186,632,o),
(265,632,cs),
(334,632,o),
(393,599,o),
(449,540,c),
(389,539,l),
(463,674,l),
(477,619,l),
(418,680,o),
(339,710,o),
(262,710,cs),
(156,710,o),
(48,644,o),
(48,521,cs),
(48,272,o),
(381,391,o),
(381,194,cs),
(381,112,o),
(324,69,o),
(244,69,cs),
(177,69,o),
(107,93,o),
(30,150,c),
(74,152,l),
(5,33,l),
(-2,72,l)
);
}
);
width = 503;
},
{
anchors = (
{
name = bar_ver;
pos = (272,359);
},
{
name = bottom;
pos = (278,0);
},
{
name = top;
pos = (267,700);
}
);
layerId = m002;
shapes = (
{
closed = 1;
nodes = (
(374,-10,o),
(476,53,o),
(476,195,cs),
(476,452,o),
(143,360,o),
(143,524,cs),
(143,590,o),
(196,632,o),
(277,632,cs),
(332,632,o),
(382,613,o),
(430,569,c),
(413,565,l),
(463,656,l),
(468,638,l),
(409,691,o),
(339,710,o),
(277,710,cs),
(164,710,o),
(58,648,o),
(58,516,cs),
(58,281,o),
(391,383,o),
(391,191,cs),
(391,112,o),
(334,69,o),
(251,69,cs),
(195,69,o),
(131,88,o),
(63,134,c),
(76,138,l),
(22,45,l),
(19,64,l),
(93,14,o),
(173,-10,o),
(250,-10,cs)
);
}
);
width = 516;
},
{
anchors = (
{
name = bar_ver;
pos = (262,359);
}
);
associatedMasterId = m002;
layerId = "BAC19501-65AB-4970-88ED-B6B9DAA264B1";
name = "26 Apr 23 10.12";
shapes = (
{
closed = 1;
nodes = (
(390,-10,o),
(474,63,o),
(474,181,cs),
(474,418,o),
(130,382,o),
(130,536,cs),
(130,597,o),
(183,632,o),
(257,632,cs),
(331,632,o),
(389,598,o),
(447,540,c),
(389,539,l),
(463,674,l),
(476,612,l),
(412,684,o),
(333,710,o),
(258,710,cs),
(131,710,o),
(44,634,o),
(44,525,cs),
(44,311,o),
(386,356,o),
(385,178,cs),
(385,115,o),
(344,69,o),
(258,69,cs),
(184,69,o),
(107,101,o),
(28,163,c),
(75,185,l),
(-2,50,l),
(-4,87,l),
(71,25,o),
(164,-10,o),
(260,-10,cs)
);
}
);
width = 503;
},
{
anchors = (
{
name = bar_ver;
pos = (262,359);
}
);
associatedMasterId = m002;
background = {
shapes = (
{
pos = (-38,0);
ref = E;
},
{
closed = 0;
nodes = (
(356,379,ls),
(299,400,o),
(217,407,o),
(177,430,cs)
);
},
{
closed = 0;
nodes = (
(105,373,ls),
(153,339,o),
(244,329,o),
(297,316,cs)
);
}
);
};
layerId = "1F6F519B-08AE-4C4B-9520-A8EA2A250F71";
name = "27 Apr 23 09.03";
shapes = (
{
closed = 1;
nodes = (
(75,16,o),
(159,-10,o),
(240,-10,cs),
(370,-10,o),
(469,54,o),
(469,194,cs),
(469,456,o),
(134,358,o),
(134,521,cs),
(134,590,o),
(187,632,o),
(265,632,cs),
(334,632,o),
(393,599,o),
(449,540,c),
(389,539,l),
(463,674,l),
(477,619,l),
(418,680,o),
(339,710,o),
(262,710,cs),
(147,710,o),
(46,644,o),
(46,521,cs),
(46,267,o),
(380,389,o),
(380,194,cs),
(380,114,o),
(324,76,o),
(243,76,cs),
(178,76,o),
(107,99,o),
(30,156,c),
(74,152,l),
(5,33,l),
(-2,72,l)
);
}
);
width = 503;
},
{
anchors = (
{
name = bar_ver;
pos = (262,359);
}
);
associatedMasterId = m002;
background = {
shapes = (
{
pos = (-38,0);
ref = E;
},
{
closed = 0;
nodes = (
(356,379,ls),
(299,400,o),
(217,407,o),
(177,430,cs)
);
},
{
closed = 0;
nodes = (
(105,373,ls),
(153,339,o),
(244,329,o),
(297,316,cs)
);
}
);
};
layerId = "DF1AFBAF-8635-4DC5-BF78-47C628920AAF";
name = "28 Apr 23 10.49";
shapes = (
{
closed = 1;
nodes = (
(75,16,o),
(159,-10,o),
(240,-10,cs),
(365,-10,o),
(466,54,o),
(466,194,cs),
(466,453,o),
(133,356,o),
(133,521,cs),
(133,590,o),
(186,632,o),
(265,632,cs),
(334,632,o),
(393,599,o),
(449,540,c),
(389,539,l),
(463,674,l),
(477,619,l),
(418,680,o),
(339,710,o),
(262,710,cs),
(156,710,o),
(48,644,o),
(48,521,cs),
(48,272,o),
(381,391,o),
(381,194,cs),
(381,112,o),
(324,69,o),
(244,69,cs),
(177,69,o),
(107,93,o),
(30,150,c),
(74,152,l),
(5,33,l),
(-2,72,l)
);
}
);
width = 503;
},
{
anchors = (
{
name = bar_ver;
pos = (300,359);
},
{
name = bottom;
pos = (307,0);
},
{
name = top;
pos = (295,700);
}
);
background = {
shapes = (
{
pos = (-28,0);
ref = E;
},
{
closed = 0;
nodes = (
(366,379,ls),
(309,400,o),
(227,407,o),
(187,430,cs)
);
},
{
closed = 0;
nodes = (
(115,373,ls),
(163,339,o),
(254,329,o),
(307,316,cs)
);
}
);
};
layerId = m003;
shapes = (
{
closed = 1;
nodes = (
(418,-10,o),
(534,53,o),
(534,205,cs),
(534,453,o),
(219,407,o),
(219,510,cs),
(219,554,o),
(263,575,o),
(318,575,cs),
(372,575,o),
(425,555,o),
(480,510,c),
(441,517,l),
(516,656,l),
(522,638,l),
(459,689,o),
(384,710,o),
(312,710,cs),
(175,710,o),
(63,632,o),
(63,495,cs),
(63,257,o),
(370,325,o),
(370,194,cs),
(370,158,o),
(346,127,o),
(275,127,cs),
(223,127,o),
(152,144,o),
(71,193,c),
(102,193,l),
(25,45,l),
(22,64,l),
(106,13,o),
(196,-10,o),
(280,-10,cs)
);
}
);
width = 568;
},
{
anchors = (
{
name = bar_ver;
pos = (262,359);
}
);
associatedMasterId = m003;
layerId = "54D1B4E3-E8EC-42FD-9DF5-7940D9036442";
name = "26 Apr 23 10.12";
shapes = (
{
closed = 1;
nodes = (
(390,-10,o),
(474,63,o),
(474,181,cs),
(474,418,o),
(130,382,o),
(130,536,cs),
(130,597,o),
(183,632,o),
(257,632,cs),
(331,632,o),
(389,598,o),
(447,540,c),
(389,539,l),
(463,674,l),
(476,612,l),
(412,684,o),
(333,710,o),
(258,710,cs),
(131,710,o),
(44,634,o),
(44,525,cs),
(44,311,o),
(386,356,o),
(385,178,cs),
(385,115,o),
(344,69,o),
(258,69,cs),
(184,69,o),
(107,101,o),
(28,163,c),
(75,185,l),
(-2,50,l),
(-4,87,l),
(71,25,o),
(164,-10,o),
(260,-10,cs)
);
}
);
width = 503;
},
{
anchors = (
{
name = bar_ver;
pos = (262,359);
}
);
associatedMasterId = m003;
background = {
shapes = (
{
pos = (-38,0);
ref = E;
},
{
closed = 0;
nodes = (
(356,379,ls),
(299,400,o),
(217,407,o),
(177,430,cs)
);
},
{
closed = 0;
nodes = (
(105,373,ls),
(153,339,o),
(244,329,o),
(297,316,cs)
);
}
);
};
layerId = "A7A93BEE-3AAD-4C13-ACAD-9BD4AC4CE8FA";
name = "27 Apr 23 09.03";
shapes = (
{
closed = 1;
nodes = (
(75,16,o),
(159,-10,o),
(240,-10,cs),
(370,-10,o),
(469,54,o),
(469,194,cs),
(469,456,o),
(134,358,o),
(134,521,cs),
(134,590,o),
(187,632,o),
(265,632,cs),
(334,632,o),
(393,599,o),
(449,540,c),
(389,539,l),
(463,674,l),
(477,619,l),
(418,680,o),
(339,710,o),
(262,710,cs),
(147,710,o),
(46,644,o),
(46,521,cs),
(46,267,o),
(380,389,o),
(380,194,cs),
(380,114,o),
(324,76,o),
(243,76,cs),
(178,76,o),
(107,99,o),
(30,156,c),
(74,152,l),
(5,33,l),
(-2,72,l)
);
}
);
width = 503;
},
{
anchors = (
{
name = bar_ver;
pos = (262,359);
}
);
associatedMasterId = m003;
background = {
shapes = (
{
pos = (-38,0);
ref = E;
},
{
closed = 0;
nodes = (
(356,379,ls),
(299,400,o),
(217,407,o),
(177,430,cs)
);
},
{
closed = 0;
nodes = (
(105,373,ls),
(153,339,o),
(244,329,o),
(297,316,cs)
);
}
);
};
layerId = "8BF7BBC2-B4F6-439E-9B5A-DC68E95D6496";
name = "28 Apr 23 10.49";
shapes = (
{
closed = 1;
nodes = (
(75,16,o),
(159,-10,o),
(240,-10,cs),
(365,-10,o),
(466,54,o),
(466,194,cs),
(466,453,o),
(133,356,o),
(133,521,cs),
(133,590,o),
(186,632,o),
(265,632,cs),
(334,632,o),
(393,599,o),
(449,540,c),
(389,539,l),
(463,674,l),
(477,619,l),
(418,680,o),
(339,710,o),
(262,710,cs),
(156,710,o),
(48,644,o),
(48,521,cs),
(48,272,o),
(381,391,o),
(381,194,cs),
(381,112,o),
(324,69,o),
(244,69,cs),
(177,69,o),
(107,93,o),
(30,150,c),
(74,152,l),
(5,33,l),
(-2,72,l)
);
}
);
width = 503;
}
);
unicode = 83;
},
{
color = 4;
glyphname = Germandbls;
layers = (
{
layerId = m009;
shapes = (
{
closed = 1;
nodes = (
(475,-10,o),
(542,61,o),
(542,166,cs),
(542,367,o),
(295,341,o),
(295,467,cs),
(295,513,o),
(327,555,o),
(417,555,cs),
(429,555,o),
(433,557,o),
(433,573,cs),
(433,645,o),
(374,700,o),
(287,700,cs),
(102,700,l),
(102,0,l),
(131,0,l),
(131,686,l),
(123,674,l),
(281,674,ls),
(340,674,o),
(399,651,o),
(406,576,c),
(418,579,l),
(323,583,o),
(268,534,o),
(268,465,cs),
(268,318,o),
(513,353,o),
(513,164,cs),
(513,85,o),
(470,16,o),
(351,16,cs),
(306,16,o),
(263,26,o),
(215,56,c),
(227,60,l),
(206,22,l),
(202,32,l),
(255,1,o),
(300,-10,o),
(349,-10,cs)
);
}
);
width = 591;
},
{
associatedMasterId = m009;
layerId = "624B6A84-E9D9-49DA-B171-745E7CFBA411";
name = "20 Jun 23 16.38";
shapes = (
{
closed = 1;
nodes = (
(522,-10,o),
(591,68,o),
(591,170,cs),
(591,376,o),
(344,363,o),
(344,471,cs),
(344,526,o),
(392,554,o),
(495,544,c),
(487,528,l),
(483,640,o),
(421,710,o),
(324,710,cs),
(92,710,l),
(92,0,l),
(179,0,l),
(179,667,l),
(143,635,l),
(321,635,ls),
(368,635,o),
(394,613,o),
(401,575,c),
(420,601,l),
(329,601,o),
(265,544,o),
(265,469,cs),
(265,295,o),
(504,328,o),
(504,171,cs),
(504,105,o),
(463,66,o),
(396,66,cs),
(357,66,o),
(299,86,o),
(240,130,c),
(276,129,l),
(216,22,l),
(200,59,l),
(268,11,o),
(335,-10,o),
(396,-10,cs)
);
}
);
width = 606;
},
{
layerId = m002;
shapes = (
{
closed = 1;
nodes = (
(522,-10,o),
(591,68,o),
(591,174,cs),
(591,375,o),
(344,357,o),
(344,466,cs),
(344,511,o),
(387,535,o),
(469,535,cs),
(481,535,o),
(485,540,o),
(485,553,cs),
(485,594,o),
(446,700,o),
(324,700,cs),
(92,700,l),
(92,0,l),
(179,0,l),
(179,657,l),
(143,625,l),
(322,625,ls),
(369,625,o),
(393,603,o),
(402,565,c),
(420,588,l),
(323,588,o),
(266,532,o),
(266,455,cs),
(266,294,o),
(504,325,o),
(504,171,cs),
(504,105,o),
(461,66,o),
(399,66,cs),
(357,66,o),
(302,84,o),
(240,130,c),
(276,129,l),
(216,22,l),
(200,59,l),
(270,10,o),
(335,-10,o),
(398,-10,cs)
);
}
);
width = 606;
},
{
associatedMasterId = m002;
layerId = "80ABF3DE-7EF5-4CC7-94AF-910B2B9B4208";
name = "20 Jun 23 16.38";
shapes = (
{
closed = 1;
nodes = (
(522,-10,o),
(591,68,o),
(591,170,cs),
(591,376,o),
(344,363,o),
(344,471,cs),
(344,526,o),
(392,554,o),
(495,544,c),
(487,528,l),
(483,640,o),
(421,710,o),
(324,710,cs),
(92,710,l),
(92,0,l),
(179,0,l),
(179,667,l),
(143,635,l),
(321,635,ls),
(368,635,o),
(394,613,o),
(401,575,c),
(420,601,l),
(329,601,o),
(265,544,o),
(265,469,cs),
(265,295,o),
(504,328,o),
(504,171,cs),
(504,105,o),
(463,66,o),
(396,66,cs),
(357,66,o),
(299,86,o),
(240,130,c),
(276,129,l),
(216,22,l),
(200,59,l),
(268,11,o),
(335,-10,o),
(396,-10,cs)
);
}
);
width = 606;
},
{
layerId = m003;
shapes = (
{
closed = 1;
nodes = (
(521,-10,o),
(613,55,o),
(613,177,cs),
(613,367,o),
(392,368,o),
(392,447,cs),
(392,477,o),
(423,492,o),
(487,492,cs),
(507,492,o),
(514,500,o),
(514,529,cs),
(514,609,o),
(459,700,o),
(333,700,cs),
(49,700,l),
(49,0,l),
(197,0,l),
(197,593,l),
(183,576,l),
(325,576,ls),
(354,576,o),
(368,568,o),
(377,550,c),
(383,557,l),
(306,543,o),
(256,490,o),
(256,413,cs),
(256,257,o),
(460,264,o),
(460,168,cs),
(460,136,o),
(437,115,o),
(392,115,cs),
(357,115,o),
(319,128,o),
(277,155,c),
(291,158,l),
(221,27,l),
(216,42,l),
(275,8,o),
(330,-10,o),
(396,-10,cs)
);
}
);
width = 613;
},
{
associatedMasterId = m003;
layerId = "F951121F-1EA3-4E84-82B1-5854931C527B";
name = "20 Jun 23 16.38";
shapes = (
{
closed = 1;
nodes = (
(522,-10,o),
(591,68,o),
(591,170,cs),
(591,376,o),
(344,363,o),
(344,471,cs),
(344,526,o),
(392,554,o),
(495,544,c),
(487,528,l),
(483,640,o),
(421,710,o),
(324,710,cs),
(92,710,l),
(92,0,l),
(179,0,l),
(179,667,l),
(143,635,l),
(321,635,ls),
(368,635,o),
(394,613,o),
(401,575,c),
(420,601,l),
(329,601,o),
(265,544,o),
(265,469,cs),
(265,295,o),
(504,328,o),
(504,171,cs),
(504,105,o),
(463,66,o),
(396,66,cs),
(357,66,o),
(299,86,o),
(240,130,c),
(276,129,l),
(216,22,l),
(200,59,l),
(268,11,o),
(335,-10,o),
(396,-10,cs)
);
}
);
width = 606;
}
);
metricLeft = H;
unicode = 7838;
},
{
color = 4;
glyphname = T;
layers = (
{
anchors = (
{
name = bottom;
pos = (294,0);
},
{
name = center;
pos = (264,350);
},
{
name = top;
pos = (264,700);
}
);
background = {
shapes = (
{
pos = (-30,0);
ref = E;
}
);
};
layerId = m009;
shapes = (
{
closed = 1;
nodes = (
(283,0,l),
(283,690,l),
(271,674,l),
(519,674,l),
(519,700,l),
(8,700,l),
(8,674,l),
(265,674,l),
(254,687,l),
(254,0,l)
);
}
);
width = 527;
},
{
anchors = (
{
name = bottom;
pos = (304,0);
},
{
name = center;
pos = (274,350);
},
{
name = top;
pos = (274,700);
}
);
background = {
shapes = (
{
pos = (-20,0);
ref = E;
}
);
};
layerId = m002;
shapes = (
{
closed = 1;
nodes = (
(322,0,l),
(322,638,l),
(310,622,l),
(539,622,l),
(539,700,l),
(8,700,l),
(8,622,l),
(245,622,l),
(235,635,l),
(235,0,l)
);
}
);
width = 547;
},
{
anchors = (
{
name = bottom;
pos = (314,0);
},
{
name = center;
pos = (284,350);
},
{
name = top;
pos = (284,700);
}
);
background = {
shapes = (
{
pos = (-10,0);
ref = E;
}
);
};
layerId = m003;
shapes = (
{
closed = 1;
nodes = (
(363,0,l),
(363,586,l),
(351,570,l),
(559,570,l),
(559,700,l),
(8,700,l),
(8,570,l),
(225,570,l),
(215,583,l),
(215,0,l)
);
}
);
width = 567;
}
);
metricRight = "=|";
unicode = 84;
},
{
color = 4;
glyphname = U;
layers = (
{
anchors = (
{
name = bottom;
pos = (330,0);
},
{
name = ogonek;
pos = (373,0);
},
{
name = top;
pos = (330,700);
},
{
name = topright;
pos = (639,700);
}
);
background = {
shapes = (
{
pos = (-7,0);
ref = H;
}
);
};
layerId = m009;
shapes = (
{
closed = 1;
nodes = (
(476,-10,o),
(555,75,o),
(555,222,cs),
(555,700,l),
(526,700,l),
(526,222,ls),
(526,109,o),
(476,17,o),
(334,17,cs),
(190,17,o),
(134,112,o),
(134,221,cs),
(134,700,l),
(105,700,l),
(105,228,ls),
(105,66,o),
(197,-10,o),
(333,-10,cs)
);
}
);
width = 660;
},
{
anchors = (
{
name = bottom;
pos = (330,0);
},
{
name = ogonek;
pos = (373,0);
},
{
name = top;
pos = (330,700);
},
{
name = topright;
pos = (639,700);
}
);
background = {
shapes = (
{
pos = (-7,0);
ref = H;
}
);
};
layerId = m002;
shapes = (
{
closed = 1;
nodes = (
(487,-10,o),
(586,70,o),
(586,225,cs),
(586,700,l),
(499,700,l),
(499,222,ls),
(499,108,o),
(428,68,o),
(333,68,cs),
(222,68,o),
(162,123,o),
(162,220,cs),
(162,700,l),
(75,700,l),
(75,210,ls),
(75,77,o),
(171,-10,o),
(331,-10,cs)
);
}
);
width = 661;
},
{
anchors = (
{
name = bottom;
pos = (330,0);
},
{
name = ogonek;
pos = (373,0);
},
{
name = top;
pos = (330,700);
},
{
name = topright;
pos = (639,700);
}
);
background = {
shapes = (
{
pos = (-7,0);
ref = H;
}
);
};
layerId = m003;
shapes = (
{
closed = 1;
nodes = (
(516,-10,o),
(616,100,o),
(616,245,cs),
(616,700,l),
(469,700,l),
(469,262,ls),
(469,153,o),
(406,128,o),
(333,128,cs),
(244,128,o),
(192,166,o),
(192,260,cs),
(192,700,l),
(44,700,l),
(44,240,ls),
(44,109,o),
(132,-10,o),
(331,-10,cs)
);
}
);
width = 660;
}
);
metricRight = "=|";
unicode = 85;
},
{
color = 4;
glyphname = V;
layers = (
{
background = {
shapes = (
{
pos = (-135,0);
ref = O;
},
{
pos = (-83,0);
ref = H;
}
);
};
layerId = m009;
shapes = (
{
closed = 1;
nodes = (
(268,0,l),
(504,700,l),
(472,700,l),
(271,86,ls),
(264,65,o),
(257,44,o),
(253,18,c),
(255,18,l),
(250,53,o),
(245,63,o),
(237,86,cs),
(33,700,l),
(2,700,l),
(240,0,l)
);
}
);
width = 506;
},
{
associatedMasterId = m009;
background = {
shapes = (
{
pos = (-73,0);
ref = O;
}
);
};
layerId = "72139302-36F7-4333-A485-81431A7C09C5";
name = "18 Apr 23 15.57";
shapes = (
{
closed = 1;
nodes = (
(360,0,l),
(603,700,l),
(508,700,l),
(341,202,ls),
(323,147,o),
(315,112,o),
(311,86,c),
(304,86,l),
(303,104,o),
(294,148,o),
(279,194,cs),
(110,700,l),
(14,700,l),
(257,0,l)
);
}
);
width = 620;
},
{
background = {
shapes = (
{
pos = (-92,0);
ref = O;
},
{
pos = (-40,0);
ref = H;
}
);
};
layerId = m002;
shapes = (
{
closed = 1;
nodes = (
(353,0,l),
(577,700,l),
(482,700,l),
(310,122,ls),
(306,108,o),
(298,82,o),
(294,52,c),
(299,52,l),
(296,81,o),
(291,99,o),
(284,122,cs),
(109,700,l),
(15,700,l),
(239,0,l)
);
}
);
width = 592;
},
{
associatedMasterId = m002;
background = {
shapes = (
{
pos = (-73,0);
ref = O;
}
);
};
layerId = "371CB019-1D8D-45E6-B957-7DB7C732E968";
name = "18 Apr 23 15.57";
shapes = (
{
closed = 1;
nodes = (
(360,0,l),
(603,700,l),
(508,700,l),
(341,202,ls),
(323,147,o),
(315,112,o),
(311,86,c),
(304,86,l),
(303,104,o),
(294,148,o),
(279,194,cs),
(110,700,l),
(14,700,l),
(257,0,l)
);
}
);
width = 620;
},
{
background = {
shapes = (
{
pos = (-122,0);
ref = O;
},
{
pos = (-70,0);
ref = H;
}
);
};
layerId = m003;
shapes = (
{
closed = 1;
nodes = (
(404,0,l),
(633,700,l),
(479,700,l),
(333,209,ls),
(320,166,o),
(318,136,o),
(317,85,c),
(322,85,l),
(322,137,o),
(320,166,o),
(307,209,cs),
(160,700,l),
(5,700,l),
(238,0,l)
);
}
);
width = 638;
},
{
associatedMasterId = m003;
background = {
shapes = (
{
pos = (-73,0);
ref = O;
}
);
};
layerId = "FFDB88BF-0BF8-4013-9971-884F45D6E99B";
name = "18 Apr 23 15.57";
shapes = (
{
closed = 1;
nodes = (
(360,0,l),
(603,700,l),
(508,700,l),
(341,202,ls),
(323,147,o),
(315,112,o),
(311,86,c),
(304,86,l),
(303,104,o),
(294,148,o),
(279,194,cs),
(110,700,l),
(14,700,l),
(257,0,l)
);
}
);
width = 620;
},
{
associatedMasterId = m002;
background = {
shapes = (
{
pos = (-92,0);
ref = O;
},
{
pos = (-40,0);
ref = H;
}
);
};
layerId = "2E9B7FBA-F4B7-47B9-A1A3-401E0A445999";
name = "1 Jul 23 09.02";
shapes = (
{
closed = 1;
nodes = (
(353,0,l),
(577,700,l),
(482,700,l),
(294,69,l),
(300,69,l),
(109,700,l),
(15,700,l),
(239,0,l)
);
}
);
width = 592;
}
);
metricRight = "=|";
unicode = 86;
},
{
color = 4;
glyphname = W;
layers = (
{
anchors = (
{
name = bottom;
pos = (408,0);
},
{
name = top;
pos = (408,700);
}
);
layerId = m009;
shapes = (
{
closed = 1;
nodes = (
(222,0,l),
(390,606,ls),
(401,646,o),
(409,675,o),
(409,691,c),
(406,691,l),
(406,675,o),
(412,643,o),
(422,610,cs),
(598,0,l),
(626,0,l),
(802,700,l),
(771,700,l),
(625,97,ls),
(617,62,o),
(611,25,o),
(611,11,c),
(613,11,l),
(613,30,o),
(607,61,o),
(597,96,cs),
(422,700,l),
(391,700,l),
(228,112,ls),
(217,74,o),
(207,28,o),
(207,12,c),
(209,12,l),
(208,29,o),
(201,73,o),
(191,113,cs),
(44,700,l),
(14,700,l),
(194,0,l)
);
}
);
width = 816;
},
{
associatedMasterId = m009;
layerId = "4F30171D-32C1-4D64-A38C-9AB3E1C5D5AE";
name = "18 Apr 23 16.07";
shapes = (
{
closed = 1;
nodes = (
(327,0,l),
(436,493,ls),
(445,536,o),
(450,581,o),
(452,611,c),
(458,611,l),
(460,574,o),
(463,544,o),
(475,494,cs),
(598,0,l),
(721,0,l),
(886,700,l),
(796,700,l),
(678,184,ls),
(665,126,o),
(661,99,o),
(660,80,c),
(653,80,l),
(653,104,o),
(647,139,o),
(636,185,cs),
(510,700,l),
(398,700,l),
(284,184,ls),
(272,126,o),
(266,99,o),
(265,80,c),
(258,80,l),
(258,104,o),
(253,139,o),
(242,185,cs),
(121,700,l),
(30,700,l),
(201,0,l)
);
}
);
width = 917;
},
{
anchors = (
{
name = bottom;
pos = (448,0);
},
{
name = top;
pos = (448,700);
}
);
layerId = m002;
shapes = (
{
closed = 1;
nodes = (
(300,0,l),
(431,534,ls),
(442,581,o),
(447,594,o),
(447,625,c),
(446,625,l),
(446,594,o),
(453,581,o),
(464,537,cs),
(600,0,l),
(712,0,l),
(876,700,l),
(784,700,l),
(664,153,ls),
(655,117,o),
(652,100,o),
(652,66,c),
(654,66,l),
(654,100,o),
(651,116,o),
(640,160,cs),
(503,700,l),
(392,700,l),
(258,150,ls),
(249,111,o),
(248,90,o),
(246,67,c),
(248,67,l),
(250,89,o),
(249,111,o),
(239,149,cs),
(113,700,l),
(19,700,l),
(190,0,l)
);
}
);
width = 895;
},
{
associatedMasterId = m002;
layerId = "F634847C-F29A-440B-92A6-4001F746CB80";
name = "18 Apr 23 16.07";
shapes = (
{
closed = 1;
nodes = (
(327,0,l),
(436,493,ls),
(445,536,o),
(450,581,o),
(452,611,c),
(458,611,l),
(460,574,o),
(463,544,o),
(475,494,cs),
(598,0,l),
(721,0,l),
(886,700,l),
(796,700,l),
(678,184,ls),
(665,126,o),
(661,99,o),
(660,80,c),
(653,80,l),
(653,104,o),
(647,139,o),
(636,185,cs),
(510,700,l),
(398,700,l),
(284,184,ls),
(272,126,o),
(266,99,o),
(265,80,c),
(258,80,l),
(258,104,o),
(253,139,o),
(242,185,cs),
(121,700,l),
(30,700,l),
(201,0,l)
);
}
);
width = 917;
},
{
anchors = (
{
name = bottom;
pos = (488,0);
},
{
name = top;
pos = (488,700);
}
);
layerId = m003;
shapes = (
{
closed = 1;
nodes = (
(364,0,l),
(470,450,ls),
(485,512,o),
(494,573,o),
(494,625,c),
(485,625,l),
(485,574,o),
(489,517,o),
(504,454,cs),
(616,0,l),
(781,0,l),
(945,700,l),
(796,700,l),
(711,289,ls),
(695,213,o),
(689,121,o),
(689,66,c),
(697,66,l),
(697,121,o),
(697,212,o),
(676,291,cs),
(569,700,l),
(405,700,l),
(303,281,ls),
(287,217,o),
(284,153,o),
(278,67,c),
(286,67,l),
(292,156,o),
(280,223,o),
(268,278,cs),
(177,700,l),
(21,700,l),
(197,0,l)
);
}
);
width = 966;
},
{
associatedMasterId = m003;
layerId = "D7AC2590-81F4-4F64-9613-0E3CDBDF30D1";
name = "18 Apr 23 16.07";
shapes = (
{
closed = 1;
nodes = (
(327,0,l),
(436,493,ls),
(445,536,o),
(450,581,o),
(452,611,c),
(458,611,l),
(460,574,o),
(463,544,o),
(475,494,cs),
(598,0,l),
(721,0,l),
(886,700,l),
(796,700,l),
(678,184,ls),
(665,126,o),
(661,99,o),
(660,80,c),
(653,80,l),
(653,104,o),
(647,139,o),
(636,185,cs),
(510,700,l),
(398,700,l),
(284,184,ls),
(272,126,o),
(266,99,o),
(265,80,c),
(258,80,l),
(258,104,o),
(253,139,o),
(242,185,cs),
(121,700,l),
(30,700,l),
(201,0,l)
);
}
);
width = 917;
}
);
metricRight = "=|";
unicode = 87;
},
{
color = 4;
glyphname = X;
layers = (
{
background = {
shapes = (
{
pos = (2,0);
ref = V;
},
{
pos = (8,0);
ref = A;
}
);
};
layerId = m009;
shapes = (
{
closed = 1;
nodes = (
(580,0,l),
(315,378,l),
(307,388,l),
(91,700,l),
(59,700,l),
(293,365,l),
(299,358,l),
(547,0,l)
);
},
{
closed = 1;
nodes = (
(67,0,l),
(310,358,l),
(295,378,l),
(35,0,l)
);
},
{
closed = 1;
nodes = (
(545,700,l),
(513,700,l),
(301,385,l),
(314,364,l)
);
}
);
width = 612;
},
{
background = {
shapes = (
{
pos = (2,0);
ref = V;
},
{
pos = (8,0);
ref = A;
}
);
};
layerId = m002;
shapes = (
{
closed = 1;
nodes = (
(616,0,l),
(350,378,l),
(315,423,l),
(125,700,l),
(24,700,l),
(265,358,l),
(298,315,l),
(514,0,l)
);
},
{
closed = 1;
nodes = (
(105,0,l),
(323,327,l),
(272,388,l),
(2,0,l)
);
},
{
closed = 1;
nodes = (
(581,700,l),
(481,700,l),
(287,412,l),
(340,354,l)
);
}
);
width = 612;
},
{
background = {
shapes = (
{
pos = (2,0);
ref = V;
},
{
pos = (8,0);
ref = A;
}
);
};
layerId = m003;
shapes = (
{
closed = 1;
nodes = (
(644,0,l),
(378,378,l),
(343,423,l),
(153,700,l),
(-8,700,l),
(233,358,l),
(266,315,l),
(482,0,l)
);
},
{
closed = 1;
nodes = (
(128,0,l),
(346,327,l),
(243,388,l),
(-32,0,l)
);
},
{
closed = 1;
nodes = (
(611,700,l),
(454,700,l),
(261,412,l),
(370,354,l)
);
}
);
width = 612;
}
);
unicode = 88;
},
{
color = 4;
glyphname = Y;
lastChange = "2023-07-07 09:05:05 +0000";
layers = (
{
.lastUpdate = 710413563.271;
anchors = (
{
name = bar_hor_dbl;
pos = (246,256);
},
{
name = bottom;
pos = (239,0);
},
{
name = top;
pos = (239,700);
},
{
name = topleft;
pos = (-26,700);
}
);
background = {
shapes = (
{
pos = (-66,0);
ref = V;
}
);
};
layerId = m009;
shapes = (
{
closed = 1;
nodes = (
(251,0,l),
(251,329,l),
(243,298,l),
(486,700,l),
(454,700,l),
(270,391,ls),
(246,350,o),
(237,335,o),
(236,315,c),
(239,315,l),
(239,330,o),
(229,346,o),
(200,397,cs),
(26,700,l),
(-7,700,l),
(235,289,l),
(222,329,l),
(222,0,l)
);
}
);
width = 479;
},
{
.lastUpdate = 710413563.281;
anchors = (
{
name = bar_hor_dbl;
pos = (325,256);
},
{
name = bottom;
pos = (285,0);
},
{
name = top;
pos = (285,700);
},
{
name = topleft;
pos = (20,700);
}
);
background = {
shapes = (
{
pos = (-20,0);
ref = V;
}
);
};
layerId = m002;
shapes = (
{
closed = 1;
nodes = (
(326,0,l),
(326,346,l),
(316,279,l),
(569,700,l),
(471,700,l),
(309,417,ls),
(291,386,o),
(285,377,o),
(281,347,c),
(287,347,l),
(284,376,o),
(277,385,o),
(258,418,cs),
(99,700,l),
(1,700,l),
(252,275,l),
(240,346,l),
(240,0,l)
);
}
);
width = 570;
},
{
.lastUpdate = 710413563.281;
anchors = (
{
name = bar_hor_dbl;
pos = (327,175);
},
{
name = bottom;
pos = (320,0);
},
{
name = top;
pos = (320,699);
},
{
name = topleft;
pos = (22,699);
}
);
background = {
shapes = (
{
pos = (-20,0);
ref = V;
}
);
};
layerId = m003;
shapes = (
{
closed = 1;
nodes = (
(391,0,l),
(391,347,l),
(352,230,l),
(635,700,l),
(478,700,l),
(355,491,ls),
(338,462,o),
(310,419,o),
(304,348,c),
(334,348,l),
(329,417,o),
(297,464,o),
(281,492,cs),
(161,700,l),
(5,700,l),
(287,226,l),
(243,347,l),
(243,0,l)
);
}
);
width = 640;
}
);
metricRight = "=|";
unicode = 89;
},
{
color = 4;
glyphname = Z;
layers = (
{
anchors = (
{
name = bottom;
pos = (269,0);
},
{
name = center;
pos = (269,350);
},
{
name = top;
pos = (269,700);
}
);
background = {
shapes = (
{
pos = (24,0);
ref = E;
}
);
};
layerId = m009;
shapes = (
{
closed = 1;
nodes = (
(499,0,l),
(499,26,l),
(55,26,l),
(60,11,l),
(503,674,l),
(503,700,l),
(75,700,l),
(75,674,l),
(479,674,l),
(478,684,l),
(38,26,l),
(38,0,l)
);
}
);
width = 538;
},
{
anchors = (
{
name = bottom;
pos = (269,0);
},
{
name = center;
pos = (269,350);
},
{
name = top;
pos = (269,700);
}
);
background = {
shapes = (
{
pos = (24,0);
ref = E;
}
);
};
layerId = m002;
shapes = (
{
closed = 1;
nodes = (
(509,0,l),
(509,80,l),
(87,80,l),
(113,41,l),
(503,622,l),
(503,700,l),
(65,700,l),
(65,620,l),
(460,620,l),
(426,661,l),
(35,79,l),
(35,0,l)
);
}
);
width = 538;
},
{
anchors = (
{
name = bottom;
pos = (269,0);
},
{
name = center;
pos = (269,350);
},
{
name = top;
pos = (269,700);
}
);
background = {
shapes = (
{
pos = (24,0);
ref = E;
}
);
};
layerId = m003;
shapes = (
{
closed = 1;
nodes = (
(519,0,l),
(519,130,l),
(87,130,l),
(138,38,l),
(523,611,l),
(523,700,l),
(55,700,l),
(55,570,l),
(460,570,l),
(394,661,l),
(15,97,l),
(15,0,l)
);
}
);
width = 538;
}
);
unicode = 90;
},
{
color = 4;
glyphname = Saltillo;
layers = (
{
layerId = m009;
shapes = (
{
closed = 1;
nodes = (
(131,224,l),
(131,700,l),
(102,700,l),
(102,224,l)
);
}
);
width = 233;
},
{
layerId = m002;
shapes = (
{
closed = 1;
nodes = (
(179,224,l),
(179,700,l),
(92,700,l),
(92,224,l)
);
}
);
width = 271;
},
{
layerId = m003;
shapes = (
{
closed = 1;
nodes = (
(197,224,l),
(197,700,l),
(49,700,l),
(49,224,l)
);
}
);
width = 246;
}
);
metricLeft = H;
metricRight = H;
unicode = 42891;
},
{
export = 0;
glyphname = K.0036;
layers = (
{
background = {
shapes = (
{
pos = (27,0);
ref = K;
}
);
};
layerId = m009;
shapes = (
{
closed = 1;
nodes = (
(189,0,l),
(189,700,l),
(102,700,l),
(102,0,l)
);
},
{
closed = 1;
nodes = (
(305,392,l),
(177,392,l),
(177,317,l),
(241,317,ls),
(296,317,o),
(310,302,o),
(339,257,cs),
(454,77,ls),
(487,25,o),
(512,-10,o),
(563,-10,cs),
(591,-10,o),
(611,-1,o),
(630,12,c),
(634,-33,l),
(585,123,l),
(626,71,l),
(580,44,o),
(560,59,o),
(536,97,cs),
(395,319,ls),
(375,351,o),
(350,356,o),
(319,356,c),
(319,359,l),
(339,364,o),
(356,378,o),
(374,403,cs),
(586,700,l),
(489,700,l),
(259,377,l)
);
}
);
width = 599;
},
{
background = {
shapes = (
{
pos = (17,0);
ref = K;
}
);
};
layerId = m002;
shapes = (
{
closed = 1;
nodes = (
(179,0,l),
(179,700,l),
(92,700,l),
(92,0,l)
);
},
{
closed = 1;
nodes = (
(295,392,l),
(167,392,l),
(167,317,l),
(231,317,ls),
(286,317,o),
(300,302,o),
(329,257,cs),
(444,77,ls),
(477,25,o),
(502,-10,o),
(553,-10,cs),
(581,-10,o),
(601,-1,o),
(620,12,c),
(624,-33,l),
(575,123,l),
(616,71,l),
(570,44,o),
(550,59,o),
(526,97,cs),
(385,319,ls),
(365,351,o),
(340,356,o),
(309,356,c),
(309,359,l),
(329,364,o),
(346,378,o),
(364,403,cs),
(576,700,l),
(479,700,l),
(249,377,l)
);
}
);
width = 589;
},
{
background = {
shapes = (
{
pos = (-26,0);
ref = K;
}
);
};
layerId = m003;
shapes = (
{
closed = 1;
nodes = (
(136,0,l),
(136,700,l),
(49,700,l),
(49,0,l)
);
},
{
closed = 1;
nodes = (
(252,392,l),
(124,392,l),
(124,317,l),
(188,317,ls),
(243,317,o),
(257,302,o),
(286,257,cs),
(401,77,ls),
(434,25,o),
(459,-10,o),
(510,-10,cs),
(538,-10,o),
(558,-1,o),
(577,12,c),
(581,-33,l),
(532,123,l),
(573,71,l),
(527,44,o),
(507,59,o),
(483,97,cs),
(342,319,ls),
(322,351,o),
(297,356,o),
(266,356,c),
(266,359,l),
(286,364,o),
(303,378,o),
(321,403,cs),
(533,700,l),
(436,700,l),
(206,377,l)
);
}
);
width = 546;
}
);
metricLeft = H;
},
{
export = 0;
glyphname = C.001;
layers = (
{
anchors = (
{
name = bar_hor_dbl;
pos = (207,355);
},
{
name = tail_Q;
pos = (396,43);
}
);
background = {
shapes = (
{
pos = (10,0);
ref = O;
}
);
};
layerId = m009;
shapes = (
{
closed = 1;
nodes = (
(454,-10,o),
(534,14,o),
(591,71,c),
(588,19,l),
(520,150,l),
(569,138,l),
(498,79,o),
(436,65,o),
(385,65,cs),
(257,65,o),
(148,152,o),
(148,352,cs),
(148,554,o),
(256,635,o),
(385,635,cs),
(453,635,o),
(505,612,o),
(564,566,c),
(524,549,l),
(591,682,l),
(594,631,l),
(537,686,o),
(461,710,o),
(384,710,cs),
(200,710,o),
(60,574,o),
(60,350,cs),
(60,126,o),
(199,-10,o),
(379,-10,cs)
);
}
);
width = 619;
},
{
anchors = (
{
name = bar_hor_dbl;
pos = (197,355);
},
{
name = tail_Q;
pos = (386,43);
}
);
background = {
shapes = (
{
ref = O;
}
);
};
layerId = m002;
shapes = (
{
closed = 1;
nodes = (
(444,-10,o),
(524,14,o),
(581,71,c),
(578,19,l),
(510,150,l),
(559,138,l),
(488,79,o),
(426,65,o),
(375,65,cs),
(247,65,o),
(138,152,o),
(138,352,cs),
(138,554,o),
(246,635,o),
(375,635,cs),
(443,635,o),
(495,612,o),
(554,566,c),
(514,549,l),
(581,682,l),
(584,631,l),
(527,686,o),
(451,710,o),
(374,710,cs),
(190,710,o),
(50,574,o),
(50,350,cs),
(50,126,o),
(189,-10,o),
(369,-10,cs)
);
}
);
width = 609;
},
{
anchors = (
{
name = bar_hor_dbl;
pos = (172,355);
},
{
name = tail_Q;
pos = (361,43);
}
);
background = {
shapes = (
{
pos = (-25,0);
ref = O;
}
);
};
layerId = m003;
shapes = (
{
closed = 1;
nodes = (
(419,-10,o),
(499,14,o),
(556,71,c),
(553,19,l),
(485,150,l),
(534,138,l),
(463,79,o),
(401,65,o),
(350,65,cs),
(222,65,o),
(113,152,o),
(113,352,cs),
(113,554,o),
(221,635,o),
(350,635,cs),
(418,635,o),
(470,612,o),
(529,566,c),
(489,549,l),
(556,682,l),
(559,631,l),
(502,686,o),
(426,710,o),
(349,710,cs),
(165,710,o),
(25,574,o),
(25,350,cs),
(25,126,o),
(164,-10,o),
(344,-10,cs)
);
}
);
width = 584;
}
);
metricLeft = O;
},
{
export = 0;
glyphname = _euro;
lastChange = "2023-07-07 07:56:28 +0000";
layers = (
{
.lastUpdate = 710409380.338;
anchors = (
{
name = bar_hor_dbl;
pos = (175,352);
},
{
name = bottom;
pos = (319,0);
},
{
name = top;
pos = (298,700);
}
);
background = {
shapes = (
{
pos = (23,0);
ref = O;
}
);
};
layerId = m009;
shapes = (
{
closed = 1;
nodes = (
(352,-10,o),
(399,13,o),
(441,56,c),
(437,37,l),
(407,75,l),
(425,72,l),
(382,31,o),
(342,16,o),
(296,16,cs),
(170,16,o),
(91,137,o),
(91,346,cs),
(91,553,o),
(171,684,o),
(297,684,cs),
(346,684,o),
(388,667,o),
(434,612,c),
(408,612,l),
(446,660,l),
(448,632,l),
(401,691,o),
(349,710,o),
(295,710,cs),
(159,710,o),
(60,577,o),
(60,346,cs),
(60,129,o),
(147,-10,o),
(295,-10,cs)
);
}
);
width = 475;
},
{
.lastUpdate = 710409388.37;
anchors = (
{
name = bar_hor_dbl;
pos = (230,350);
},
{
name = bottom;
pos = (380,0);
},
{
name = top;
pos = (357,700);
}
);
background = {
shapes = (
{
pos = (59,0);
ref = O;
}
);
};
layerId = m002;
shapes = (
{
closed = 1;
nodes = (
(362,-10,o),
(425,4,o),
(485,62,c),
(482,19,l),
(406,152,l),
(452,136,l),
(410,87,o),
(361,69,o),
(317,69,cs),
(213,69,o),
(138,167,o),
(138,352,cs),
(138,555,o),
(222,631,o),
(315,631,cs),
(367,631,o),
(413,606,o),
(450,551,c),
(414,543,l),
(481,658,l),
(484,630,l),
(436,688,o),
(379,710,o),
(313,710,cs),
(170,710,o),
(50,599,o),
(50,350,cs),
(50,123,o),
(155,-10,o),
(316,-10,cs)
);
}
);
width = 511;
},
{
.lastUpdate = 710409348.377;
anchors = (
{
name = bar_hor_dbl;
pos = (178,343);
},
{
name = bottom;
pos = (331,0);
},
{
name = top;
pos = (308,700);
}
);
background = {
shapes = (
{
pos = (5,0);
ref = O;
}
);
};
layerId = m003;
shapes = (
{
closed = 1;
nodes = (
(357,-10,o),
(429,-4,o),
(509,64,c),
(506,19,l),
(410,185,l),
(456,193,l),
(414,144,o),
(361,128,o),
(321,128,cs),
(237,128,o),
(178,212,o),
(178,352,cs),
(178,492,o),
(234,572,o),
(318,572,cs),
(371,572,o),
(403,551,o),
(434,513,c),
(408,511,l),
(504,658,l),
(504,625,l),
(447,686,o),
(391,710,o),
(317,710,cs),
(141,710,o),
(25,571,o),
(25,349,cs),
(25,134,o),
(139,-10,o),
(328,-10,cs)
);
}
);
width = 513;
}
);
metricLeft = O;
metricRight = C;
},
{
export = 0;
glyphname = G.001;
layers = (
{
background = {
shapes = (
{
pos = (10,0);
ref = G;
}
);
};
layerId = m009;
shapes = (
{
closed = 1;
nodes = (
(499,-10,o),
(574,44,o),
(620,98,c),
(604,22,l),
(604,374,l),
(532,374,l),
(532,80,l),
(545,124,l),
(498,87,o),
(439,67,o),
(379,67,cs),
(255,67,o),
(148,152,o),
(148,350,cs),
(148,550,o),
(257,633,o),
(377,633,cs),
(437,633,o),
(498,612,o),
(551,573,c),
(584,640,l),
(529,686,o),
(458,710,o),
(381,710,cs),
(200,710,o),
(60,574,o),
(60,350,cs),
(60,126,o),
(199,-10,o),
(381,-10,cs)
);
}
);
width = 649;
},
{
background = {
shapes = (
{
ref = G;
}
);
};
layerId = m002;
shapes = (
{
closed = 1;
nodes = (
(489,-10,o),
(564,44,o),
(610,98,c),
(594,22,l),
(594,374,l),
(522,374,l),
(522,80,l),
(535,124,l),
(488,87,o),
(429,67,o),
(369,67,cs),
(245,67,o),
(138,152,o),
(138,350,cs),
(138,550,o),
(247,633,o),
(367,633,cs),
(427,633,o),
(488,612,o),
(541,573,c),
(574,640,l),
(519,686,o),
(448,710,o),
(371,710,cs),
(190,710,o),
(50,574,o),
(50,350,cs),
(50,126,o),
(189,-10,o),
(371,-10,cs)
);
}
);
width = 639;
},
{
background = {
shapes = (
{
pos = (-25,0);
ref = G;
}
);
};
layerId = m003;
shapes = (
{
closed = 1;
nodes = (
(464,-10,o),
(539,44,o),
(585,98,c),
(569,22,l),
(569,374,l),
(497,374,l),
(497,80,l),
(510,124,l),
(463,87,o),
(404,67,o),
(344,67,cs),
(220,67,o),
(113,152,o),
(113,350,cs),
(113,550,o),
(222,633,o),
(342,633,cs),
(402,633,o),
(463,612,o),
(516,573,c),
(549,640,l),
(494,686,o),
(423,710,o),
(346,710,cs),
(165,710,o),
(25,574,o),
(25,350,cs),
(25,126,o),
(164,-10,o),
(346,-10,cs)
);
}
);
width = 614;
}
);
metricLeft = O;
},
{
export = 0;
glyphname = G.002;
layers = (
{
background = {
shapes = (
{
pos = (11,0);
ref = C;
},
{
closed = 1;
nodes = (
(473,-10,o),
(566,31,o),
(624,106,c),
(613,71,l),
(615,362,l),
(393,362,l),
(393,292,l),
(578,292,l),
(541,337,l),
(541,70,l),
(558,131,l),
(503,81,o),
(452,62,o),
(390,62,cs),
(256,62,o),
(149,152,o),
(149,350,cs),
(149,550,o),
(258,635,o),
(388,635,cs),
(446,635,o),
(512,618,o),
(573,557,c),
(531,540,l),
(601,675,l),
(604,623,l),
(546,682,o),
(468,710,o),
(385,710,cs),
(201,710,o),
(61,574,o),
(61,350,cs),
(61,126,o),
(200,-10,o),
(376,-10,cs)
);
},
{
closed = 1;
nodes = (
(648,123,l),
(698,71,l),
(637,36,o),
(612,61,o),
(613,131,cs),
(615,367,l),
(381,367,l),
(381,297,l),
(578,297,l),
(547,342,l),
(546,302,ls),
(542,134,o),
(462,62,o),
(362,62,cs),
(249,62,o),
(148,153,o),
(148,343,cs),
(148,550,o),
(258,635,o),
(388,635,cs),
(446,635,o),
(512,618,o),
(573,557,c),
(517,540,l),
(586,675,l),
(604,623,l),
(546,682,o),
(468,710,o),
(385,710,cs),
(201,710,o),
(60,574,o),
(60,343,cs),
(60,126,o),
(197,-10,o),
(354,-10,cs),
(421,-10,o),
(504,15,o),
(544,121,c),
(579,112,l),
(554,136,l),
(535,41,o),
(561,-10,o),
(632,-10,cs),
(662,-10,o),
(683,-1,o),
(702,12,c),
(695,-33,l)
);
}
);
};
layerId = m009;
shapes = (
{
closed = 1;
nodes = (
(648,123,l),
(698,71,l),
(637,36,o),
(612,61,o),
(613,131,cs),
(615,367,l),
(381,367,l),
(381,297,l),
(578,297,l),
(547,342,l),
(546,302,ls),
(542,134,o),
(462,62,o),
(362,62,cs),
(249,62,o),
(148,153,o),
(148,343,cs),
(148,550,o),
(258,635,o),
(388,635,cs),
(446,635,o),
(512,618,o),
(573,557,c),
(517,540,l),
(586,675,l),
(604,623,l),
(546,682,o),
(468,710,o),
(385,710,cs),
(201,710,o),
(60,574,o),
(60,343,cs),
(60,126,o),
(197,-10,o),
(354,-10,cs),
(421,-10,o),
(504,15,o),
(544,121,c),
(579,112,l),
(554,136,l),
(535,41,o),
(561,-10,o),
(632,-10,cs),
(662,-10,o),
(683,-1,o),
(702,12,c),
(695,-33,l)
);
}
);
width = 709;
},
{
background = {
shapes = (
{
pos = (1,0);
ref = C;
},
{
closed = 1;
nodes = (
(463,-10,o),
(556,31,o),
(614,106,c),
(603,71,l),
(605,362,l),
(383,362,l),
(383,292,l),
(568,292,l),
(531,337,l),
(531,70,l),
(548,131,l),
(493,81,o),
(442,62,o),
(380,62,cs),
(246,62,o),
(139,152,o),
(139,350,cs),
(139,550,o),
(248,635,o),
(378,635,cs),
(436,635,o),
(502,618,o),
(563,557,c),
(521,540,l),
(591,675,l),
(594,623,l),
(536,682,o),
(458,710,o),
(375,710,cs),
(191,710,o),
(51,574,o),
(51,350,cs),
(51,126,o),
(190,-10,o),
(366,-10,cs)
);
},
{
closed = 1;
nodes = (
(638,123,l),
(688,71,l),
(627,36,o),
(602,61,o),
(603,131,cs),
(605,367,l),
(371,367,l),
(371,297,l),
(568,297,l),
(537,342,l),
(536,302,ls),
(532,134,o),
(452,62,o),
(352,62,cs),
(239,62,o),
(138,153,o),
(138,343,cs),
(138,550,o),
(248,635,o),
(378,635,cs),
(436,635,o),
(502,618,o),
(563,557,c),
(507,540,l),
(576,675,l),
(594,623,l),
(536,682,o),
(458,710,o),
(375,710,cs),
(191,710,o),
(50,574,o),
(50,343,cs),
(50,126,o),
(187,-10,o),
(344,-10,cs),
(411,-10,o),
(494,15,o),
(534,121,c),
(569,112,l),
(544,136,l),
(525,41,o),
(551,-10,o),
(622,-10,cs),
(652,-10,o),
(673,-1,o),
(692,12,c),
(685,-33,l)
);
}
);
};
layerId = m002;
shapes = (
{
closed = 1;
nodes = (
(638,123,l),
(688,71,l),
(627,36,o),
(602,61,o),
(603,131,cs),
(605,367,l),
(371,367,l),
(371,297,l),
(568,297,l),
(537,342,l),
(536,302,ls),
(532,134,o),
(452,62,o),
(352,62,cs),
(239,62,o),
(138,153,o),
(138,343,cs),
(138,550,o),
(248,635,o),
(378,635,cs),
(436,635,o),
(502,618,o),
(563,557,c),
(507,540,l),
(576,675,l),
(594,623,l),
(536,682,o),
(458,710,o),
(375,710,cs),
(191,710,o),
(50,574,o),
(50,343,cs),
(50,126,o),
(187,-10,o),
(344,-10,cs),
(411,-10,o),
(494,15,o),
(534,121,c),
(569,112,l),
(544,136,l),
(525,41,o),
(551,-10,o),
(622,-10,cs),
(652,-10,o),
(673,-1,o),
(692,12,c),
(685,-33,l)
);
}
);
width = 699;
},
{
background = {
shapes = (
{
pos = (-24,0);
ref = C;
},
{
closed = 1;
nodes = (
(438,-10,o),
(531,31,o),
(589,106,c),
(578,71,l),
(580,362,l),
(358,362,l),
(358,292,l),
(543,292,l),
(506,337,l),
(506,70,l),
(523,131,l),
(468,81,o),
(417,62,o),
(355,62,cs),
(221,62,o),
(114,152,o),
(114,350,cs),
(114,550,o),
(223,635,o),
(353,635,cs),
(411,635,o),
(477,618,o),
(538,557,c),
(496,540,l),
(566,675,l),
(569,623,l),
(511,682,o),
(433,710,o),
(350,710,cs),
(166,710,o),
(26,574,o),
(26,350,cs),
(26,126,o),
(165,-10,o),
(341,-10,cs)
);
},
{
closed = 1;
nodes = (
(613,123,l),
(663,71,l),
(602,36,o),
(577,61,o),
(578,131,cs),
(580,367,l),
(346,367,l),
(346,297,l),
(543,297,l),
(512,342,l),
(511,302,ls),
(507,134,o),
(427,62,o),
(327,62,cs),
(214,62,o),
(113,153,o),
(113,343,cs),
(113,550,o),
(223,635,o),
(353,635,cs),
(411,635,o),
(477,618,o),
(538,557,c),
(482,540,l),
(551,675,l),
(569,623,l),
(511,682,o),
(433,710,o),
(350,710,cs),
(166,710,o),
(25,574,o),
(25,343,cs),
(25,126,o),
(162,-10,o),
(319,-10,cs),
(386,-10,o),
(469,15,o),
(509,121,c),
(544,112,l),
(519,136,l),
(500,41,o),
(526,-10,o),
(597,-10,cs),
(627,-10,o),
(648,-1,o),
(667,12,c),
(660,-33,l)
);
}
);
};
layerId = m003;
shapes = (
{
closed = 1;
nodes = (
(613,123,l),
(663,71,l),
(602,36,o),
(577,61,o),
(578,131,cs),
(580,367,l),
(346,367,l),
(346,297,l),
(543,297,l),
(512,342,l),
(511,302,ls),
(507,134,o),
(427,62,o),
(327,62,cs),
(214,62,o),
(113,153,o),
(113,343,cs),
(113,550,o),
(223,635,o),
(353,635,cs),
(411,635,o),
(477,618,o),
(538,557,c),
(482,540,l),
(551,675,l),
(569,623,l),
(511,682,o),
(433,710,o),
(350,710,cs),
(166,710,o),
(25,574,o),
(25,343,cs),
(25,126,o),
(162,-10,o),
(319,-10,cs),
(386,-10,o),
(469,15,o),
(509,121,c),
(544,112,l),
(519,136,l),
(500,41,o),
(526,-10,o),
(597,-10,cs),
(627,-10,o),
(648,-1,o),
(667,12,c),
(660,-33,l)
);
}
);
width = 674;
}
);
metricLeft = O;
},
{
export = 0;
glyphname = G.003;
layers = (
{
background = {
shapes = (
{
pos = (11,-1100);
ref = C;
},
{
closed = 1;
nodes = (
(473,-1110,o),
(566,-1069,o),
(624,-994,c),
(613,-1029,l),
(615,-738,l),
(393,-738,l),
(393,-808,l),
(578,-808,l),
(541,-763,l),
(541,-1030,l),
(558,-969,l),
(503,-1019,o),
(452,-1038,o),
(390,-1038,cs),
(256,-1038,o),
(149,-948,o),
(149,-750,cs),
(149,-550,o),
(258,-465,o),
(388,-465,cs),
(446,-465,o),
(512,-482,o),
(573,-543,c),
(531,-560,l),
(601,-425,l),
(604,-477,l),
(546,-418,o),
(468,-390,o),
(385,-390,cs),
(201,-390,o),
(61,-526,o),
(61,-750,cs),
(61,-974,o),
(200,-1110,o),
(376,-1110,cs)
);
},
{
closed = 1;
nodes = (
(648,-977,l),
(698,-1029,l),
(637,-1064,o),
(612,-1039,o),
(613,-969,cs),
(615,-733,l),
(381,-733,l),
(381,-803,l),
(578,-803,l),
(547,-758,l),
(546,-798,ls),
(542,-966,o),
(462,-1038,o),
(362,-1038,cs),
(249,-1038,o),
(148,-947,o),
(148,-757,cs),
(148,-550,o),
(258,-465,o),
(388,-465,cs),
(446,-465,o),
(512,-482,o),
(573,-543,c),
(517,-560,l),
(586,-425,l),
(604,-477,l),
(546,-418,o),
(468,-390,o),
(385,-390,cs),
(201,-390,o),
(60,-526,o),
(60,-757,cs),
(60,-974,o),
(197,-1110,o),
(354,-1110,cs),
(421,-1110,o),
(504,-1085,o),
(544,-979,c),
(579,-988,l),
(554,-964,l),
(535,-1059,o),
(561,-1110,o),
(632,-1110,cs),
(662,-1110,o),
(683,-1101,o),
(702,-1088,c),
(695,-1133,l)
);
},
{
pos = (10,0);
ref = C;
}
);
};
layerId = m009;
shapes = (
{
closed = 1;
nodes = (
(648,123,l),
(698,71,l),
(637,36,o),
(612,61,o),
(613,131,cs),
(615,367,l),
(381,367,l),
(381,294,l),
(578,294,l),
(547,342,l),
(546,302,ls),
(542,140,o),
(463,68,o),
(369,68,cs),
(252,68,o),
(148,170,o),
(148,350,cs),
(148,542,o),
(263,632,o),
(389,632,cs),
(456,632,o),
(521,607,o),
(573,555,c),
(543,541,l),
(607,656,l),
(604,626,l),
(547,682,o),
(468,710,o),
(388,710,cs),
(223,710,o),
(60,594,o),
(60,349,cs),
(60,125,o),
(199,-10,o),
(352,-10,cs),
(412,-10,o),
(488,11,o),
(531,115,c),
(563,112,l),
(538,136,l),
(535,41,o),
(561,-10,o),
(632,-10,cs),
(662,-10,o),
(683,-1,o),
(702,12,c),
(695,-33,l)
);
}
);
width = 709;
},
{
background = {
shapes = (
{
pos = (1,-1100);
ref = C;
},
{
closed = 1;
nodes = (
(463,-1110,o),
(556,-1069,o),
(614,-994,c),
(603,-1029,l),
(605,-738,l),
(383,-738,l),
(383,-808,l),
(568,-808,l),
(531,-763,l),
(531,-1030,l),
(548,-969,l),
(493,-1019,o),
(442,-1038,o),
(380,-1038,cs),
(246,-1038,o),
(139,-948,o),
(139,-750,cs),
(139,-550,o),
(248,-465,o),
(378,-465,cs),
(436,-465,o),
(502,-482,o),
(563,-543,c),
(521,-560,l),
(591,-425,l),
(594,-477,l),
(536,-418,o),
(458,-390,o),
(375,-390,cs),
(191,-390,o),
(51,-526,o),
(51,-750,cs),
(51,-974,o),
(190,-1110,o),
(366,-1110,cs)
);
},
{
closed = 1;
nodes = (
(638,-977,l),
(688,-1029,l),
(627,-1064,o),
(602,-1039,o),
(603,-969,cs),
(605,-733,l),
(371,-733,l),
(371,-803,l),
(568,-803,l),
(537,-758,l),
(536,-798,ls),
(532,-966,o),
(452,-1038,o),
(352,-1038,cs),
(239,-1038,o),
(138,-947,o),
(138,-757,cs),
(138,-550,o),
(248,-465,o),
(378,-465,cs),
(436,-465,o),
(502,-482,o),
(563,-543,c),
(507,-560,l),
(576,-425,l),
(594,-477,l),
(536,-418,o),
(458,-390,o),
(375,-390,cs),
(191,-390,o),
(50,-526,o),
(50,-757,cs),
(50,-974,o),
(187,-1110,o),
(344,-1110,cs),
(411,-1110,o),
(494,-1085,o),
(534,-979,c),
(569,-988,l),
(544,-964,l),
(525,-1059,o),
(551,-1110,o),
(622,-1110,cs),
(652,-1110,o),
(673,-1101,o),
(692,-1088,c),
(685,-1133,l)
);
},
{
ref = C;
}
);
};
layerId = m002;
shapes = (
{
closed = 1;
nodes = (
(638,123,l),
(688,71,l),
(627,36,o),
(602,61,o),
(603,131,cs),
(605,367,l),
(371,367,l),
(371,294,l),
(568,294,l),
(537,342,l),
(536,302,ls),
(532,140,o),
(453,68,o),
(359,68,cs),
(242,68,o),
(138,170,o),
(138,350,cs),
(138,542,o),
(253,632,o),
(379,632,cs),
(446,632,o),
(511,607,o),
(563,555,c),
(533,541,l),
(597,656,l),
(594,626,l),
(537,682,o),
(458,710,o),
(378,710,cs),
(213,710,o),
(50,594,o),
(50,349,cs),
(50,125,o),
(189,-10,o),
(342,-10,cs),
(402,-10,o),
(478,11,o),
(521,115,c),
(553,112,l),
(528,136,l),
(525,41,o),
(551,-10,o),
(622,-10,cs),
(652,-10,o),
(673,-1,o),
(692,12,c),
(685,-33,l)
);
}
);
width = 699;
},
{
background = {
shapes = (
{
pos = (-24,-1100);
ref = C;
},
{
closed = 1;
nodes = (
(438,-1110,o),
(531,-1069,o),
(589,-994,c),
(578,-1029,l),
(580,-738,l),
(358,-738,l),
(358,-808,l),
(543,-808,l),
(506,-763,l),
(506,-1030,l),
(523,-969,l),
(468,-1019,o),
(417,-1038,o),
(355,-1038,cs),
(221,-1038,o),
(114,-948,o),
(114,-750,cs),
(114,-550,o),
(223,-465,o),
(353,-465,cs),
(411,-465,o),
(477,-482,o),
(538,-543,c),
(496,-560,l),
(566,-425,l),
(569,-477,l),
(511,-418,o),
(433,-390,o),
(350,-390,cs),
(166,-390,o),
(26,-526,o),
(26,-750,cs),
(26,-974,o),
(165,-1110,o),
(341,-1110,cs)
);
},
{
closed = 1;
nodes = (
(613,-977,l),
(663,-1029,l),
(602,-1064,o),
(577,-1039,o),
(578,-969,cs),
(580,-733,l),
(346,-733,l),
(346,-803,l),
(543,-803,l),
(512,-758,l),
(511,-798,ls),
(507,-966,o),
(427,-1038,o),
(327,-1038,cs),
(214,-1038,o),
(113,-947,o),
(113,-757,cs),
(113,-550,o),
(223,-465,o),
(353,-465,cs),
(411,-465,o),
(477,-482,o),
(538,-543,c),
(482,-560,l),
(551,-425,l),
(569,-477,l),
(511,-418,o),
(433,-390,o),
(350,-390,cs),
(166,-390,o),
(25,-526,o),
(25,-757,cs),
(25,-974,o),
(162,-1110,o),
(319,-1110,cs),
(386,-1110,o),
(469,-1085,o),
(509,-979,c),
(544,-988,l),
(519,-964,l),
(500,-1059,o),
(526,-1110,o),
(597,-1110,cs),
(627,-1110,o),
(648,-1101,o),
(667,-1088,c),
(660,-1133,l)
);
},
{
pos = (-25,0);
ref = C;
}
);
};
layerId = m003;
shapes = (
{
closed = 1;
nodes = (
(613,123,l),
(663,71,l),
(602,36,o),
(577,61,o),
(578,131,cs),
(580,367,l),
(346,367,l),
(346,294,l),
(543,294,l),
(512,342,l),
(511,302,ls),
(507,140,o),
(428,68,o),
(334,68,cs),
(217,68,o),
(113,170,o),
(113,350,cs),
(113,542,o),
(228,632,o),
(354,632,cs),
(421,632,o),
(486,607,o),
(538,555,c),
(508,541,l),
(572,656,l),
(569,626,l),
(512,682,o),
(433,710,o),
(353,710,cs),
(188,710,o),
(25,594,o),
(25,349,cs),
(25,125,o),
(164,-10,o),
(317,-10,cs),
(377,-10,o),
(453,11,o),
(496,115,c),
(528,112,l),
(503,136,l),
(500,41,o),
(526,-10,o),
(597,-10,cs),
(627,-10,o),
(648,-1,o),
(667,12,c),
(660,-33,l)
);
}
);
width = 674;
}
);
metricLeft = O;
},
{
export = 0;
glyphname = K.001;
layers = (
{
background = {
shapes = (
{
closed = 1;
nodes = (
(189,0,l),
(189,700,l),
(102,700,l),
(102,0,l)
);
},
{
closed = 1;
nodes = (
(601,0,l),
(260,366,l),
(261,322,l),
(576,700,l),
(486,700,l),
(187,345,l),
(187,332,l),
(499,0,l)
);
}
);
};
layerId = m009;
shapes = (
{
closed = 1;
nodes = (
(189,0,l),
(189,700,l),
(102,700,l),
(102,0,l)
);
},
{
closed = 1;
nodes = (
(601,0,l),
(260,366,l),
(261,322,l),
(576,700,l),
(486,700,l),
(187,345,l),
(187,332,l),
(499,0,l)
);
}
);
width = 611;
},
{
background = {
shapes = (
{
closed = 1;
nodes = (
(179,0,l),
(179,700,l),
(92,700,l),
(92,0,l)
);
},
{
closed = 1;
nodes = (
(591,0,l),
(250,366,l),
(251,322,l),
(566,700,l),
(476,700,l),
(177,345,l),
(177,332,l),
(489,0,l)
);
}
);
};
layerId = m002;
shapes = (
{
closed = 1;
nodes = (
(179,0,l),
(179,700,l),
(92,700,l),
(92,0,l)
);
},
{
closed = 1;
nodes = (
(591,0,l),
(250,366,l),
(251,322,l),
(566,700,l),
(476,700,l),
(177,345,l),
(177,332,l),
(489,0,l)
);
}
);
width = 601;
},
{
background = {
shapes = (
{
closed = 1;
nodes = (
(136,0,l),
(136,700,l),
(49,700,l),
(49,0,l)
);
},
{
closed = 1;
nodes = (
(548,0,l),
(207,366,l),
(208,322,l),
(523,700,l),
(433,700,l),
(134,345,l),
(134,332,l),
(446,0,l)
);
}
);
};
layerId = m003;
shapes = (
{
closed = 1;
nodes = (
(136,0,l),
(136,700,l),
(49,700,l),
(49,0,l)
);
},
{
closed = 1;
nodes = (
(548,0,l),
(207,366,l),
(208,322,l),
(523,700,l),
(433,700,l),
(134,345,l),
(134,332,l),
(446,0,l)
);
}
);
width = 558;
}
);
metricLeft = H;
},
{
export = 0;
glyphname = M.001;
layers = (
{
background = {
shapes = (
{
pos = (18,0);
ref = H;
}
);
};
layerId = m009;
shapes = (
{
closed = 1;
nodes = (
(185,0,l),
(185,377,ls),
(185,521,o),
(175,569,o),
(163,587,c),
(134,564,l),
(182,586,l),
(172,589,l),
(419,0,l),
(475,0,l),
(724,590,l),
(712,588,l),
(729,582,l),
(721,556,o),
(713,506,o),
(713,377,cs),
(713,0,l),
(797,0,l),
(797,700,l),
(667,700,l),
(703,731,l),
(472,176,ls),
(455,136,o),
(452,119,o),
(451,110,c),
(445,110,l),
(444,118,o),
(443,132,o),
(424,177,cs),
(192,731,l),
(232,700,l),
(102,700,l),
(102,0,l)
);
}
);
width = 899;
},
{
background = {
shapes = (
{
pos = (8,0);
ref = H;
}
);
};
layerId = m002;
shapes = (
{
closed = 1;
nodes = (
(175,0,l),
(175,377,ls),
(175,521,o),
(165,569,o),
(153,587,c),
(124,564,l),
(172,586,l),
(162,589,l),
(409,0,l),
(465,0,l),
(714,590,l),
(702,588,l),
(719,582,l),
(711,556,o),
(703,506,o),
(703,377,cs),
(703,0,l),
(787,0,l),
(787,700,l),
(657,700,l),
(693,731,l),
(462,176,ls),
(445,136,o),
(442,119,o),
(441,110,c),
(435,110,l),
(434,118,o),
(433,132,o),
(414,177,cs),
(182,731,l),
(222,700,l),
(92,700,l),
(92,0,l)
);
}
);
width = 879;
},
{
background = {
shapes = (
{
pos = (-35,0);
ref = H;
}
);
};
layerId = m003;
shapes = (
{
closed = 1;
nodes = (
(132,0,l),
(132,377,ls),
(132,521,o),
(122,569,o),
(110,587,c),
(81,564,l),
(129,586,l),
(119,589,l),
(366,0,l),
(422,0,l),
(671,590,l),
(659,588,l),
(676,582,l),
(668,556,o),
(660,506,o),
(660,377,cs),
(660,0,l),
(744,0,l),
(744,700,l),
(614,700,l),
(650,731,l),
(419,176,ls),
(402,136,o),
(399,119,o),
(398,110,c),
(392,110,l),
(391,118,o),
(390,132,o),
(371,177,cs),
(139,731,l),
(179,700,l),
(49,700,l),
(49,0,l)
);
}
);
width = 793;
}
);
metricLeft = H;
metricRight = H;
},
{
export = 0;
glyphname = O.001;
layers = (
{
anchors = (
{
name = tail_Q;
pos = (396,41);
}
);
background = {
shapes = (
{
pos = (44,0);
ref = H;
}
);
};
layerId = m009;
shapes = (
{
closed = 1;
nodes = (
(553,-10,o),
(693,118,o),
(693,350,cs),
(693,583,o),
(553,710,o),
(372,710,cs),
(189,710,o),
(50,575,o),
(50,350,cs),
(50,124,o),
(188,-10,o),
(371,-10,cs)
);
},
{
closed = 1;
nodes = (
(247,76,o),
(139,164,o),
(139,350,cs),
(139,536,o),
(242,624,o),
(372,624,cs),
(500,624,o),
(603,537,o),
(603,350,cs),
(603,155,o),
(500,76,o),
(373,76,cs)
);
}
);
width = 743;
},
{
anchors = (
{
name = tail_Q;
pos = (396,41);
}
);
background = {
shapes = (
{
pos = (44,0);
ref = H;
}
);
};
layerId = m002;
shapes = (
{
closed = 1;
nodes = (
(553,-10,o),
(693,118,o),
(693,350,cs),
(693,583,o),
(553,710,o),
(372,710,cs),
(189,710,o),
(50,575,o),
(50,350,cs),
(50,124,o),
(188,-10,o),
(371,-10,cs)
);
},
{
closed = 1;
nodes = (
(247,76,o),
(139,164,o),
(139,350,cs),
(139,536,o),
(242,624,o),
(372,624,cs),
(500,624,o),
(603,537,o),
(603,350,cs),
(603,155,o),
(500,76,o),
(373,76,cs)
);
}
);
width = 743;
},
{
anchors = (
{
name = tail_Q;
pos = (396,41);
}
);
background = {
shapes = (
{
pos = (44,0);
ref = H;
}
);
};
layerId = m003;
shapes = (
{
closed = 1;
nodes = (
(553,-10,o),
(693,118,o),
(693,350,cs),
(693,583,o),
(553,710,o),
(372,710,cs),
(189,710,o),
(50,575,o),
(50,350,cs),
(50,124,o),
(188,-10,o),
(371,-10,cs)
);
},
{
closed = 1;
nodes = (
(247,76,o),
(139,164,o),
(139,350,cs),
(139,536,o),
(242,624,o),
(372,624,cs),
(500,624,o),
(603,537,o),
(603,350,cs),
(603,155,o),
(500,76,o),
(373,76,cs)
);
}
);
width = 743;
}
);
metricRight = "=|";
},
{
export = 0;
glyphname = R.001;
layers = (
{
background = {
shapes = (
{
closed = 1;
nodes = (
(329,315,ls),
(465,315,o),
(542,392,o),
(542,505,cs),
(542,622,o),
(466,700,o),
(329,700,cs),
(154,700,l),
(154,627,l),
(329,627,ls),
(421,627,o),
(455,586,o),
(455,506,cs),
(455,432,o),
(417,388,o),
(329,388,cs),
(154,388,l),
(154,315,l)
);
},
{
closed = 1;
nodes = (
(580,0,l),
(503,231,ls),
(472,324,o),
(441,347,o),
(355,347,cs),
(284,347,l),
(284,315,l),
(306,315,ls),
(365,315,o),
(394,286,o),
(419,209,cs),
(486,0,l)
);
},
{
closed = 1;
nodes = (
(189,0,l),
(189,700,l),
(102,700,l),
(102,0,l)
);
}
);
};
layerId = m009;
shapes = (
{
closed = 1;
nodes = (
(329,315,ls),
(465,315,o),
(541,392,o),
(541,506,cs),
(541,622,o),
(466,700,o),
(329,700,cs),
(154,700,l),
(154,627,l),
(329,627,ls),
(421,627,o),
(456,586,o),
(456,507,cs),
(456,432,o),
(417,388,o),
(329,388,cs),
(154,388,l),
(154,315,l)
);
},
{
closed = 1;
nodes = (
(189,0,l),
(189,700,l),
(102,700,l),
(102,0,l)
);
},
{
closed = 1;
nodes = (
(578,0,l),
(409,351,l),
(324,351,l),
(488,0,l)
);
}
);
width = 591;
},
{
background = {
shapes = (
{
closed = 1;
nodes = (
(319,315,ls),
(455,315,o),
(532,392,o),
(532,505,cs),
(532,622,o),
(456,700,o),
(319,700,cs),
(144,700,l),
(144,627,l),
(319,627,ls),
(411,627,o),
(445,586,o),
(445,506,cs),
(445,432,o),
(407,388,o),
(319,388,cs),
(144,388,l),
(144,315,l)
);
},
{
closed = 1;
nodes = (
(570,0,l),
(493,231,ls),
(462,324,o),
(431,347,o),
(345,347,cs),
(274,347,l),
(274,315,l),
(296,315,ls),
(355,315,o),
(384,286,o),
(409,209,cs),
(476,0,l)
);
},
{
closed = 1;
nodes = (
(179,0,l),
(179,700,l),
(92,700,l),
(92,0,l)
);
}
);
};
layerId = m002;
shapes = (
{
closed = 1;
nodes = (
(319,315,ls),
(455,315,o),
(531,392,o),
(531,506,cs),
(531,622,o),
(456,700,o),
(319,700,cs),
(144,700,l),
(144,627,l),
(319,627,ls),
(411,627,o),
(446,586,o),
(446,507,cs),
(446,432,o),
(407,388,o),
(319,388,cs),
(144,388,l),
(144,315,l)
);
},
{
closed = 1;
nodes = (
(179,0,l),
(179,700,l),
(92,700,l),
(92,0,l)
);
},
{
closed = 1;
nodes = (
(568,0,l),
(399,351,l),
(314,351,l),
(478,0,l)
);
}
);
width = 581;
},
{
background = {
shapes = (
{
closed = 1;
nodes = (
(276,315,ls),
(412,315,o),
(489,392,o),
(489,505,cs),
(489,622,o),
(413,700,o),
(276,700,cs),
(101,700,l),
(101,627,l),
(276,627,ls),
(368,627,o),
(402,586,o),
(402,506,cs),
(402,432,o),
(364,388,o),
(276,388,cs),
(101,388,l),
(101,315,l)
);
},
{
closed = 1;
nodes = (
(527,0,l),
(450,231,ls),
(419,324,o),
(388,347,o),
(302,347,cs),
(231,347,l),
(231,315,l),
(253,315,ls),
(312,315,o),
(341,286,o),
(366,209,cs),
(433,0,l)
);
},
{
closed = 1;
nodes = (
(136,0,l),
(136,700,l),
(49,700,l),
(49,0,l)
);
}
);
};
layerId = m003;
shapes = (
{
closed = 1;
nodes = (
(276,315,ls),
(412,315,o),
(488,392,o),
(488,506,cs),
(488,622,o),
(413,700,o),
(276,700,cs),
(101,700,l),
(101,627,l),
(276,627,ls),
(368,627,o),
(403,586,o),
(403,507,cs),
(403,432,o),
(364,388,o),
(276,388,cs),
(101,388,l),
(101,315,l)
);
},
{
closed = 1;
nodes = (
(136,0,l),
(136,700,l),
(49,700,l),
(49,0,l)
);
},
{
closed = 1;
nodes = (
(525,0,l),
(356,351,l),
(271,351,l),
(435,0,l)
);
}
);
width = 538;
}
);
metricLeft = H;
},
{
export = 0;
glyphname = R.002;
layers = (
{
background = {
shapes = (
{
pos = (366,0);
ref = l;
}
);
};
layerId = m009;
shapes = (
{
closed = 1;
nodes = (
(585,-10,o),
(604,-2,o),
(629,19,c),
(620,-32,l),
(580,92,l),
(609,75,l),
(582,45,o),
(530,54,o),
(530,106,cs),
(530,234,ls),
(530,313,o),
(493,344,o),
(451,351,c),
(451,353,l),
(513,370,o),
(563,431,o),
(563,513,cs),
(563,623,o),
(474,700,o),
(327,700,cs),
(102,700,l),
(102,0,l),
(189,0,l),
(189,328,l),
(171,310,l),
(354,310,ls),
(417,310,o),
(445,280,o),
(445,223,cs),
(445,124,ls),
(445,28,o),
(487,-10,o),
(554,-10,cs)
);
},
{
closed = 1;
nodes = (
(189,645,l),
(171,627,l),
(327,627,ls),
(427,627,o),
(479,579,o),
(479,503,cs),
(479,428,o),
(430,380,o),
(350,380,cs),
(173,380,l),
(189,365,l)
);
}
);
width = 619;
},
{
background = {
shapes = (
{
pos = (356,0);
ref = l;
}
);
};
layerId = m002;
shapes = (
{
closed = 1;
nodes = (
(575,-10,o),
(594,-2,o),
(619,19,c),
(610,-32,l),
(570,92,l),
(599,75,l),
(572,45,o),
(520,54,o),
(520,106,cs),
(520,234,ls),
(520,313,o),
(483,344,o),
(441,351,c),
(441,353,l),
(503,370,o),
(553,431,o),
(553,513,cs),
(553,623,o),
(464,700,o),
(317,700,cs),
(92,700,l),
(92,0,l),
(179,0,l),
(179,328,l),
(161,310,l),
(344,310,ls),
(407,310,o),
(435,280,o),
(435,223,cs),
(435,124,ls),
(435,28,o),
(477,-10,o),
(544,-10,cs)
);
},
{
closed = 1;
nodes = (
(179,645,l),
(161,627,l),
(317,627,ls),
(417,627,o),
(469,579,o),
(469,503,cs),
(469,428,o),
(420,380,o),
(340,380,cs),
(163,380,l),
(179,365,l)
);
}
);
width = 609;
},
{
background = {
shapes = (
{
pos = (313,0);
ref = l;
}
);
};
layerId = m003;
shapes = (
{
closed = 1;
nodes = (
(532,-10,o),
(551,-2,o),
(576,19,c),
(567,-32,l),
(527,92,l),
(556,75,l),
(529,45,o),
(477,54,o),
(477,106,cs),
(477,234,ls),
(477,313,o),
(440,344,o),
(398,351,c),
(398,353,l),
(460,370,o),
(510,431,o),
(510,513,cs),
(510,623,o),
(421,700,o),
(274,700,cs),
(49,700,l),
(49,0,l),
(136,0,l),
(136,328,l),
(118,310,l),
(301,310,ls),
(364,310,o),
(392,280,o),
(392,223,cs),
(392,124,ls),
(392,28,o),
(434,-10,o),
(501,-10,cs)
);
},
{
closed = 1;
nodes = (
(136,645,l),
(118,627,l),
(274,627,ls),
(374,627,o),
(426,579,o),
(426,503,cs),
(426,428,o),
(377,380,o),
(297,380,cs),
(120,380,l),
(136,365,l)
);
}
);
width = 566;
}
);
metricLeft = H;
},
{
export = 0;
glyphname = R.003;
layers = (
{
background = {
shapes = (
{
pos = (27,0);
ref = P;
}
);
};
layerId = m009;
shapes = (
{
closed = 1;
nodes = (
(189,0,l),
(189,328,l),
(171,310,l),
(321,310,ls),
(402,310,o),
(429,291,o),
(454,204,cs),
(513,0,l),
(604,0,l),
(528,255,ls),
(513,304,o),
(494,335,o),
(458,351,c),
(458,353,l),
(527,374,o),
(569,435,o),
(569,513,cs),
(569,627,o),
(480,700,o),
(333,700,cs),
(102,700,l),
(102,0,l)
);
},
{
closed = 1;
nodes = (
(189,648,l),
(171,630,l),
(333,630,ls),
(433,630,o),
(485,578,o),
(485,504,cs),
(485,432,o),
(436,377,o),
(356,377,cs),
(173,377,l),
(189,362,l)
);
}
);
width = 614;
},
{
background = {
shapes = (
{
pos = (17,0);
ref = P;
}
);
};
layerId = m002;
shapes = (
{
closed = 1;
nodes = (
(179,0,l),
(179,328,l),
(161,310,l),
(311,310,ls),
(392,310,o),
(419,291,o),
(444,204,cs),
(503,0,l),
(594,0,l),
(518,255,ls),
(503,304,o),
(484,335,o),
(448,351,c),
(448,353,l),
(517,374,o),
(559,435,o),
(559,513,cs),
(559,627,o),
(470,700,o),
(323,700,cs),
(92,700,l),
(92,0,l)
);
},
{
closed = 1;
nodes = (
(179,648,l),
(161,630,l),
(323,630,ls),
(423,630,o),
(475,578,o),
(475,504,cs),
(475,432,o),
(426,377,o),
(346,377,cs),
(163,377,l),
(179,362,l)
);
}
);
width = 604;
},
{
background = {
shapes = (
{
pos = (-26,0);
ref = P;
}
);
};
layerId = m003;
shapes = (
{
closed = 1;
nodes = (
(136,0,l),
(136,328,l),
(118,310,l),
(268,310,ls),
(349,310,o),
(376,291,o),
(401,204,cs),
(460,0,l),
(551,0,l),
(475,255,ls),
(460,304,o),
(441,335,o),
(405,351,c),
(405,353,l),
(474,374,o),
(516,435,o),
(516,513,cs),
(516,627,o),
(427,700,o),
(280,700,cs),
(49,700,l),
(49,0,l)
);
},
{
closed = 1;
nodes = (
(136,648,l),
(118,630,l),
(280,630,ls),
(380,630,o),
(432,578,o),
(432,504,cs),
(432,432,o),
(383,377,o),
(303,377,cs),
(120,377,l),
(136,362,l)
);
}
);
width = 561;
}
);
metricLeft = H;
},
{
export = 0;
glyphname = R.004;
layers = (
{
background = {
shapes = (
{
pos = (366,0);
ref = l;
}
);
};
layerId = m009;
shapes = (
{
closed = 1;
nodes = (
(585,-10,o),
(604,-2,o),
(629,19,c),
(620,-32,l),
(580,92,l),
(609,75,l),
(582,45,o),
(530,54,o),
(530,106,cs),
(530,234,ls),
(530,313,o),
(493,344,o),
(451,351,c),
(451,353,l),
(513,370,o),
(563,431,o),
(563,513,cs),
(563,623,o),
(474,700,o),
(327,700,cs),
(102,700,l),
(102,0,l),
(189,0,l),
(189,328,l),
(171,310,l),
(354,310,ls),
(417,310,o),
(445,280,o),
(445,223,cs),
(445,124,ls),
(445,28,o),
(487,-10,o),
(554,-10,cs)
);
},
{
closed = 1;
nodes = (
(189,645,l),
(171,627,l),
(327,627,ls),
(427,627,o),
(479,579,o),
(479,503,cs),
(479,428,o),
(430,380,o),
(350,380,cs),
(173,380,l),
(189,365,l)
);
}
);
width = 619;
},
{
background = {
shapes = (
{
pos = (356,0);
ref = l;
}
);
};
layerId = m002;
shapes = (
{
closed = 1;
nodes = (
(575,-10,o),
(594,-2,o),
(619,19,c),
(610,-32,l),
(570,92,l),
(599,75,l),
(572,45,o),
(520,54,o),
(520,106,cs),
(520,234,ls),
(520,313,o),
(483,344,o),
(441,351,c),
(441,353,l),
(503,370,o),
(553,431,o),
(553,513,cs),
(553,623,o),
(464,700,o),
(317,700,cs),
(92,700,l),
(92,0,l),
(179,0,l),
(179,328,l),
(161,310,l),
(344,310,ls),
(407,310,o),
(435,280,o),
(435,223,cs),
(435,124,ls),
(435,28,o),
(477,-10,o),
(544,-10,cs)
);
},
{
closed = 1;
nodes = (
(179,645,l),
(161,627,l),
(317,627,ls),
(417,627,o),
(469,579,o),
(469,503,cs),
(469,428,o),
(420,380,o),
(340,380,cs),
(163,380,l),
(179,365,l)
);
}
);
width = 609;
},
{
background = {
shapes = (
{
pos = (313,0);
ref = l;
}
);
};
layerId = m003;
shapes = (
{
closed = 1;
nodes = (
(532,-10,o),
(551,-2,o),
(576,19,c),
(567,-32,l),
(527,92,l),
(556,75,l),
(529,45,o),
(477,54,o),
(477,106,cs),
(477,234,ls),
(477,313,o),
(440,344,o),
(398,351,c),
(398,353,l),
(460,370,o),
(510,431,o),
(510,513,cs),
(510,623,o),
(421,700,o),
(274,700,cs),
(49,700,l),
(49,0,l),
(136,0,l),
(136,328,l),
(118,310,l),
(301,310,ls),
(364,310,o),
(392,280,o),
(392,223,cs),
(392,124,ls),
(392,28,o),
(434,-10,o),
(501,-10,cs)
);
},
{
closed = 1;
nodes = (
(136,645,l),
(118,627,l),
(274,627,ls),
(374,627,o),
(426,579,o),
(426,503,cs),
(426,428,o),
(377,380,o),
(297,380,cs),
(120,380,l),
(136,365,l)
);
}
);
width = 566;
}
);
metricLeft = H;
},
{
export = 0;
glyphname = R.005;
layers = (
{
background = {
shapes = (
{
pos = (27,0);
ref = B;
}
);
};
layerId = m009;
shapes = (
{
closed = 1;
nodes = (
(607,68,l),
(622,61,l),
(583,46,o),
(564,59,o),
(555,97,cs),
(519,248,ls),
(508,295,o),
(493,331,o),
(443,341,c),
(442,346,l),
(513,369,o),
(551,431,o),
(551,516,cs),
(551,634,o),
(462,700,o),
(335,700,cs),
(102,700,l),
(102,0,l),
(189,0,l),
(189,333,l),
(164,308,l),
(306,308,ls),
(391,308,o),
(421,287,o),
(442,198,cs),
(471,77,ls),
(486,15,o),
(514,-10,o),
(574,-10,cs),
(591,-10,o),
(615,-7,o),
(633,3,c),
(631,-12,l)
);
},
{
closed = 1;
nodes = (
(189,640,l),
(170,622,l),
(337,622,ls),
(431,622,o),
(464,571,o),
(464,511,cs),
(464,428,o),
(416,384,o),
(318,384,cs),
(172,384,l),
(189,356,l)
);
}
);
width = 649;
},
{
background = {
shapes = (
{
pos = (17,0);
ref = B;
}
);
};
layerId = m002;
shapes = (
{
closed = 1;
nodes = (
(597,68,l),
(612,61,l),
(573,46,o),
(554,59,o),
(545,97,cs),
(509,248,ls),
(498,295,o),
(483,331,o),
(433,341,c),
(432,346,l),
(503,369,o),
(541,431,o),
(541,516,cs),
(541,634,o),
(452,700,o),
(325,700,cs),
(92,700,l),
(92,0,l),
(179,0,l),
(179,333,l),
(154,308,l),
(296,308,ls),
(381,308,o),
(411,287,o),
(432,198,cs),
(461,77,ls),
(476,15,o),
(504,-10,o),
(564,-10,cs),
(581,-10,o),
(605,-7,o),
(623,3,c),
(621,-12,l)
);
},
{
closed = 1;
nodes = (
(179,640,l),
(160,622,l),
(327,622,ls),
(421,622,o),
(454,571,o),
(454,511,cs),
(454,428,o),
(406,384,o),
(308,384,cs),
(162,384,l),
(179,356,l)
);
}
);
width = 639;
},
{
background = {
shapes = (
{
pos = (-26,0);
ref = B;
}
);
};
layerId = m003;
shapes = (
{
closed = 1;
nodes = (
(554,68,l),
(569,61,l),
(530,46,o),
(511,59,o),
(502,97,cs),
(466,248,ls),
(455,295,o),
(440,331,o),
(390,341,c),
(389,346,l),
(460,369,o),
(498,431,o),
(498,516,cs),
(498,634,o),
(409,700,o),
(282,700,cs),
(49,700,l),
(49,0,l),
(136,0,l),
(136,333,l),
(111,308,l),
(253,308,ls),
(338,308,o),
(368,287,o),
(389,198,cs),
(418,77,ls),
(433,15,o),
(461,-10,o),
(521,-10,cs),
(538,-10,o),
(562,-7,o),
(580,3,c),
(578,-12,l)
);
},
{
closed = 1;
nodes = (
(136,640,l),
(117,622,l),
(284,622,ls),
(378,622,o),
(411,571,o),
(411,511,cs),
(411,428,o),
(363,384,o),
(265,384,cs),
(119,384,l),
(136,356,l)
);
}
);
width = 596;
}
);
metricLeft = H;
},
{
export = 0;
glyphname = R.006;
layers = (
{
background = {
shapes = (
{
pos = (27,0);
ref = B;
}
);
};
layerId = m009;
shapes = (
{
closed = 1;
nodes = (
(189,0,l),
(189,333,l),
(164,308,l),
(304,308,ls),
(389,308,o),
(429,287,o),
(451,207,cs),
(508,0,l),
(598,0,l),
(532,238,ls),
(516,295,o),
(491,329,o),
(441,339,c),
(441,344,l),
(513,369,o),
(551,431,o),
(551,516,cs),
(551,631,o),
(462,700,o),
(335,700,cs),
(102,700,l),
(102,0,l)
);
},
{
closed = 1;
nodes = (
(189,640,l),
(170,622,l),
(337,622,ls),
(431,622,o),
(464,571,o),
(464,511,cs),
(464,428,o),
(416,384,o),
(318,384,cs),
(172,384,l),
(189,356,l)
);
}
);
width = 620;
},
{
background = {
shapes = (
{
pos = (17,0);
ref = B;
}
);
};
layerId = m002;
shapes = (
{
closed = 1;
nodes = (
(179,0,l),
(179,333,l),
(154,308,l),
(294,308,ls),
(379,308,o),
(419,287,o),
(441,207,cs),
(498,0,l),
(588,0,l),
(522,238,ls),
(506,295,o),
(481,329,o),
(431,339,c),
(431,344,l),
(503,369,o),
(541,431,o),
(541,516,cs),
(541,631,o),
(452,700,o),
(325,700,cs),
(92,700,l),
(92,0,l)
);
},
{
closed = 1;
nodes = (
(179,640,l),
(160,622,l),
(327,622,ls),
(421,622,o),
(454,571,o),
(454,511,cs),
(454,428,o),
(406,384,o),
(308,384,cs),
(162,384,l),
(179,356,l)
);
}
);
width = 610;
},
{
background = {
shapes = (
{
pos = (-26,0);
ref = B;
}
);
};
layerId = m003;
shapes = (
{
closed = 1;
nodes = (
(136,0,l),
(136,333,l),
(111,308,l),
(251,308,ls),
(336,308,o),
(376,287,o),
(398,207,cs),
(455,0,l),
(545,0,l),
(479,238,ls),
(463,295,o),
(438,329,o),
(388,339,c),
(388,344,l),
(460,369,o),
(498,431,o),
(498,516,cs),
(498,631,o),
(409,700,o),
(282,700,cs),
(49,700,l),
(49,0,l)
);
},
{
closed = 1;
nodes = (
(136,640,l),
(117,622,l),
(284,622,ls),
(378,622,o),
(411,571,o),
(411,511,cs),
(411,428,o),
(363,384,o),
(265,384,cs),
(119,384,l),
(136,356,l)
);
}
);
width = 567;
}
);
metricLeft = H;
},
{
export = 0;
glyphname = S.002;
layers = (
{
anchors = (
{
name = bar_ver;
pos = (267,359);
}
);
layerId = m009;
shapes = (
{
closed = 1;
nodes = (
(394,-10,o),
(489,66,o),
(489,186,cs),
(489,304,o),
(397,354,o),
(291,397,cs),
(208,431,o),
(130,458,o),
(130,532,cs),
(130,593,o),
(182,633,o),
(263,633,cs),
(330,633,o),
(401,605,o),
(457,556,c),
(419,539,l),
(483,674,l),
(486,623,l),
(429,679,o),
(351,710,o),
(268,710,cs),
(138,710,o),
(48,632,o),
(48,522,cs),
(48,417,o),
(130,368,o),
(252,318,cs),
(345,280,o),
(404,250,o),
(404,176,cs),
(404,105,o),
(349,67,o),
(245,67,cs),
(168,67,o),
(113,87,o),
(36,142,c),
(75,160,l),
(15,25,l),
(15,64,l),
(74,16,o),
(154,-10,o),
(244,-10,cs)
);
}
);
width = 521;
},
{
anchors = (
{
name = bar_ver;
pos = (267,359);
}
);
layerId = m002;
shapes = (
{
closed = 1;
nodes = (
(394,-10,o),
(489,66,o),
(489,186,cs),
(489,304,o),
(397,354,o),
(291,397,cs),
(208,431,o),
(130,458,o),
(130,532,cs),
(130,593,o),
(182,633,o),
(263,633,cs),
(330,633,o),
(401,605,o),
(457,556,c),
(419,539,l),
(483,674,l),
(486,623,l),
(429,679,o),
(351,710,o),
(268,710,cs),
(138,710,o),
(48,632,o),
(48,522,cs),
(48,417,o),
(130,368,o),
(252,318,cs),
(345,280,o),
(404,250,o),
(404,176,cs),
(404,105,o),
(349,67,o),
(245,67,cs),
(168,67,o),
(113,87,o),
(36,142,c),
(75,160,l),
(15,25,l),
(15,64,l),
(74,16,o),
(154,-10,o),
(244,-10,cs)
);
}
);
width = 521;
},
{
anchors = (
{
name = bar_ver;
pos = (267,359);
}
);
layerId = m003;
shapes = (
{
closed = 1;
nodes = (
(394,-10,o),
(489,66,o),
(489,186,cs),
(489,304,o),
(397,354,o),
(291,397,cs),
(208,431,o),
(130,458,o),
(130,532,cs),
(130,593,o),
(182,633,o),
(263,633,cs),
(330,633,o),
(401,605,o),
(457,556,c),
(419,539,l),
(483,674,l),
(486,623,l),
(429,679,o),
(351,710,o),
(268,710,cs),
(138,710,o),
(48,632,o),
(48,522,cs),
(48,417,o),
(130,368,o),
(252,318,cs),
(345,280,o),
(404,250,o),
(404,176,cs),
(404,105,o),
(349,67,o),
(245,67,cs),
(168,67,o),
(113,87,o),
(36,142,c),
(75,160,l),
(15,25,l),
(15,64,l),
(74,16,o),
(154,-10,o),
(244,-10,cs)
);
}
);
width = 521;
}
);
},
{
export = 0;
glyphname = X.001;
layers = (
{
background = {
shapes = (
{
pos = (-109,0);
ref = O;
}
);
};
layerId = m009;
shapes = (
{
closed = 1;
nodes = (
(70,0,l),
(281,327,l),
(305,357,l),
(530,700,l),
(441,700,l),
(259,414,l),
(235,386,l),
(-26,0,l)
);
},
{
closed = 1;
nodes = (
(551,0,l),
(304,381,l),
(257,320,l),
(458,0,l)
);
},
{
closed = 1;
nodes = (
(274,415,l),
(100,700,l),
(9,700,l),
(233,353,l)
);
}
);
width = 557;
},
{
background = {
shapes = (
{
pos = (-109,0);
ref = O;
}
);
};
layerId = m002;
shapes = (
{
closed = 1;
nodes = (
(70,0,l),
(281,327,l),
(305,357,l),
(530,700,l),
(441,700,l),
(259,414,l),
(235,386,l),
(-26,0,l)
);
},
{
closed = 1;
nodes = (
(551,0,l),
(304,381,l),
(257,320,l),
(458,0,l)
);
},
{
closed = 1;
nodes = (
(274,415,l),
(100,700,l),
(9,700,l),
(233,353,l)
);
}
);
width = 557;
},
{
background = {
shapes = (
{
pos = (-109,0);
ref = O;
}
);
};
layerId = m003;
shapes = (
{
closed = 1;
nodes = (
(70,0,l),
(281,327,l),
(305,357,l),
(530,700,l),
(441,700,l),
(259,414,l),
(235,386,l),
(-26,0,l)
);
},
{
closed = 1;
nodes = (
(551,0,l),
(304,381,l),
(257,320,l),
(458,0,l)
);
},
{
closed = 1;
nodes = (
(274,415,l),
(100,700,l),
(9,700,l),
(233,353,l)
);
}
);
width = 557;
}
);
},
{
export = 0;
glyphname = K.ss01.001;
layers = (
{
background = {
shapes = (
{
closed = 1;
nodes = (
(601,0,l),
(268,369,l),
(275,325,l),
(581,700,l),
(486,700,l),
(187,345,l),
(187,332,l),
(499,0,l)
);
},
{
closed = 1;
nodes = (
(189,0,l),
(189,700,l),
(102,700,l),
(102,0,l)
);
},
{
closed = 1;
nodes = (
(602,-800,l),
(259,-416,l),
(259,-446,l),
(581,-100,l),
(482,-100,l),
(184,-424,l),
(183,-443,l),
(502,-800,l)
);
},
{
closed = 1;
nodes = (
(189,-800,l),
(189,-100,l),
(102,-100,l),
(102,-800,l)
);
}
);
};
layerId = m009;
shapes = (
{
closed = 1;
nodes = (
(189,0,l),
(189,283,l),
(168,200,l),
(305,365,l),
(333,395,l),
(596,700,l),
(487,700,l),
(158,314,l),
(215,315,l),
(152,365,l),
(159,323,l),
(180,348,o),
(189,352,o),
(189,420,cs),
(189,700,l),
(102,700,l),
(102,0,l)
);
},
{
closed = 1;
nodes = (
(609,0,l),
(338,434,l),
(284,360,l),
(508,0,l)
);
}
);
width = 611;
},
{
background = {
shapes = (
{
closed = 1;
nodes = (
(591,0,l),
(258,369,l),
(265,325,l),
(571,700,l),
(476,700,l),
(177,345,l),
(177,332,l),
(489,0,l)
);
},
{
closed = 1;
nodes = (
(179,0,l),
(179,700,l),
(92,700,l),
(92,0,l)
);
},
{
closed = 1;
nodes = (
(592,-800,l),
(249,-416,l),
(249,-446,l),
(571,-100,l),
(472,-100,l),
(174,-424,l),
(173,-443,l),
(492,-800,l)
);
},
{
closed = 1;
nodes = (
(179,-800,l),
(179,-100,l),
(92,-100,l),
(92,-800,l)
);
}
);
};
layerId = m002;
shapes = (
{
closed = 1;
nodes = (
(179,0,l),
(179,283,l),
(158,200,l),
(295,365,l),
(323,395,l),
(586,700,l),
(477,700,l),
(148,314,l),
(205,315,l),
(142,365,l),
(149,323,l),
(170,348,o),
(179,352,o),
(179,420,cs),
(179,700,l),
(92,700,l),
(92,0,l)
);
},
{
closed = 1;
nodes = (
(599,0,l),
(328,434,l),
(274,360,l),
(498,0,l)
);
}
);
width = 601;
},
{
background = {
shapes = (
{
closed = 1;
nodes = (
(548,0,l),
(215,369,l),
(222,325,l),
(528,700,l),
(433,700,l),
(134,345,l),
(134,332,l),
(446,0,l)
);
},
{
closed = 1;
nodes = (
(136,0,l),
(136,700,l),
(49,700,l),
(49,0,l)
);
},
{
closed = 1;
nodes = (
(549,-800,l),
(206,-416,l),
(206,-446,l),
(528,-100,l),
(429,-100,l),
(131,-424,l),
(130,-443,l),
(449,-800,l)
);
},
{
closed = 1;
nodes = (
(136,-800,l),
(136,-100,l),
(49,-100,l),
(49,-800,l)
);
}
);
};
layerId = m003;
shapes = (
{
closed = 1;
nodes = (
(136,0,l),
(136,283,l),
(115,200,l),
(252,365,l),
(280,395,l),
(543,700,l),
(434,700,l),
(105,314,l),
(162,315,l),
(99,365,l),
(106,323,l),
(127,348,o),
(136,352,o),
(136,420,cs),
(136,700,l),
(49,700,l),
(49,0,l)
);
},
{
closed = 1;
nodes = (
(556,0,l),
(285,434,l),
(231,360,l),
(455,0,l)
);
}
);
width = 558;
}
);
metricLeft = H;
},
{
color = 4;
glyphname = a;
layers = (
{
anchors = (
{
name = bottom;
pos = (217,0);
},
{
name = ogonek;
pos = (486,0);
},
{
name = top;
pos = (210,545);
}
);
background = {
shapes = (
{
closed = 1;
nodes = (
(455,123,l),
(505,71,l),
(444,36,o),
(420,61,o),
(420,131,cs),
(420,338,ls),
(420,473,o),
(357,555,o),
(216,555,cs),
(150,555,o),
(75,536,o),
(7,489,c),
(18,541,l),
(76,404,l),
(23,415,l),
(92,461,o),
(151,481,o),
(207,481,cs),
(295,481,o),
(335,426,o),
(335,336,cs),
(335,123,l),
(341,113,l),
(341,44,o),
(366,-10,o),
(439,-10,cs),
(469,-10,o),
(490,-1,o),
(509,12,c),
(502,-33,l)
);
},
{
closed = 1;
nodes = (
(245,-10,o),
(306,29,o),
(334,90,c),
(347,89,l),
(350,191,l),
(335,191,l),
(335,129,o),
(274,65,o),
(182,65,cs),
(128,65,o),
(94,103,o),
(94,157,cs),
(94,226,o),
(151,252,o),
(214,252,cs),
(266,252,o),
(317,237,o),
(352,222,c),
(365,293,l),
(302,313,o),
(250,322,o),
(201,322,cs),
(88,322,o),
(8,262,o),
(8,154,cs),
(8,54,o),
(77,-10,o),
(167,-10,cs)
);
},
{
closed = 1;
nodes = (
(477,-817,o),
(458,-787,o),
(458,-754,cs),
(458,-564,ls),
(458,-418,o),
(366,-345,o),
(205,-345,cs),
(112,-345,o),
(24,-369,o),
(-50,-418,c),
(-38,-355,l),
(32,-523,l),
(-11,-520,l),
(57,-479,o),
(122,-460,o),
(183,-460,cs),
(254,-460,o),
(312,-486,o),
(312,-561,cs),
(312,-723,l),
(332,-772,l),
(332,-861,o),
(381,-910,o),
(458,-910,cs),
(497,-910,o),
(537,-898,o),
(572,-879,c),
(567,-954,l),
(509,-740,l),
(554,-784,l)
);
},
{
closed = 1;
nodes = (
(258,-910,o),
(339,-839,o),
(366,-722,c),
(312,-661,l),
(305,-743,o),
(252,-796,o),
(177,-796,cs),
(131,-796,o),
(105,-776,o),
(105,-737,cs),
(105,-688,o),
(145,-662,o),
(215,-662,cs),
(252,-662,o),
(292,-669,o),
(330,-680,c),
(340,-591,l),
(299,-576,o),
(243,-565,o),
(188,-565,cs),
(52,-565,o),
(-37,-633,o),
(-37,-746,cs),
(-37,-848,o),
(37,-910,o),
(144,-910,cs)
);
}
);
};
layerId = m009;
shapes = (
{
closed = 1;
nodes = (
(444,-10,o),
(456,-6,o),
(464,-2,c),
(462,-8,l),
(453,24,l),
(459,17,l),
(424,2,o),
(390,17,o),
(390,62,cs),
(390,373,ls),
(390,489,o),
(319,547,o),
(218,547,cs),
(170,547,o),
(115,534,o),
(58,494,c),
(61,507,l),
(82,471,l),
(67,471,l),
(123,511,o),
(171,522,o),
(215,522,cs),
(306,522,o),
(363,473,o),
(363,364,cs),
(363,257,l),
(364,70,ls),
(364,10,o),
(396,-10,o),
(428,-10,cs)
);
},
{
closed = 1;
nodes = (
(270,-10,o),
(334,38,o),
(362,116,c),
(372,116,l),
(370,205,l),
(363,205,l),
(352,88,o),
(290,17,o),
(197,17,cs),
(111,17,o),
(68,80,o),
(68,154,cs),
(68,247,o),
(137,292,o),
(222,292,cs),
(283,292,o),
(334,269,o),
(376,244,c),
(376,268,l),
(340,291,o),
(285,315,o),
(219,315,cs),
(118,315,o),
(40,259,o),
(40,153,cs),
(40,67,o),
(93,-10,o),
(192,-10,cs)
);
}
);
width = 478;
},
{
anchors = (
{
name = bottom;
pos = (254,0);
},
{
name = ogonek;
pos = (523,0);
},
{
name = top;
pos = (247,545);
}
);
background = {
shapes = (
{
closed = 1;
nodes = (
(492,123,l),
(542,71,l),
(481,36,o),
(457,61,o),
(457,131,cs),
(457,338,ls),
(457,473,o),
(394,555,o),
(253,555,cs),
(187,555,o),
(112,536,o),
(44,489,c),
(55,541,l),
(113,404,l),
(60,415,l),
(129,461,o),
(188,481,o),
(244,481,cs),
(332,481,o),
(372,426,o),
(372,336,cs),
(372,123,l),
(378,113,l),
(378,44,o),
(403,-10,o),
(476,-10,cs),
(506,-10,o),
(527,-1,o),
(546,12,c),
(539,-33,l)
);
},
{
closed = 1;
nodes = (
(282,-10,o),
(343,29,o),
(371,90,c),
(384,89,l),
(387,191,l),
(372,191,l),
(372,129,o),
(311,65,o),
(219,65,cs),
(165,65,o),
(131,103,o),
(131,157,cs),
(131,226,o),
(188,252,o),
(251,252,cs),
(303,252,o),
(354,237,o),
(389,222,c),
(402,293,l),
(339,313,o),
(287,322,o),
(238,322,cs),
(125,322,o),
(45,262,o),
(45,154,cs),
(45,54,o),
(114,-10,o),
(204,-10,cs)
);
},
{
closed = 1;
nodes = (
(514,-817,o),
(495,-787,o),
(495,-754,cs),
(495,-564,ls),
(495,-418,o),
(403,-345,o),
(242,-345,cs),
(149,-345,o),
(61,-369,o),
(-13,-418,c),
(-1,-355,l),
(69,-523,l),
(26,-520,l),
(94,-479,o),
(159,-460,o),
(220,-460,cs),
(291,-460,o),
(349,-486,o),
(349,-561,cs),
(349,-723,l),
(369,-772,l),
(369,-861,o),
(418,-910,o),
(495,-910,cs),
(534,-910,o),
(574,-898,o),
(609,-879,c),
(604,-954,l),
(546,-740,l),
(591,-784,l)
);
},
{
closed = 1;
nodes = (
(295,-910,o),
(376,-839,o),
(403,-722,c),
(349,-661,l),
(342,-743,o),
(289,-796,o),
(214,-796,cs),
(168,-796,o),
(142,-776,o),
(142,-737,cs),
(142,-688,o),
(182,-662,o),
(252,-662,cs),
(289,-662,o),
(329,-669,o),
(367,-680,c),
(377,-591,l),
(336,-576,o),
(280,-565,o),
(225,-565,cs),
(89,-565,o),
(0,-633,o),
(0,-746,cs),
(0,-848,o),
(74,-910,o),
(181,-910,cs)
);
}
);
};
layerId = m002;
shapes = (
{
closed = 1;
nodes = (
(503,-10,o),
(523,-3,o),
(540,8,c),
(536,-6,l),
(513,71,l),
(520,65,l),
(481,48,o),
(457,64,o),
(457,118,cs),
(457,338,ls),
(457,473,o),
(387,555,o),
(245,555,cs),
(181,555,o),
(119,538,o),
(44,496,c),
(48,526,l),
(93,427,l),
(79,433,l),
(131,460,o),
(183,479,o),
(242,479,cs),
(329,479,o),
(376,434,o),
(376,336,cs),
(376,270,l),
(378,113,l),
(378,44,o),
(403,-10,o),
(476,-10,cs)
);
},
{
closed = 1;
nodes = (
(280,-10,o),
(343,22,o),
(377,81,c),
(387,80,l),
(391,233,l),
(376,233,l),
(370,120,o),
(308,63,o),
(232,63,cs),
(175,63,o),
(131,94,o),
(131,156,cs),
(131,228,o),
(191,255,o),
(258,255,cs),
(306,255,o),
(352,242,o),
(389,224,c),
(402,286,l),
(349,312,o),
(294,324,o),
(244,324,cs),
(131,324,o),
(44,261,o),
(44,152,cs),
(44,54,o),
(114,-10,o),
(211,-10,cs)
);
}
);
width = 553;
},
{
anchors = (
{
name = bottom;
pos = (227,0);
},
{
name = ogonek;
pos = (496,0);
},
{
name = top;
pos = (220,545);
}
);
background = {
shapes = (
{
closed = 1;
nodes = (
(516,83,o),
(497,113,o),
(497,146,cs),
(497,336,ls),
(497,482,o),
(405,555,o),
(244,555,cs),
(151,555,o),
(63,531,o),
(-11,482,c),
(1,545,l),
(71,377,l),
(28,380,l),
(96,421,o),
(161,440,o),
(222,440,cs),
(293,440,o),
(351,414,o),
(351,339,cs),
(351,177,l),
(371,128,l),
(371,39,o),
(420,-10,o),
(497,-10,cs),
(536,-10,o),
(576,2,o),
(611,21,c),
(606,-54,l),
(548,160,l),
(593,116,l)
);
},
{
closed = 1;
nodes = (
(297,-10,o),
(378,61,o),
(405,178,c),
(351,239,l),
(344,157,o),
(291,104,o),
(216,104,cs),
(170,104,o),
(144,124,o),
(144,163,cs),
(144,212,o),
(184,238,o),
(254,238,cs),
(291,238,o),
(331,231,o),
(369,220,c),
(379,309,l),
(338,324,o),
(282,335,o),
(227,335,cs),
(91,335,o),
(2,267,o),
(2,154,cs),
(2,52,o),
(76,-10,o),
(183,-10,cs)
);
}
);
};
layerId = m003;
shapes = (
{
closed = 1;
nodes = (
(539,-10,o),
(579,2,o),
(614,21,c),
(596,-4,l),
(561,125,l),
(596,116,l),
(550,98,o),
(500,89,o),
(500,146,cs),
(500,342,ls),
(500,490,o),
(409,563,o),
(255,563,cs),
(178,563,o),
(104,546,o),
(24,500,c),
(28,521,l),
(83,389,l),
(67,392,l),
(133,430,o),
(182,445,o),
(234,445,cs),
(311,445,o),
(356,414,o),
(356,338,cs),
(356,280,l),
(374,128,l),
(374,39,o),
(423,-10,o),
(500,-10,cs)
);
},
{
closed = 1;
nodes = (
(290,-10,o),
(345,34,o),
(374,93,c),
(394,93,l),
(394,238,l),
(354,239,l),
(357,155,o),
(312,95,o),
(242,95,cs),
(195,95,o),
(165,123,o),
(165,167,cs),
(165,220,o),
(208,242,o),
(265,242,cs),
(300,242,o),
(337,234,o),
(372,224,c),
(382,309,l),
(349,322,o),
(305,335,o),
(246,335,cs),
(111,335,o),
(26,267,o),
(26,155,cs),
(26,52,o),
(98,-10,o),
(202,-10,cs)
);
}
);
width = 591;
},
{
anchors = (
{
name = bottom;
pos = (185,0);
},
{
name = ogonek;
pos = (454,0);
},
{
name = top;
pos = (178,545);
}
);
associatedMasterId = m009;
background = {
shapes = (
{
closed = 1;
nodes = (
(423,123,l),
(473,71,l),
(412,36,o),
(388,61,o),
(388,131,cs),
(388,338,ls),
(388,473,o),
(325,555,o),
(184,555,cs),
(118,555,o),
(43,536,o),
(-25,489,c),
(-14,541,l),
(44,404,l),
(-9,415,l),
(60,461,o),
(119,481,o),
(175,481,cs),
(263,481,o),
(303,426,o),
(303,336,cs),
(303,123,l),
(309,113,l),
(309,44,o),
(334,-10,o),
(407,-10,cs),
(437,-10,o),
(458,-1,o),
(477,12,c),
(470,-33,l)
);
},
{
closed = 1;
nodes = (
(213,-10,o),
(274,29,o),
(302,90,c),
(315,89,l),
(318,191,l),
(303,191,l),
(303,129,o),
(242,65,o),
(150,65,cs),
(96,65,o),
(62,103,o),
(62,157,cs),
(62,226,o),
(119,252,o),
(182,252,cs),
(234,252,o),
(285,237,o),
(320,222,c),
(333,293,l),
(270,313,o),
(218,322,o),
(169,322,cs),
(56,322,o),
(-24,262,o),
(-24,154,cs),
(-24,54,o),
(45,-10,o),
(135,-10,cs)
);
},
{
closed = 1;
nodes = (
(445,-817,o),
(426,-787,o),
(426,-754,cs),
(426,-564,ls),
(426,-418,o),
(334,-345,o),
(173,-345,cs),
(80,-345,o),
(-8,-369,o),
(-82,-418,c),
(-70,-355,l),
(0,-523,l),
(-43,-520,l),
(25,-479,o),
(90,-460,o),
(151,-460,cs),
(222,-460,o),
(280,-486,o),
(280,-561,cs),
(280,-723,l),
(300,-772,l),
(300,-861,o),
(349,-910,o),
(426,-910,cs),
(465,-910,o),
(505,-898,o),
(540,-879,c),
(535,-954,l),
(477,-740,l),
(522,-784,l)
);
},
{
closed = 1;
nodes = (
(226,-910,o),
(307,-839,o),
(334,-722,c),
(280,-661,l),
(273,-743,o),
(220,-796,o),
(145,-796,cs),
(99,-796,o),
(73,-776,o),
(73,-737,cs),
(73,-688,o),
(113,-662,o),
(183,-662,cs),
(220,-662,o),
(260,-669,o),
(298,-680,c),
(308,-591,l),
(267,-576,o),
(211,-565,o),
(156,-565,cs),
(20,-565,o),
(-69,-633,o),
(-69,-746,cs),
(-69,-848,o),
(5,-910,o),
(112,-910,cs)
);
}
);
};
layerId = "BFB4FD25-360C-4F85-9462-60887D1A122E";
name = "21 Jun 23 17.49";
shapes = (
{
closed = 1;
nodes = (
(356,-10,o),
(367,-7,o),
(375,-2,c),
(367,-10,l),
(360,19,l),
(369,16,l),
(354,10,o),
(333,7,o),
(333,40,cs),
(333,357,ls),
(333,479,o),
(275,533,o),
(199,535,cs),
(168,536,o),
(117,528,o),
(64,486,c),
(69,508,l),
(105,445,l),
(71,462,l),
(119,503,o),
(166,511,o),
(194,510,cs),
(254,509,o),
(307,469,o),
(307,355,cs),
(307,262,l),
(307,36,ls),
(307,3,o),
(326,-10,o),
(346,-10,cs)
);
},
{
closed = 1;
nodes = (
(209,-10,o),
(280,13,o),
(311,118,c),
(324,141,l),
(322,184,l),
(307,184,l),
(293,78,o),
(236,16,o),
(172,16,cs),
(100,16,o),
(72,77,o),
(72,143,cs),
(72,239,o),
(119,292,o),
(196,292,cs),
(236,292,o),
(271,283,o),
(320,243,c),
(320,269,l),
(281,303,o),
(236,318,o),
(192,318,cs),
(102,318,o),
(42,249,o),
(42,144,cs),
(42,55,o),
(86,-10,o),
(170,-10,cs)
);
}
);
width = 420;
},
{
anchors = (
{
name = bottom;
pos = (185,0);
},
{
name = ogonek;
pos = (454,0);
},
{
name = top;
pos = (178,545);
}
);
associatedMasterId = m009;
background = {
shapes = (
{
closed = 1;
nodes = (
(423,123,l),
(473,71,l),
(412,36,o),
(388,61,o),
(388,131,cs),
(388,338,ls),
(388,473,o),
(325,555,o),
(184,555,cs),
(118,555,o),
(43,536,o),
(-25,489,c),
(-14,541,l),
(44,404,l),
(-9,415,l),
(60,461,o),
(119,481,o),
(175,481,cs),
(263,481,o),
(303,426,o),
(303,336,cs),
(303,123,l),
(309,113,l),
(309,44,o),
(334,-10,o),
(407,-10,cs),
(437,-10,o),
(458,-1,o),
(477,12,c),
(470,-33,l)
);
},
{
closed = 1;
nodes = (
(213,-10,o),
(274,29,o),
(302,90,c),
(315,89,l),
(318,191,l),
(303,191,l),
(303,129,o),
(242,65,o),
(150,65,cs),
(96,65,o),
(62,103,o),
(62,157,cs),
(62,226,o),
(119,252,o),
(182,252,cs),
(234,252,o),
(285,237,o),
(320,222,c),
(333,293,l),
(270,313,o),
(218,322,o),
(169,322,cs),
(56,322,o),
(-24,262,o),
(-24,154,cs),
(-24,54,o),
(45,-10,o),
(135,-10,cs)
);
},
{
closed = 1;
nodes = (
(445,-817,o),
(426,-787,o),
(426,-754,cs),
(426,-564,ls),
(426,-418,o),
(334,-345,o),
(173,-345,cs),
(80,-345,o),
(-8,-369,o),
(-82,-418,c),
(-70,-355,l),
(0,-523,l),
(-43,-520,l),
(25,-479,o),
(90,-460,o),
(151,-460,cs),
(222,-460,o),
(280,-486,o),
(280,-561,cs),
(280,-723,l),
(300,-772,l),
(300,-861,o),
(349,-910,o),
(426,-910,cs),
(465,-910,o),
(505,-898,o),
(540,-879,c),
(535,-954,l),
(477,-740,l),
(522,-784,l)
);
},
{
closed = 1;
nodes = (
(226,-910,o),
(307,-839,o),
(334,-722,c),
(280,-661,l),
(273,-743,o),
(220,-796,o),
(145,-796,cs),
(99,-796,o),
(73,-776,o),
(73,-737,cs),
(73,-688,o),
(113,-662,o),
(183,-662,cs),
(220,-662,o),
(260,-669,o),
(298,-680,c),
(308,-591,l),
(267,-576,o),
(211,-565,o),
(156,-565,cs),
(20,-565,o),
(-69,-633,o),
(-69,-746,cs),
(-69,-848,o),
(5,-910,o),
(112,-910,cs)
);
}
);
};
layerId = "CE3B7651-35ED-4D23-855D-5970F073B2BC";
name = "22 Jun 23 10.46";
shapes = (
{
closed = 1;
nodes = (
(397,-10,o),
(408,4,o),
(416,9,c),
(387,-17,l),
(378,24,l),
(410,29,l),
(371,-2,o),
(333,13,o),
(333,74,cs),
(333,368,ls),
(333,482,o),
(272,535,o),
(190,535,cs),
(157,535,o),
(105,526,o),
(54,482,c),
(60,515,l),
(88,469,l),
(62,460,l),
(108,499,o),
(152,509,o),
(187,509,cs),
(255,509,o),
(307,472,o),
(307,366,cs),
(307,262,l),
(307,73,ls),
(307,12,o),
(338,-10,o),
(369,-10,cs)
);
},
{
closed = 1;
nodes = (
(239,-10,o),
(300,52,o),
(316,148,c),
(316,191,l),
(314,205,l),
(307,205,l),
(294,96,o),
(246,17,o),
(170,17,cs),
(102,17,o),
(71,80,o),
(71,139,cs),
(71,234,o),
(129,277,o),
(202,277,cs),
(239,277,o),
(281,265,o),
(320,243,c),
(320,267,l),
(285,288,o),
(241,299,o),
(202,299,cs),
(118,299,o),
(42,250,o),
(42,137,cs),
(42,65,o),
(83,-10,o),
(167,-10,cs)
);
}
);
width = 420;
},
{
anchors = (
{
name = bottom;
pos = (255,0);
},
{
name = ogonek;
pos = (524,0);
},
{
name = top;
pos = (248,545);
}
);
associatedMasterId = m002;
background = {
shapes = (
{
closed = 1;
nodes = (
(493,123,l),
(543,71,l),
(482,36,o),
(458,61,o),
(458,131,cs),
(458,338,ls),
(458,473,o),
(395,555,o),
(254,555,cs),
(188,555,o),
(113,536,o),
(45,489,c),
(56,541,l),
(114,404,l),
(61,415,l),
(130,461,o),
(189,481,o),
(245,481,cs),
(333,481,o),
(373,426,o),
(373,336,cs),
(373,123,l),
(379,113,l),
(379,44,o),
(404,-10,o),
(477,-10,cs),
(507,-10,o),
(528,-1,o),
(547,12,c),
(540,-33,l)
);
},
{
closed = 1;
nodes = (
(283,-10,o),
(344,29,o),
(372,90,c),
(385,89,l),
(388,191,l),
(373,191,l),
(373,129,o),
(312,65,o),
(220,65,cs),
(166,65,o),
(132,103,o),
(132,157,cs),
(132,226,o),
(189,252,o),
(252,252,cs),
(304,252,o),
(355,237,o),
(390,222,c),
(403,293,l),
(340,313,o),
(288,322,o),
(239,322,cs),
(126,322,o),
(46,262,o),
(46,154,cs),
(46,54,o),
(115,-10,o),
(205,-10,cs)
);
},
{
closed = 1;
nodes = (
(515,-817,o),
(496,-787,o),
(496,-754,cs),
(496,-564,ls),
(496,-418,o),
(404,-345,o),
(243,-345,cs),
(150,-345,o),
(62,-369,o),
(-12,-418,c),
(0,-355,l),
(70,-523,l),
(27,-520,l),
(95,-479,o),
(160,-460,o),
(221,-460,cs),
(292,-460,o),
(350,-486,o),
(350,-561,cs),
(350,-723,l),
(370,-772,l),
(370,-861,o),
(419,-910,o),
(496,-910,cs),
(535,-910,o),
(575,-898,o),
(610,-879,c),
(605,-954,l),
(547,-740,l),
(592,-784,l)
);
},
{
closed = 1;
nodes = (
(296,-910,o),
(377,-839,o),
(404,-722,c),
(350,-661,l),
(343,-743,o),
(290,-796,o),
(215,-796,cs),
(169,-796,o),
(143,-776,o),
(143,-737,cs),
(143,-688,o),
(183,-662,o),
(253,-662,cs),
(290,-662,o),
(330,-669,o),
(368,-680,c),
(378,-591,l),
(337,-576,o),
(281,-565,o),
(226,-565,cs),
(90,-565,o),
(1,-633,o),
(1,-746,cs),
(1,-848,o),
(75,-910,o),
(182,-910,cs)
);
}
);
};
layerId = "7D32C264-A521-4E5A-8032-59F2D4D28761";
name = "22 Jun 23 11.37";
shapes = (
{
closed = 1;
nodes = (
(504,-10,o),
(524,-3,o),
(541,8,c),
(532,-6,l),
(509,71,l),
(521,65,l),
(482,48,o),
(458,64,o),
(458,118,cs),
(458,338,ls),
(458,473,o),
(388,555,o),
(248,555,cs),
(181,555,o),
(120,537,o),
(56,500,c),
(60,527,l),
(105,428,l),
(88,434,l),
(132,460,o),
(184,479,o),
(243,479,cs),
(330,479,o),
(377,434,o),
(377,336,cs),
(377,270,l),
(379,113,l),
(379,44,o),
(404,-10,o),
(477,-10,cs)
);
},
{
closed = 1;
nodes = (
(281,-10,o),
(344,22,o),
(378,81,c),
(388,80,l),
(392,233,l),
(377,233,l),
(371,120,o),
(309,63,o),
(233,63,cs),
(176,63,o),
(132,94,o),
(132,156,cs),
(132,228,o),
(192,255,o),
(259,255,cs),
(307,255,o),
(353,242,o),
(390,224,c),
(403,286,l),
(350,312,o),
(295,324,o),
(245,324,cs),
(131,324,o),
(45,260,o),
(45,153,cs),
(45,53,o),
(115,-10,o),
(213,-10,cs)
);
}
);
width = 550;
},
{
anchors = (
{
name = bottom;
pos = (255,0);
},
{
name = ogonek;
pos = (524,0);
},
{
name = top;
pos = (248,545);
}
);
associatedMasterId = m002;
background = {
shapes = (
{
closed = 1;
nodes = (
(493,123,l),
(543,71,l),
(482,36,o),
(458,61,o),
(458,131,cs),
(458,338,ls),
(458,473,o),
(395,555,o),
(254,555,cs),
(188,555,o),
(113,536,o),
(45,489,c),
(56,541,l),
(114,404,l),
(61,415,l),
(130,461,o),
(189,481,o),
(245,481,cs),
(333,481,o),
(373,426,o),
(373,336,cs),
(373,123,l),
(379,113,l),
(379,44,o),
(404,-10,o),
(477,-10,cs),
(507,-10,o),
(528,-1,o),
(547,12,c),
(540,-33,l)
);
},
{
closed = 1;
nodes = (
(283,-10,o),
(344,29,o),
(372,90,c),
(385,89,l),
(388,191,l),
(373,191,l),
(373,129,o),
(312,65,o),
(220,65,cs),
(166,65,o),
(132,103,o),
(132,157,cs),
(132,226,o),
(189,252,o),
(252,252,cs),
(304,252,o),
(355,237,o),
(390,222,c),
(403,293,l),
(340,313,o),
(288,322,o),
(239,322,cs),
(126,322,o),
(46,262,o),
(46,154,cs),
(46,54,o),
(115,-10,o),
(205,-10,cs)
);
},
{
closed = 1;
nodes = (
(515,-817,o),
(496,-787,o),
(496,-754,cs),
(496,-564,ls),
(496,-418,o),
(404,-345,o),
(243,-345,cs),
(150,-345,o),
(62,-369,o),
(-12,-418,c),
(0,-355,l),
(70,-523,l),
(27,-520,l),
(95,-479,o),
(160,-460,o),
(221,-460,cs),
(292,-460,o),
(350,-486,o),
(350,-561,cs),
(350,-723,l),
(370,-772,l),
(370,-861,o),
(419,-910,o),
(496,-910,cs),
(535,-910,o),
(575,-898,o),
(610,-879,c),
(605,-954,l),
(547,-740,l),
(592,-784,l)
);
},
{
closed = 1;
nodes = (
(296,-910,o),
(377,-839,o),
(404,-722,c),
(350,-661,l),
(343,-743,o),
(290,-796,o),
(215,-796,cs),
(169,-796,o),
(143,-776,o),
(143,-737,cs),
(143,-688,o),
(183,-662,o),
(253,-662,cs),
(290,-662,o),
(330,-669,o),
(368,-680,c),
(378,-591,l),
(337,-576,o),
(281,-565,o),
(226,-565,cs),
(90,-565,o),
(1,-633,o),
(1,-746,cs),
(1,-848,o),
(75,-910,o),
(182,-910,cs)
);
}
);
};
layerId = "79D2D693-5528-4FDC-A849-2B4C022F4E2A";
name = "22 Jun 23 14.34";
shapes = (
{
closed = 1;
nodes = (
(504,-10,o),
(524,-3,o),
(541,8,c),
(537,-6,l),
(514,71,l),
(521,65,l),
(482,48,o),
(458,64,o),
(458,118,cs),
(458,338,ls),
(458,473,o),
(388,555,o),
(248,555,cs),
(181,555,o),
(120,537,o),
(56,500,c),
(60,527,l),
(105,428,l),
(88,434,l),
(132,460,o),
(184,479,o),
(243,479,cs),
(330,479,o),
(377,434,o),
(377,336,cs),
(377,270,l),
(379,113,l),
(379,44,o),
(404,-10,o),
(477,-10,cs)
);
},
{
closed = 1;
nodes = (
(281,-10,o),
(344,22,o),
(378,81,c),
(388,80,l),
(392,233,l),
(377,233,l),
(371,120,o),
(309,63,o),
(233,63,cs),
(176,63,o),
(132,94,o),
(132,156,cs),
(132,228,o),
(192,255,o),
(259,255,cs),
(307,255,o),
(353,242,o),
(390,224,c),
(403,286,l),
(350,312,o),
(295,324,o),
(245,324,cs),
(131,324,o),
(45,260,o),
(45,153,cs),
(45,53,o),
(115,-10,o),
(213,-10,cs)
);
}
);
width = 541;
},
{
anchors = (
{
name = bottom;
pos = (185,0);
},
{
name = ogonek;
pos = (454,0);
},
{
name = top;
pos = (178,545);
}
);
associatedMasterId = m009;
background = {
shapes = (
{
closed = 1;
nodes = (
(423,123,l),
(473,71,l),
(412,36,o),
(388,61,o),
(388,131,cs),
(388,338,ls),
(388,473,o),
(325,555,o),
(184,555,cs),
(118,555,o),
(43,536,o),
(-25,489,c),
(-14,541,l),
(44,404,l),
(-9,415,l),
(60,461,o),
(119,481,o),
(175,481,cs),
(263,481,o),
(303,426,o),
(303,336,cs),
(303,123,l),
(309,113,l),
(309,44,o),
(334,-10,o),
(407,-10,cs),
(437,-10,o),
(458,-1,o),
(477,12,c),
(470,-33,l)
);
},
{
closed = 1;
nodes = (
(213,-10,o),
(274,29,o),
(302,90,c),
(315,89,l),
(318,191,l),
(303,191,l),
(303,129,o),
(242,65,o),
(150,65,cs),
(96,65,o),
(62,103,o),
(62,157,cs),
(62,226,o),
(119,252,o),
(182,252,cs),
(234,252,o),
(285,237,o),
(320,222,c),
(333,293,l),
(270,313,o),
(218,322,o),
(169,322,cs),
(56,322,o),
(-24,262,o),
(-24,154,cs),
(-24,54,o),
(45,-10,o),
(135,-10,cs)
);
},
{
closed = 1;
nodes = (
(445,-817,o),
(426,-787,o),
(426,-754,cs),
(426,-564,ls),
(426,-418,o),
(334,-345,o),
(173,-345,cs),
(80,-345,o),
(-8,-369,o),
(-82,-418,c),
(-70,-355,l),
(0,-523,l),
(-43,-520,l),
(25,-479,o),
(90,-460,o),
(151,-460,cs),
(222,-460,o),
(280,-486,o),
(280,-561,cs),
(280,-723,l),
(300,-772,l),
(300,-861,o),
(349,-910,o),
(426,-910,cs),
(465,-910,o),
(505,-898,o),
(540,-879,c),
(535,-954,l),
(477,-740,l),
(522,-784,l)
);
},
{
closed = 1;
nodes = (
(226,-910,o),
(307,-839,o),
(334,-722,c),
(280,-661,l),
(273,-743,o),
(220,-796,o),
(145,-796,cs),
(99,-796,o),
(73,-776,o),
(73,-737,cs),
(73,-688,o),
(113,-662,o),
(183,-662,cs),
(220,-662,o),
(260,-669,o),
(298,-680,c),
(308,-591,l),
(267,-576,o),
(211,-565,o),
(156,-565,cs),
(20,-565,o),
(-69,-633,o),
(-69,-746,cs),
(-69,-848,o),
(5,-910,o),
(112,-910,cs)
);
}
);
};
layerId = "BA05FB69-79D3-403D-B7A1-53B66E47D32D";
name = "22 Jun 23 14.36";
shapes = (
{
closed = 1;
nodes = (
(376,-10,o),
(386,-5,o),
(394,0,c),
(393,-12,l),
(380,24,l),
(389,19,l),
(356,1,o),
(333,17,o),
(333,70,cs),
(333,368,ls),
(333,482,o),
(272,535,o),
(190,535,cs),
(157,535,o),
(105,526,o),
(54,483,c),
(63,515,l),
(88,469,l),
(62,460,l),
(108,499,o),
(152,509,o),
(187,509,cs),
(255,509,o),
(306,472,o),
(306,366,cs),
(306,250,l),
(307,73,ls),
(307,12,o),
(328,-10,o),
(359,-10,cs)
);
},
{
closed = 1;
nodes = (
(240,-10,o),
(300,52,o),
(316,148,c),
(316,191,l),
(314,205,l),
(307,205,l),
(294,96,o),
(252,17,o),
(170,17,cs),
(102,17,o),
(71,80,o),
(71,139,cs),
(71,222,o),
(129,265,o),
(202,265,cs),
(239,265,o),
(281,253,o),
(320,231,c),
(320,255,l),
(285,276,o),
(241,287,o),
(202,287,cs),
(118,287,o),
(42,237,o),
(42,137,cs),
(42,65,o),
(83,-10,o),
(169,-10,cs)
);
}
);
width = 420;
},
{
anchors = (
{
name = bottom;
pos = (258,0);
},
{
name = ogonek;
pos = (527,0);
},
{
name = top;
pos = (251,545);
}
);
associatedMasterId = m003;
background = {
shapes = (
{
closed = 1;
nodes = (
(496,123,l),
(546,71,l),
(485,36,o),
(461,61,o),
(461,131,cs),
(461,338,ls),
(461,473,o),
(398,555,o),
(257,555,cs),
(191,555,o),
(116,536,o),
(48,489,c),
(59,541,l),
(117,404,l),
(64,415,l),
(133,461,o),
(192,481,o),
(248,481,cs),
(336,481,o),
(376,426,o),
(376,336,cs),
(376,123,l),
(382,113,l),
(382,44,o),
(407,-10,o),
(480,-10,cs),
(510,-10,o),
(531,-1,o),
(550,12,c),
(543,-33,l)
);
},
{
closed = 1;
nodes = (
(286,-10,o),
(347,29,o),
(375,90,c),
(388,89,l),
(391,191,l),
(376,191,l),
(376,129,o),
(315,65,o),
(223,65,cs),
(169,65,o),
(135,103,o),
(135,157,cs),
(135,226,o),
(192,252,o),
(255,252,cs),
(307,252,o),
(358,237,o),
(393,222,c),
(406,293,l),
(343,313,o),
(291,322,o),
(242,322,cs),
(129,322,o),
(49,262,o),
(49,154,cs),
(49,54,o),
(118,-10,o),
(208,-10,cs)
);
},
{
closed = 1;
nodes = (
(518,-817,o),
(499,-787,o),
(499,-754,cs),
(499,-564,ls),
(499,-418,o),
(407,-345,o),
(246,-345,cs),
(153,-345,o),
(65,-369,o),
(-9,-418,c),
(3,-355,l),
(73,-523,l),
(30,-520,l),
(98,-479,o),
(163,-460,o),
(224,-460,cs),
(295,-460,o),
(353,-486,o),
(353,-561,cs),
(353,-723,l),
(373,-772,l),
(373,-861,o),
(422,-910,o),
(499,-910,cs),
(538,-910,o),
(578,-898,o),
(613,-879,c),
(608,-954,l),
(550,-740,l),
(595,-784,l)
);
},
{
closed = 1;
nodes = (
(299,-910,o),
(380,-839,o),
(407,-722,c),
(353,-661,l),
(346,-743,o),
(293,-796,o),
(218,-796,cs),
(172,-796,o),
(146,-776,o),
(146,-737,cs),
(146,-688,o),
(186,-662,o),
(256,-662,cs),
(293,-662,o),
(333,-669,o),
(371,-680,c),
(381,-591,l),
(340,-576,o),
(284,-565,o),
(229,-565,cs),
(93,-565,o),
(4,-633,o),
(4,-746,cs),
(4,-848,o),
(78,-910,o),
(185,-910,cs)
);
}
);
};
layerId = "145C2D5B-4218-4739-A48A-DF15E07D6CA4";
name = "22 Jun 23 16.37";
shapes = (
{
closed = 1;
nodes = (
(570,-10,o),
(610,2,o),
(645,21,c),
(627,-4,l),
(592,125,l),
(627,116,l),
(581,98,o),
(531,89,o),
(531,146,cs),
(531,356,ls),
(531,502,o),
(439,575,o),
(278,575,cs),
(185,575,o),
(97,551,o),
(23,502,c),
(35,565,l),
(105,397,l),
(62,400,l),
(130,441,o),
(195,460,o),
(256,460,cs),
(327,460,o),
(385,434,o),
(385,355,cs),
(385,280,l),
(405,128,l),
(405,39,o),
(454,-10,o),
(531,-10,cs)
);
},
{
closed = 1;
nodes = (
(300,-10,o),
(365,27,o),
(405,93,c),
(425,93,l),
(425,238,l),
(385,239,l),
(378,157,o),
(325,104,o),
(250,104,cs),
(204,104,o),
(178,124,o),
(178,163,cs),
(178,212,o),
(218,238,o),
(288,238,cs),
(325,238,o),
(365,231,o),
(403,220,c),
(413,309,l),
(372,324,o),
(316,335,o),
(261,335,cs),
(125,335,o),
(36,267,o),
(36,154,cs),
(36,52,o),
(110,-10,o),
(217,-10,cs)
);
}
);
width = 628;
},
{
anchors = (
{
name = bottom;
pos = (185,0);
},
{
name = ogonek;
pos = (454,0);
},
{
name = top;
pos = (178,545);
}
);
associatedMasterId = m009;
background = {
shapes = (
{
closed = 1;
nodes = (
(423,123,l),
(473,71,l),
(412,36,o),
(388,61,o),
(388,131,cs),
(388,338,ls),
(388,473,o),
(325,555,o),
(184,555,cs),
(118,555,o),
(43,536,o),
(-25,489,c),
(-14,541,l),
(44,404,l),
(-9,415,l),
(60,461,o),
(119,481,o),
(175,481,cs),
(263,481,o),
(303,426,o),
(303,336,cs),
(303,123,l),
(309,113,l),
(309,44,o),
(334,-10,o),
(407,-10,cs),
(437,-10,o),
(458,-1,o),
(477,12,c),
(470,-33,l)
);
},
{
closed = 1;
nodes = (
(213,-10,o),
(274,29,o),
(302,90,c),
(315,89,l),
(318,191,l),
(303,191,l),
(303,129,o),
(242,65,o),
(150,65,cs),
(96,65,o),
(62,103,o),
(62,157,cs),
(62,226,o),
(119,252,o),
(182,252,cs),
(234,252,o),
(285,237,o),
(320,222,c),
(333,293,l),
(270,313,o),
(218,322,o),
(169,322,cs),
(56,322,o),
(-24,262,o),
(-24,154,cs),
(-24,54,o),
(45,-10,o),
(135,-10,cs)
);
},
{
closed = 1;
nodes = (
(445,-817,o),
(426,-787,o),
(426,-754,cs),
(426,-564,ls),
(426,-418,o),
(334,-345,o),
(173,-345,cs),
(80,-345,o),
(-8,-369,o),
(-82,-418,c),
(-70,-355,l),
(0,-523,l),
(-43,-520,l),
(25,-479,o),
(90,-460,o),
(151,-460,cs),
(222,-460,o),
(280,-486,o),
(280,-561,cs),
(280,-723,l),
(300,-772,l),
(300,-861,o),
(349,-910,o),
(426,-910,cs),
(465,-910,o),
(505,-898,o),
(540,-879,c),
(535,-954,l),
(477,-740,l),
(522,-784,l)
);
},
{
closed = 1;
nodes = (
(226,-910,o),
(307,-839,o),
(334,-722,c),
(280,-661,l),
(273,-743,o),
(220,-796,o),
(145,-796,cs),
(99,-796,o),
(73,-776,o),
(73,-737,cs),
(73,-688,o),
(113,-662,o),
(183,-662,cs),
(220,-662,o),
(260,-669,o),
(298,-680,c),
(308,-591,l),
(267,-576,o),
(211,-565,o),
(156,-565,cs),
(20,-565,o),
(-69,-633,o),
(-69,-746,cs),
(-69,-848,o),
(5,-910,o),
(112,-910,cs)
);
}
);
};
layerId = "933DBE62-F0A3-4DBE-A3D6-55539C98E1DB";
name = "23 Jun 23 10.24";
shapes = (
{
closed = 1;
nodes = (
(376,-10,o),
(386,-5,o),
(394,0,c),
(393,-12,l),
(380,24,l),
(389,19,l),
(356,1,o),
(333,17,o),
(333,70,cs),
(333,368,ls),
(333,482,o),
(272,535,o),
(190,535,cs),
(157,535,o),
(110,530,o),
(54,491,c),
(54,515,l),
(79,469,l),
(62,468,l),
(109,499,o),
(152,509,o),
(187,509,cs),
(255,509,o),
(306,472,o),
(306,366,cs),
(306,250,l),
(307,73,ls),
(307,12,o),
(328,-10,o),
(359,-10,cs)
);
},
{
closed = 1;
nodes = (
(240,-10,o),
(300,52,o),
(316,148,c),
(316,191,l),
(314,205,l),
(307,205,l),
(294,96,o),
(252,17,o),
(170,17,cs),
(102,17,o),
(71,80,o),
(71,139,cs),
(71,222,o),
(129,265,o),
(202,265,cs),
(239,265,o),
(281,253,o),
(320,231,c),
(320,255,l),
(285,276,o),
(241,287,o),
(202,287,cs),
(118,287,o),
(42,237,o),
(42,137,cs),
(42,65,o),
(83,-10,o),
(169,-10,cs)
);
}
);
width = 420;
},
{
anchors = (
{
name = bottom;
pos = (258,0);
},
{
name = ogonek;
pos = (527,0);
},
{
name = top;
pos = (251,545);
}
);
associatedMasterId = m003;
background = {
shapes = (
{
closed = 1;
nodes = (
(496,123,l),
(546,71,l),
(485,36,o),
(461,61,o),
(461,131,cs),
(461,338,ls),
(461,473,o),
(398,555,o),
(257,555,cs),
(191,555,o),
(116,536,o),
(48,489,c),
(59,541,l),
(117,404,l),
(64,415,l),
(133,461,o),
(192,481,o),
(248,481,cs),
(336,481,o),
(376,426,o),
(376,336,cs),
(376,123,l),
(382,113,l),
(382,44,o),
(407,-10,o),
(480,-10,cs),
(510,-10,o),
(531,-1,o),
(550,12,c),
(543,-33,l)
);
},
{
closed = 1;
nodes = (
(286,-10,o),
(347,29,o),
(375,90,c),
(388,89,l),
(391,191,l),
(376,191,l),
(376,129,o),
(315,65,o),
(223,65,cs),
(169,65,o),
(135,103,o),
(135,157,cs),
(135,226,o),
(192,252,o),
(255,252,cs),
(307,252,o),
(358,237,o),
(393,222,c),
(406,293,l),
(343,313,o),
(291,322,o),
(242,322,cs),
(129,322,o),
(49,262,o),
(49,154,cs),
(49,54,o),
(118,-10,o),
(208,-10,cs)
);
},
{
closed = 1;
nodes = (
(518,-817,o),
(499,-787,o),
(499,-754,cs),
(499,-564,ls),
(499,-418,o),
(407,-345,o),
(246,-345,cs),
(153,-345,o),
(65,-369,o),
(-9,-418,c),
(3,-355,l),
(73,-523,l),
(30,-520,l),
(98,-479,o),
(163,-460,o),
(224,-460,cs),
(295,-460,o),
(353,-486,o),
(353,-561,cs),
(353,-723,l),
(373,-772,l),
(373,-861,o),
(422,-910,o),
(499,-910,cs),
(538,-910,o),
(578,-898,o),
(613,-879,c),
(608,-954,l),
(550,-740,l),
(595,-784,l)
);
},
{
closed = 1;
nodes = (
(299,-910,o),
(380,-839,o),
(407,-722,c),
(353,-661,l),
(346,-743,o),
(293,-796,o),
(218,-796,cs),
(172,-796,o),
(146,-776,o),
(146,-737,cs),
(146,-688,o),
(186,-662,o),
(256,-662,cs),
(293,-662,o),
(333,-669,o),
(371,-680,c),
(381,-591,l),
(340,-576,o),
(284,-565,o),
(229,-565,cs),
(93,-565,o),
(4,-633,o),
(4,-746,cs),
(4,-848,o),
(78,-910,o),
(185,-910,cs)
);
}
);
};
layerId = "661C24F3-2EA0-4B12-952C-905269334428";
name = "23 Jun 23 13.05";
shapes = (
{
closed = 1;
nodes = (
(570,-10,o),
(610,2,o),
(645,21,c),
(627,-4,l),
(592,125,l),
(627,116,l),
(581,98,o),
(531,89,o),
(531,146,cs),
(531,342,ls),
(531,490,o),
(441,563,o),
(284,563,cs),
(200,563,o),
(116,540,o),
(23,481,c),
(46,553,l),
(120,374,l),
(62,378,l),
(149,432,o),
(206,445,o),
(263,445,cs),
(342,445,o),
(387,414,o),
(387,338,cs),
(387,280,l),
(405,128,l),
(405,39,o),
(454,-10,o),
(531,-10,cs)
);
},
{
closed = 1;
nodes = (
(322,-10,o),
(376,34,o),
(405,93,c),
(425,93,l),
(425,238,l),
(385,239,l),
(388,155,o),
(343,95,o),
(273,95,cs),
(226,95,o),
(196,123,o),
(196,167,cs),
(196,220,o),
(240,242,o),
(292,242,cs),
(333,242,o),
(368,234,o),
(403,224,c),
(413,309,l),
(377,323,o),
(336,335,o),
(273,335,cs),
(143,335,o),
(57,267,o),
(57,154,cs),
(57,52,o),
(131,-10,o),
(230,-10,cs)
);
}
);
width = 628;
},
{
anchors = (
{
name = bottom;
pos = (215,0);
},
{
name = ogonek;
pos = (484,0);
},
{
name = top;
pos = (208,545);
}
);
associatedMasterId = m009;
background = {
shapes = (
{
closed = 1;
nodes = (
(453,123,l),
(503,71,l),
(442,36,o),
(418,61,o),
(418,131,cs),
(418,338,ls),
(418,473,o),
(355,555,o),
(214,555,cs),
(148,555,o),
(73,536,o),
(5,489,c),
(16,541,l),
(74,404,l),
(21,415,l),
(90,461,o),
(149,481,o),
(205,481,cs),
(293,481,o),
(333,426,o),
(333,336,cs),
(333,123,l),
(339,113,l),
(339,44,o),
(364,-10,o),
(437,-10,cs),
(467,-10,o),
(488,-1,o),
(507,12,c),
(500,-33,l)
);
},
{
closed = 1;
nodes = (
(243,-10,o),
(304,29,o),
(332,90,c),
(345,89,l),
(348,191,l),
(333,191,l),
(333,129,o),
(272,65,o),
(180,65,cs),
(126,65,o),
(92,103,o),
(92,157,cs),
(92,226,o),
(149,252,o),
(212,252,cs),
(264,252,o),
(315,237,o),
(350,222,c),
(363,293,l),
(300,313,o),
(248,322,o),
(199,322,cs),
(86,322,o),
(6,262,o),
(6,154,cs),
(6,54,o),
(75,-10,o),
(165,-10,cs)
);
},
{
closed = 1;
nodes = (
(475,-817,o),
(456,-787,o),
(456,-754,cs),
(456,-564,ls),
(456,-418,o),
(364,-345,o),
(203,-345,cs),
(110,-345,o),
(22,-369,o),
(-52,-418,c),
(-40,-355,l),
(30,-523,l),
(-13,-520,l),
(55,-479,o),
(120,-460,o),
(181,-460,cs),
(252,-460,o),
(310,-486,o),
(310,-561,cs),
(310,-723,l),
(330,-772,l),
(330,-861,o),
(379,-910,o),
(456,-910,cs),
(495,-910,o),
(535,-898,o),
(570,-879,c),
(565,-954,l),
(507,-740,l),
(552,-784,l)
);
},
{
closed = 1;
nodes = (
(256,-910,o),
(337,-839,o),
(364,-722,c),
(310,-661,l),
(303,-743,o),
(250,-796,o),
(175,-796,cs),
(129,-796,o),
(103,-776,o),
(103,-737,cs),
(103,-688,o),
(143,-662,o),
(213,-662,cs),
(250,-662,o),
(290,-669,o),
(328,-680,c),
(338,-591,l),
(297,-576,o),
(241,-565,o),
(186,-565,cs),
(50,-565,o),
(-39,-633,o),
(-39,-746,cs),
(-39,-848,o),
(35,-910,o),
(142,-910,cs)
);
}
);
};
layerId = "482149AF-5915-4518-B3D6-7718763A5C9F";
name = "28 Jun 23 17.11";
shapes = (
{
closed = 1;
nodes = (
(431,-10,o),
(441,-5,o),
(449,0,c),
(447,-8,l),
(435,24,l),
(444,19,l),
(411,1,o),
(388,17,o),
(388,70,cs),
(388,373,ls),
(388,489,o),
(317,547,o),
(216,547,cs),
(168,547,o),
(112,533,o),
(56,497,c),
(59,511,l),
(78,475,l),
(65,475,l),
(120,511,o),
(169,522,o),
(213,522,cs),
(304,522,o),
(361,473,o),
(361,364,cs),
(361,257,l),
(362,73,ls),
(362,12,o),
(383,-10,o),
(414,-10,cs)
);
},
{
closed = 1;
nodes = (
(278,-10,o),
(349,51,o),
(370,148,c),
(370,191,l),
(368,205,l),
(361,205,l),
(350,88,o),
(288,17,o),
(195,17,cs),
(109,17,o),
(66,80,o),
(66,154,cs),
(66,247,o),
(135,292,o),
(220,292,cs),
(281,292,o),
(332,269,o),
(374,244,c),
(374,268,l),
(338,291,o),
(283,315,o),
(217,315,cs),
(116,315,o),
(37,259,o),
(37,154,cs),
(37,67,o),
(91,-10,o),
(190,-10,cs)
);
}
);
width = 470;
},
{
anchors = (
{
name = bottom;
pos = (227,0);
},
{
name = ogonek;
pos = (496,0);
},
{
name = top;
pos = (220,545);
}
);
associatedMasterId = m003;
background = {
shapes = (
{
closed = 1;
nodes = (
(516,83,o),
(497,113,o),
(497,146,cs),
(497,336,ls),
(497,482,o),
(405,555,o),
(244,555,cs),
(151,555,o),
(63,531,o),
(-11,482,c),
(1,545,l),
(71,377,l),
(28,380,l),
(96,421,o),
(161,440,o),
(222,440,cs),
(293,440,o),
(351,414,o),
(351,339,cs),
(351,177,l),
(371,128,l),
(371,39,o),
(420,-10,o),
(497,-10,cs),
(536,-10,o),
(576,2,o),
(611,21,c),
(606,-54,l),
(548,160,l),
(593,116,l)
);
},
{
closed = 1;
nodes = (
(297,-10,o),
(378,61,o),
(405,178,c),
(351,239,l),
(344,157,o),
(291,104,o),
(216,104,cs),
(170,104,o),
(144,124,o),
(144,163,cs),
(144,212,o),
(184,238,o),
(254,238,cs),
(291,238,o),
(331,231,o),
(369,220,c),
(379,309,l),
(338,324,o),
(282,335,o),
(227,335,cs),
(91,335,o),
(2,267,o),
(2,154,cs),
(2,52,o),
(76,-10,o),
(183,-10,cs)
);
}
);
};
layerId = "E1C54E63-C60A-434E-B8F9-F6F767F227BB";
name = "30 Jun 23 15.45";
shapes = (
{
closed = 1;
nodes = (
(539,-10,o),
(579,2,o),
(614,21,c),
(596,-4,l),
(561,125,l),
(596,116,l),
(550,98,o),
(500,89,o),
(500,146,cs),
(500,342,ls),
(500,490,o),
(409,563,o),
(255,563,cs),
(168,563,o),
(85,540,o),
(-8,481,c),
(15,553,l),
(89,374,l),
(31,378,l),
(116,431,o),
(175,445,o),
(230,445,cs),
(311,445,o),
(356,415,o),
(356,338,cs),
(356,280,l),
(374,128,l),
(374,39,o),
(423,-10,o),
(500,-10,cs)
);
},
{
closed = 1;
nodes = (
(290,-10,o),
(345,34,o),
(374,93,c),
(394,93,l),
(394,238,l),
(354,239,l),
(357,155,o),
(312,95,o),
(242,95,cs),
(195,95,o),
(165,123,o),
(165,167,cs),
(165,220,o),
(208,242,o),
(265,242,cs),
(300,242,o),
(337,234,o),
(372,224,c),
(382,309,l),
(349,322,o),
(305,335,o),
(246,335,cs),
(111,335,o),
(26,267,o),
(26,155,cs),
(26,52,o),
(98,-10,o),
(202,-10,cs)
);
}
);
width = 591;
}
);
unicode = 97;
},
{
color = 4;
glyphname = ae;
lastChange = "2023-07-07 01:17:39 +0000";
layers = (
{
.lastUpdate = 710307179.976;
layerId = m009;
shapes = (
{
closed = 1;
nodes = (
(265,-10,o),
(351,32,o),
(376,194,c),
(364,182,l),
(391,60,o),
(477,-10,o),
(585,-10,cs),
(663,-10,o),
(720,26,o),
(752,62,c),
(757,36,l),
(716,87,l),
(737,81,l),
(700,41,o),
(648,15,o),
(585,15,cs),
(448,15,o),
(373,137,o),
(379,282,c),
(376,277,l),
(776,277,l),
(759,259,l),
(768,461,o),
(687,547,o),
(573,547,cs),
(477,547,o),
(404,486,o),
(372,388,c),
(381,386,l),
(370,493,o),
(303,547,o),
(210,547,cs),
(162,547,o),
(107,534,o),
(50,494,c),
(53,507,l),
(74,471,l),
(59,471,l),
(115,511,o),
(163,522,o),
(207,522,cs),
(298,522,o),
(354,475,o),
(355,364,cs),
(356,265,ls),
(358,101,o),
(290,17,o),
(195,17,cs),
(112,17,o),
(68,80,o),
(68,154,cs),
(68,247,o),
(137,292,o),
(222,292,cs),
(277,292,o),
(324,273,o),
(364,251,c),
(364,275,l),
(328,296,o),
(278,315,o),
(219,315,cs),
(118,315,o),
(40,259,o),
(40,153,cs),
(40,67,o),
(93,-10,o),
(192,-10,cs)
);
},
{
closed = 1;
nodes = (
(389,467,o),
(484,522,o),
(570,522,cs),
(687,522,o),
(739,419,o),
(731,290,c),
(742,300,l),
(377,300,l),
(380,289,l)
);
}
);
width = 799;
},
{
.lastUpdate = 710307177.75;
layerId = m002;
shapes = (
{
closed = 1;
nodes = (
(307,-10,o),
(398,34,o),
(423,173,c),
(400,170,l),
(432,54,o),
(521,-10,o),
(639,-10,cs),
(722,-10,o),
(784,18,o),
(836,82,c),
(826,41,l),
(765,137,l),
(795,143,l),
(751,87,o),
(703,63,o),
(643,63,cs),
(532,63,o),
(462,146,o),
(462,257,c),
(449,252,l),
(874,252,l),
(831,205,l),
(855,446,o),
(769,555,o),
(620,555,cs),
(524,555,o),
(453,497,o),
(415,416,c),
(434,416,l),
(411,504,o),
(346,555,o),
(247,555,cs),
(180,555,o),
(120,538,o),
(55,500,c),
(63,527,l),
(108,428,l),
(87,431,l),
(131,460,o),
(183,479,o),
(242,479,cs),
(329,479,o),
(376,434,o),
(376,336,cs),
(376,233,l),
(370,120,o),
(308,63,o),
(232,63,cs),
(175,63,o),
(131,94,o),
(131,156,cs),
(131,228,o),
(191,255,o),
(258,255,cs),
(306,255,o),
(352,242,o),
(389,224,c),
(402,286,l),
(349,312,o),
(294,324,o),
(244,324,cs),
(130,324,o),
(44,260,o),
(44,153,cs),
(44,53,o),
(114,-10,o),
(222,-10,cs)
);
},
{
closed = 1;
nodes = (
(462,416,o),
(523,481,o),
(617,481,cs),
(707,481,o),
(761,417,o),
(753,287,c),
(778,320,l),
(457,320,l),
(464,284,l)
);
}
);
width = 883;
},
{
.lastUpdate = 710307175.603;
layerId = m003;
shapes = (
{
closed = 1;
nodes = (
(338,-10,o),
(428,64,o),
(445,181,c),
(402,165,l),
(438,62,o),
(524,-10,o),
(652,-10,cs),
(734,-10,o),
(808,20,o),
(857,73,c),
(852,54,l),
(780,163,l),
(794,164,l),
(746,123,o),
(705,111,o),
(662,111,cs),
(567,111,o),
(504,172,o),
(511,249,c),
(490,232,l),
(885,232,l),
(865,213,l),
(890,447,o),
(783,563,o),
(638,563,cs),
(545,563,o),
(465,515,o),
(421,435,c),
(462,435,l),
(436,522,o),
(368,563,o),
(259,563,cs),
(189,563,o),
(106,545,o),
(24,500,c),
(28,521,l),
(83,389,l),
(67,392,l),
(133,429,o),
(186,445,o),
(240,445,cs),
(325,445,o),
(369,406,o),
(369,338,cs),
(369,239,ls),
(369,155,o),
(312,95,o),
(242,95,cs),
(195,95,o),
(165,123,o),
(165,167,cs),
(165,220,o),
(208,242,o),
(265,242,cs),
(300,242,o),
(337,234,o),
(406,214,c),
(416,299,l),
(349,322,o),
(305,336,o),
(245,336,cs),
(110,336,o),
(26,265,o),
(26,159,cs),
(26,52,o),
(112,-10,o),
(220,-10,cs)
);
},
{
closed = 1;
nodes = (
(518,414,o),
(573,445,o),
(629,445,cs),
(688,445,o),
(735,411,o),
(733,326,c),
(750,335,l),
(492,335,l),
(510,325,l)
);
}
);
width = 892;
}
);
metricLeft = a;
metricRight = e;
unicode = 230;
},
{
color = 4;
glyphname = b;
layers = (
{
.lastUpdate = 710547580.898;
background = {
shapes = (
{
pos = (25,0);
ref = n;
}
);
};
layerId = m009;
shapes = (
{
closed = 1;
nodes = (
(110,0,l),
(116,105,l),
(116,150,l),
(109,182,l),
(109,391,l),
(116,398,l),
(116,750,l),
(89,750,l),
(89,0,l)
);
},
{
pos = (-10,0);
ref = _perut_b;
}
);
width = 569;
},
{
anchors = (
{
name = bottom;
pos = (343,0);
},
{
name = top;
pos = (343,750);
}
);
associatedMasterId = m009;
background = {
shapes = (
{
closed = 1;
nodes = (
(377,110,o),
(403,117,o),
(426,132,c),
(449,147,o),
(467,166,o),
(480,190,c),
(492,214,o),
(498,240,o),
(498,267,c),
(498,273,l),
(498,303,o),
(492,330,o),
(479,354,c),
(466,377,o),
(449,396,o),
(426,410,c),
(403,424,o),
(377,430,o),
(348,430,c),
(317,430,o),
(291,423,o),
(268,409,c),
(246,394,o),
(229,375,o),
(217,351,c),
(205,327,o),
(200,301,o),
(200,272,c),
(200,263,l),
(200,234,o),
(206,208,o),
(219,185,c),
(231,162,o),
(249,143,o),
(271,130,c),
(294,117,o),
(319,110,o),
(347,110,c)
);
},
{
closed = 1;
nodes = (
(344,-10,o),
(310,-4,o),
(279,8,c),
(249,21,o),
(224,37,o),
(204,58,c),
(184,79,o),
(168,102,o),
(158,128,c),
(158,410,l),
(166,437,o),
(179,461,o),
(198,482,c),
(217,504,o),
(242,521,o),
(272,533,c),
(302,545,o),
(336,552,o),
(374,552,c),
(427,552,o),
(474,539,o),
(515,514,c),
(556,489,o),
(587,455,o),
(610,413,c),
(633,370,o),
(644,324,o),
(644,273,c),
(644,264,l),
(644,211,o),
(633,163,o),
(610,122,c),
(587,81,o),
(555,48,o),
(515,25,c),
(475,1,o),
(431,-10,o),
(383,-10,c)
);
},
{
closed = 1;
nodes = (
(53,0,l),
(53,740,l),
(200,740,l),
(200,106,l),
(187,0,l)
);
}
);
};
layerId = "39D93B3F-3BBE-4227-9F9A-0897DBA04697";
name = "28 Oct 22 12.03";
shapes = (
{
closed = 1;
nodes = (
(167,0,l),
(199,106,l),
(199,740,l),
(53,740,l),
(53,0,l)
);
},
{
closed = 1;
nodes = (
(522,-10,o),
(637,99,o),
(637,276,cs),
(637,447,o),
(532,555,o),
(392,555,cs),
(303,555,o),
(232,511,o),
(187,441,c),
(182,103,l),
(232,27,o),
(298,-10,o),
(387,-10,cs)
);
},
{
closed = 1;
nodes = (
(263,107,o),
(206,177,o),
(206,272,cs),
(206,367,o),
(263,435,o),
(349,435,cs),
(432,435,o),
(488,376,o),
(488,274,cs),
(488,169,o),
(428,107,o),
(346,107,cs)
);
}
);
width = 660;
},
{
.lastUpdate = 710547580.898;
background = {
shapes = (
{
pos = (-10,0);
ref = n;
}
);
};
layerId = m002;
shapes = (
{
closed = 1;
nodes = (
(147,0,l),
(167,76,l),
(168,118,l),
(156,151,l),
(156,443,l),
(167,450,l),
(167,750,l),
(82,750,l),
(82,0,l)
);
},
{
pos = (4,0);
ref = _perut_b;
}
);
width = 606;
},
{
anchors = (
{
name = bottom;
pos = (343,0);
},
{
name = top;
pos = (343,750);
}
);
associatedMasterId = m002;
background = {
shapes = (
{
closed = 1;
nodes = (
(377,110,o),
(403,117,o),
(426,132,c),
(449,147,o),
(467,166,o),
(480,190,c),
(492,214,o),
(498,240,o),
(498,267,c),
(498,273,l),
(498,303,o),
(492,330,o),
(479,354,c),
(466,377,o),
(449,396,o),
(426,410,c),
(403,424,o),
(377,430,o),
(348,430,c),
(317,430,o),
(291,423,o),
(268,409,c),
(246,394,o),
(229,375,o),
(217,351,c),
(205,327,o),
(200,301,o),
(200,272,c),
(200,263,l),
(200,234,o),
(206,208,o),
(219,185,c),
(231,162,o),
(249,143,o),
(271,130,c),
(294,117,o),
(319,110,o),
(347,110,c)
);
},
{
closed = 1;
nodes = (
(344,-10,o),
(310,-4,o),
(279,8,c),
(249,21,o),
(224,37,o),
(204,58,c),
(184,79,o),
(168,102,o),
(158,128,c),
(158,410,l),
(166,437,o),
(179,461,o),
(198,482,c),
(217,504,o),
(242,521,o),
(272,533,c),
(302,545,o),
(336,552,o),
(374,552,c),
(427,552,o),
(474,539,o),
(515,514,c),
(556,489,o),
(587,455,o),
(610,413,c),
(633,370,o),
(644,324,o),
(644,273,c),
(644,264,l),
(644,211,o),
(633,163,o),
(610,122,c),
(587,81,o),
(555,48,o),
(515,25,c),
(475,1,o),
(431,-10,o),
(383,-10,c)
);
},
{
closed = 1;
nodes = (
(53,0,l),
(53,740,l),
(200,740,l),
(200,106,l),
(187,0,l)
);
}
);
};
layerId = "F273C629-C432-4C07-81A3-DE9416EB0548";
name = "28 Oct 22 12.03";
shapes = (
{
closed = 1;
nodes = (
(167,0,l),
(199,106,l),
(199,740,l),
(53,740,l),
(53,0,l)
);
},
{
closed = 1;
nodes = (
(522,-10,o),
(637,99,o),
(637,276,cs),
(637,447,o),
(532,555,o),
(392,555,cs),
(303,555,o),
(232,511,o),
(187,441,c),
(182,103,l),
(232,27,o),
(298,-10,o),
(387,-10,cs)
);
},
{
closed = 1;
nodes = (
(263,107,o),
(206,177,o),
(206,272,cs),
(206,367,o),
(263,435,o),
(349,435,cs),
(432,435,o),
(488,376,o),
(488,274,cs),
(488,169,o),
(428,107,o),
(346,107,cs)
);
}
);
width = 660;
},
{
.lastUpdate = 710547582.042;
background = {
shapes = (
{
pos = (-6,0);
ref = o;
}
);
};
layerId = m003;
shapes = (
{
closed = 1;
nodes = (
(179,0,l),
(219,93,l),
(219,155,l),
(208,201,l),
(208,373,l),
(219,410,l),
(219,750,l),
(73,750,l),
(73,0,l)
);
},
{
pos = (15,0);
ref = _perut_b;
}
);
width = 649;
},
{
anchors = (
{
name = bottom;
pos = (343,0);
},
{
name = top;
pos = (343,750);
}
);
associatedMasterId = m003;
background = {
shapes = (
{
closed = 1;
nodes = (
(377,110,o),
(403,117,o),
(426,132,c),
(449,147,o),
(467,166,o),
(480,190,c),
(492,214,o),
(498,240,o),
(498,267,c),
(498,273,l),
(498,303,o),
(492,330,o),
(479,354,c),
(466,377,o),
(449,396,o),
(426,410,c),
(403,424,o),
(377,430,o),
(348,430,c),
(317,430,o),
(291,423,o),
(268,409,c),
(246,394,o),
(229,375,o),
(217,351,c),
(205,327,o),
(200,301,o),
(200,272,c),
(200,263,l),
(200,234,o),
(206,208,o),
(219,185,c),
(231,162,o),
(249,143,o),
(271,130,c),
(294,117,o),
(319,110,o),
(347,110,c)
);
},
{
closed = 1;
nodes = (
(344,-10,o),
(310,-4,o),
(279,8,c),
(249,21,o),
(224,37,o),
(204,58,c),
(184,79,o),
(168,102,o),
(158,128,c),
(158,410,l),
(166,437,o),
(179,461,o),
(198,482,c),
(217,504,o),
(242,521,o),
(272,533,c),
(302,545,o),
(336,552,o),
(374,552,c),
(427,552,o),
(474,539,o),
(515,514,c),
(556,489,o),
(587,455,o),
(610,413,c),
(633,370,o),
(644,324,o),
(644,273,c),
(644,264,l),
(644,211,o),
(633,163,o),
(610,122,c),
(587,81,o),
(555,48,o),
(515,25,c),
(475,1,o),
(431,-10,o),
(383,-10,c)
);
},
{
closed = 1;
nodes = (
(53,0,l),
(53,740,l),
(200,740,l),
(200,106,l),
(187,0,l)
);
}
);
};
layerId = "9976D06F-FD8D-47E7-8C34-ED32F5027B1C";
name = "28 Oct 22 12.03";
shapes = (
{
closed = 1;
nodes = (
(167,0,l),
(199,106,l),
(199,740,l),
(53,740,l),
(53,0,l)
);
},
{
closed = 1;
nodes = (
(522,-10,o),
(637,99,o),
(637,276,cs),
(637,447,o),
(532,555,o),
(392,555,cs),
(303,555,o),
(232,511,o),
(187,441,c),
(182,103,l),
(232,27,o),
(298,-10,o),
(387,-10,cs)
);
},
{
closed = 1;
nodes = (
(263,107,o),
(206,177,o),
(206,272,cs),
(206,367,o),
(263,435,o),
(349,435,cs),
(432,435,o),
(488,376,o),
(488,274,cs),
(488,169,o),
(428,107,o),
(346,107,cs)
);
}
);
width = 660;
},
{
associatedMasterId = m003;
background = {
shapes = (
{
pos = (84,545);
ref = n;
scale = (1,-1);
}
);
};
layerId = "79B40CB9-0FFC-4BF4-A8FB-8BB90D2CA1B9";
name = "22 Jun 23 10.49";
shapes = (
{
closed = 1;
nodes = (
(212,0,l),
(232,76,l),
(233,118,l),
(221,151,l),
(221,443,l),
(232,450,l),
(232,750,l),
(64,750,l),
(64,0,l)
);
},
{
pos = (69,0);
ref = _perut_b;
}
);
width = 679;
}
);
metricLeft = h;
metricRight = o;
unicode = 98;
},
{
color = 4;
glyphname = c;
layers = (
{
anchors = (
{
name = bar_ver;
pos = (265,274);
},
{
name = bottom;
pos = (299,0);
},
{
name = top;
pos = (281,545);
}
);
background = {
shapes = (
{
pos = (-17,0);
ref = o;
}
);
};
layerId = m009;
shapes = (
{
closed = 1;
nodes = (
(379,-10,o),
(428,28,o),
(458,62,c),
(451,30,l),
(415,81,l),
(442,81,l),
(406,42,o),
(364,15,o),
(292,15,cs),
(185,15,o),
(80,88,o),
(80,269,cs),
(80,451,o),
(187,522,o),
(289,522,cs),
(350,522,o),
(395,497,o),
(431,467,c),
(401,459,l),
(432,514,l),
(446,487,l),
(408,521,o),
(359,547,o),
(289,547,cs),
(152,547,o),
(52,444,o),
(52,268,cs),
(52,94,o),
(149,-10,o),
(293,-10,cs)
);
}
);
width = 468;
},
{
anchors = (
{
name = bar_ver;
pos = (285,274);
},
{
name = bottom;
pos = (319,0);
},
{
name = top;
pos = (301,545);
}
);
background = {
shapes = (
{
pos = (3,0);
ref = o;
}
);
};
layerId = m002;
shapes = (
{
closed = 1;
nodes = (
(374,-10,o),
(435,9,o),
(483,55,c),
(475,38,l),
(418,130,l),
(442,122,l),
(409,88,o),
(366,66,o),
(309,66,cs),
(198,66,o),
(131,147,o),
(131,274,cs),
(131,409,o),
(206,479,o),
(306,479,cs),
(359,479,o),
(403,459,o),
(442,424,c),
(422,422,l),
(471,508,l),
(483,484,l),
(437,535,o),
(375,555,o),
(308,555,cs),
(157,555,o),
(45,453,o),
(45,272,cs),
(45,97,o),
(150,-10,o),
(308,-10,cs)
);
}
);
width = 496;
},
{
anchors = (
{
name = bar_ver;
pos = (298,274);
},
{
name = bottom;
pos = (332,0);
},
{
name = top;
pos = (314,545);
}
);
background = {
shapes = (
{
pos = (16,0);
ref = o;
}
);
};
layerId = m003;
shapes = (
{
closed = 1;
nodes = (
(392,-10,o),
(465,15,o),
(520,77,c),
(505,35,l),
(423,171,l),
(452,170,l),
(400,123,o),
(359,110,o),
(318,110,cs),
(230,110,o),
(177,176,o),
(177,278,cs),
(177,390,o),
(241,443,o),
(317,443,cs),
(365,443,o),
(410,428,o),
(461,384,c),
(426,372,l),
(503,515,l),
(524,479,l),
(466,538,o),
(392,563,o),
(310,563,cs),
(152,563,o),
(27,460,o),
(27,276,cs),
(27,93,o),
(150,-10,o),
(312,-10,cs)
);
}
);
width = 507;
}
);
metricLeft = o;
unicode = 99;
},
{
color = 4;
glyphname = d;
layers = (
{
.lastUpdate = 710547580.899;
anchors = (
{
name = bottom;
pos = (264,0);
},
{
name = center;
pos = (264,273);
},
{
name = top;
pos = (264,750);
},
{
name = topright;
pos = (554,750);
}
);
background = {
shapes = (
{
pos = (564,0);
ref = b;
scale = (-1,1);
}
);
};
layerId = m009;
shapes = (
{
closed = 1;
nodes = (
(480,0,l),
(480,750,l),
(453,750,l),
(453,420,l),
(464,413,l),
(464,151,l),
(443,104,l),
(450,104,l),
(459,0,l)
);
},
{
ref = _perut_d;
}
);
width = 569;
},
{
.lastUpdate = 710547580.899;
anchors = (
{
name = bottom;
pos = (303,0);
},
{
name = center;
pos = (303,273);
},
{
name = top;
pos = (303,750);
},
{
name = topright;
pos = (593,750);
}
);
background = {
shapes = (
{
pos = (603,0);
ref = b;
scale = (-1,1);
}
);
};
layerId = m002;
shapes = (
{
closed = 1;
nodes = (
(521,0,l),
(521,750,l),
(436,750,l),
(436,450,l),
(447,443,l),
(447,151,l),
(434,119,l),
(434,83,l),
(456,0,l)
);
},
{
pos = (-7,0);
ref = _perut_d;
}
);
width = 603;
},
{
.lastUpdate = 710547580.899;
anchors = (
{
name = bottom;
pos = (296,0);
},
{
name = center;
pos = (296,273);
},
{
name = top;
pos = (296,750);
},
{
name = topright;
pos = (586,750);
}
);
background = {
shapes = (
{
pos = (596,0);
ref = b;
scale = (-1,1);
}
);
};
layerId = m003;
shapes = (
{
closed = 1;
nodes = (
(570,0,l),
(570,750,l),
(424,750,l),
(424,450,l),
(445,443,l),
(445,151,l),
(422,119,l),
(422,83,l),
(464,0,l)
);
},
{
ref = _perut_d;
}
);
width = 643;
}
);
metricLeft = o;
metricRight = "=|h";
unicode = 100;
},
{
color = 4;
glyphname = eth;
lastChange = "2023-07-07 01:24:20 +0000";
layers = (
{
.lastUpdate = 710547580.899;
anchors = (
{
name = _center;
pos = (379,530);
}
);
layerId = m009;
shapes = (
{
closed = 1;
nodes = (
(387,-10,o),
(484,82,o),
(484,323,cs),
(484,543,o),
(408,657,o),
(274,705,c),
(287,711,l),
(271,669,l),
(263,683,l),
(419,630,o),
(466,476,o),
(456,294,c),
(455,294,l),
(422,392,o),
(351,441,o),
(261,441,cs),
(150,441,o),
(64,353,o),
(64,219,cs),
(64,96,o),
(137,-10,o),
(264,-10,cs)
);
},
{
closed = 1;
nodes = (
(158,16,o),
(94,104,o),
(94,215,cs),
(94,333,o),
(158,415,o),
(262,415,cs),
(360,415,o),
(441,343,o),
(441,221,cs),
(441,110,o),
(375,16,o),
(262,16,cs)
);
},
{
alignment = -1;
pos = (258,155);
ref = _l_slash;
}
);
width = 562;
},
{
.lastUpdate = 710547437.64;
anchors = (
{
name = _center;
pos = (379,530);
}
);
layerId = m002;
shapes = (
{
closed = 1;
nodes = (
(426,-10,o),
(515,115,o),
(515,322,cs),
(515,555,o),
(401,674,o),
(259,703,c),
(276,714,l),
(240,615,l),
(230,640,l),
(392,603,o),
(440,464,o),
(434,320,c),
(441,334,l),
(396,423,o),
(325,451,o),
(256,451,cs),
(144,451,o),
(42,370,o),
(42,225,cs),
(42,85,o),
(139,-10,o),
(269,-10,cs)
);
},
{
closed = 1;
nodes = (
(178,68,o),
(125,136,o),
(125,229,cs),
(125,321,o),
(174,381,o),
(266,381,cs),
(346,381,o),
(412,328,o),
(412,220,cs),
(412,137,o),
(356,68,o),
(269,68,cs)
);
},
{
pos = (258,155);
ref = _l_slash;
}
);
width = 562;
},
{
.lastUpdate = 710547582.042;
anchors = (
{
name = _center;
pos = (379,530);
}
);
layerId = m003;
shapes = (
{
closed = 1;
nodes = (
(418,-10,o),
(537,106,o),
(537,334,cs),
(537,576,o),
(403,670,o),
(251,703,c),
(267,718,l),
(210,569,l),
(206,588,l),
(307,568,o),
(392,493,o),
(402,389,c),
(400,388,l),
(359,454,o),
(290,474,o),
(237,474,cs),
(132,474,o),
(20,397,o),
(20,241,cs),
(20,85,o),
(132,-10,o),
(268,-10,cs)
);
},
{
closed = 1;
nodes = (
(198,114,o),
(156,167,o),
(156,237,cs),
(156,305,o),
(195,350,o),
(264,350,cs),
(327,350,o),
(380,312,o),
(380,237,cs),
(380,167,o),
(335,114,o),
(267,114,cs)
);
},
{
alignment = -1;
pos = (258,155);
ref = _l_slash;
}
);
width = 562;
}
);
metricLeft = "=|six";
metricRight = "=|six";
unicode = 240;
},
{
color = 4;
glyphname = e;
lastChange = "2023-07-06 01:14:46 +0000";
layers = (
{
anchors = (
{
name = bottom;
pos = (320,0);
},
{
name = ogonek;
pos = (466,59);
},
{
name = top;
pos = (278,545);
}
);
background = {
shapes = (
{
pos = (-16,0);
ref = c;
}
);
};
layerId = m009;
shapes = (
{
closed = 1;
nodes = (
(379,-10,o),
(426,27,o),
(457,62,c),
(462,36,l),
(421,87,l),
(442,81,l),
(405,41,o),
(363,15,o),
(292,15,cs),
(142,15,o),
(73,133,o),
(78,282,c),
(73,277,l),
(478,277,l),
(461,259,l),
(470,461,o),
(390,547,o),
(271,547,cs),
(141,547,o),
(52,445,o),
(52,270,cs),
(52,86,o),
(151,-10,o),
(292,-10,cs)
);
},
{
closed = 1;
nodes = (
(87,468,o),
(182,522,o),
(269,522,cs),
(389,522,o),
(441,419,o),
(433,290,c),
(444,300,l),
(74,300,l),
(79,289,l)
);
}
);
width = 501;
},
{
.lastUpdate = 710298886.93;
anchors = (
{
name = bottom;
pos = (332,0);
},
{
name = ogonek;
pos = (478,59);
},
{
name = top;
pos = (290,545);
}
);
background = {
shapes = (
{
pos = (-4,0);
ref = c;
}
);
};
layerId = m002;
shapes = (
{
closed = 1;
nodes = (
(388,-10,o),
(451,20,o),
(503,76,c),
(492,41,l),
(431,137,l),
(471,144,l),
(416,91,o),
(369,63,o),
(307,63,cs),
(199,63,o),
(128,146,o),
(128,257,c),
(105,252,l),
(540,252,l),
(497,205,l),
(521,444,o),
(435,555,o),
(287,555,cs),
(132,555,o),
(45,434,o),
(45,275,cs),
(45,96,o),
(154,-10,o),
(307,-10,cs)
);
},
{
closed = 1;
nodes = (
(128,416,o),
(189,481,o),
(283,481,cs),
(373,481,o),
(427,417,o),
(419,287,c),
(444,320,l),
(114,320,l),
(130,284,l)
);
}
);
width = 549;
},
{
.lastUpdate = 710298878.454;
anchors = (
{
name = bottom;
pos = (333,0);
},
{
name = ogonek;
pos = (479,59);
},
{
name = top;
pos = (291,545);
}
);
background = {
shapes = (
{
pos = (-3,0);
ref = c;
}
);
};
layerId = m003;
shapes = (
{
closed = 1;
nodes = (
(392,-10,o),
(465,19,o),
(515,73,c),
(510,54,l),
(438,163,l),
(452,164,l),
(404,123,o),
(363,111,o),
(320,111,cs),
(225,111,o),
(162,172,o),
(169,249,c),
(148,232,l),
(543,232,l),
(523,213,l),
(547,453,o),
(441,563,o),
(289,563,cs),
(134,563,o),
(27,449,o),
(27,277,cs),
(27,100,o),
(140,-10,o),
(307,-10,cs)
);
},
{
closed = 1;
nodes = (
(176,414,o),
(231,445,o),
(287,445,cs),
(346,445,o),
(393,411,o),
(391,326,c),
(408,342,l),
(150,342,l),
(168,325,l)
);
}
);
width = 550;
}
);
metricLeft = o;
unicode = 101;
},
{
glyphname = schwa;
lastChange = "2023-07-06 01:09:23 +0000";
layers = (
{
.lastUpdate = 710298563.362;
layerId = m009;
shapes = (
{
closed = 1;
nodes = (
(434,-10,o),
(502,113,o),
(502,265,cs),
(502,421,o),
(431,547,o),
(277,547,cs),
(227,547,o),
(170,534,o),
(113,494,c),
(116,507,l),
(137,471,l),
(122,471,l),
(174,509,o),
(226,522,o),
(274,522,cs),
(427,522,o),
(474,386,o),
(474,266,c),
(488,271,l),
(47,271,l),
(66,290,l),
(56,126,o),
(121,-10,o),
(281,-10,cs)
);
},
{
closed = 1;
nodes = (
(172,16,o),
(93,91,o),
(93,260,c),
(85,248,l),
(489,248,l),
(473,258,l),
(471,111,o),
(408,16,o),
(283,16,cs)
);
}
);
width = 585;
},
{
layerId = m002;
shapes = (
{
closed = 1;
nodes = (
(439,-10,o),
(526,113,o),
(526,267,cs),
(526,450,o),
(417,555,o),
(272,555,cs),
(204,555,o),
(145,538,o),
(80,500,c),
(88,527,l),
(133,428,l),
(112,431,l),
(156,460,o),
(208,479,o),
(266,479,cs),
(373,479,o),
(443,396,o),
(443,288,c),
(466,293,l),
(-7,293,l),
(34,340,l),
(11,106,o),
(120,-10,o),
(273,-10,cs)
);
},
{
closed = 1;
nodes = (
(185,68,o),
(116,130,o),
(117,258,c),
(89,225,l),
(457,225,l),
(441,261,l),
(443,129,o),
(372,68,o),
(275,68,cs)
);
}
);
width = 571;
},
{
.lastUpdate = 710298253.564;
background = {
anchors = (
{
name = bottom;
pos = (331,8);
},
{
name = ogonek;
pos = (143,494);
},
{
name = top;
pos = (289,553);
}
);
shapes = (
{
closed = 1;
nodes = (
(223,563,o),
(144,529,o),
(95,465,c),
(101,516,l),
(206,357,l),
(133,353,l),
(198,423,o),
(248,442,o),
(302,442,cs),
(397,442,o),
(460,381,o),
(453,304,c),
(474,321,l),
(55,321,l),
(99,340,l),
(75,100,o),
(180,-10,o),
(335,-10,cs),
(487,-10,o),
(595,103,o),
(595,276,cs),
(595,453,o),
(482,563,o),
(315,563,cs)
);
},
{
closed = 1;
nodes = (
(446,139,o),
(390,108,o),
(337,108,cs),
(275,108,o),
(229,142,o),
(231,227,c),
(214,211,l),
(472,211,l),
(454,228,l)
);
}
);
};
layerId = m003;
shapes = (
{
closed = 1;
nodes = (
(463,-10,o),
(594,82,o),
(594,281,cs),
(594,462,o),
(485,563,o),
(310,563,cs),
(241,563,o),
(157,547,o),
(76,500,c),
(80,521,l),
(135,389,l),
(119,392,l),
(187,431,o),
(242,445,o),
(294,445,cs),
(378,445,o),
(451,409,o),
(440,279,c),
(460,321,l),
(7,321,l),
(37,340,l),
(10,145,o),
(103,-10,o),
(306,-10,cs)
);
},
{
closed = 1;
nodes = (
(231,110,o),
(168,163,o),
(188,250,c),
(153,211,l),
(451,211,l),
(439,250,l),
(446,165,o),
(393,110,o),
(310,110,cs)
);
}
);
width = 623;
}
);
metricRight = o;
unicode = 601;
},
{
color = 4;
glyphname = f;
layers = (
{
background = {
shapes = (
{
pos = (-36,186);
ref = r;
}
);
};
layerId = m009;
shapes = (
{
closed = 1;
nodes = (
(140,0,l),
(140,521,l),
(130,513,l),
(264,513,l),
(264,537,l),
(127,537,l),
(139,527,l),
(139,597,ls),
(139,702,o),
(180,727,o),
(226,727,cs),
(257,727,o),
(282,716,o),
(311,694,c),
(296,690,l),
(319,728,l),
(323,715,l),
(300,734,o),
(268,752,o),
(228,752,cs),
(179,752,o),
(113,725,o),
(113,603,cs),
(113,554,ls),
(113,541,o),
(111,537,o),
(98,537,cs),
(12,537,l),
(12,513,l),
(124,513,l),
(113,520,l),
(113,0,l)
);
}
);
width = 273;
},
{
background = {
shapes = (
{
pos = (-6,186);
ref = r;
}
);
};
layerId = m002;
shapes = (
{
closed = 1;
nodes = (
(198,0,l),
(198,487,l),
(188,470,l),
(309,470,l),
(309,545,l),
(185,545,l),
(196,535,l),
(196,591,ls),
(196,656,o),
(222,684,o),
(267,684,cs),
(299,684,o),
(325,673,o),
(345,657,c),
(332,657,l),
(377,744,l),
(382,718,l),
(356,742,o),
(321,760,o),
(265,760,cs),
(176,760,o),
(113,699,o),
(113,600,cs),
(113,563,ls),
(113,550,o),
(108,545,o),
(95,545,cs),
(28,545,l),
(28,470,l),
(124,470,l),
(113,486,l),
(113,0,l)
);
}
);
width = 334;
},
{
background = {
shapes = (
{
pos = (-5,186);
ref = r;
}
);
};
layerId = m003;
shapes = (
{
closed = 1;
nodes = (
(229,0,l),
(229,457,l),
(219,436,l),
(328,436,l),
(328,553,l),
(216,553,l),
(227,543,l),
(227,593,ls),
(227,631,o),
(250,652,o),
(286,652,cs),
(311,652,o),
(336,643,o),
(358,629,c),
(343,627,l),
(398,739,l),
(400,723,l),
(362,752,o),
(313,768,o),
(258,768,cs),
(136,768,o),
(83,693,o),
(83,594,cs),
(83,578,ls),
(83,565,o),
(78,553,o),
(57,553,cs),
(15,553,l),
(15,436,l),
(94,436,l),
(83,456,l),
(83,0,l)
);
}
);
width = 326;
}
);
unicode = 102;
},
